solid ascii
  facet normal 0.000000e+000 1.000000e+000 -0.000000e+000
    outer loop
      vertex   6.700000e+000 2.500000e+001 3.000000e+000
      vertex   -6.700000e+000 2.500000e+001 3.000000e+000
      vertex   6.700000e+000 2.500000e+001 6.000000e+000
    endloop
  endfacet
  facet normal 0.000000e+000 1.000000e+000 0.000000e+000
    outer loop
      vertex   6.700000e+000 2.500000e+001 6.000000e+000
      vertex   -6.700000e+000 2.500000e+001 3.000000e+000
      vertex   -6.700000e+000 2.500000e+001 6.000000e+000
    endloop
  endfacet
  facet normal 0.000000e+000 -1.000000e+000 0.000000e+000
    outer loop
      vertex   -6.700000e+000 2.300000e+001 0.000000e+000
      vertex   6.700000e+000 2.300000e+001 0.000000e+000
      vertex   -6.700000e+000 2.300000e+001 6.000000e+000
    endloop
  endfacet
  facet normal 0.000000e+000 -1.000000e+000 0.000000e+000
    outer loop
      vertex   -6.700000e+000 2.300000e+001 6.000000e+000
      vertex   6.700000e+000 2.300000e+001 0.000000e+000
      vertex   6.700000e+000 2.300000e+001 6.000000e+000
    endloop
  endfacet
  facet normal 0.000000e+000 0.000000e+000 1.000000e+000
    outer loop
      vertex   6.700000e+000 2.500000e+001 6.000000e+000
      vertex   -6.700000e+000 2.500000e+001 6.000000e+000
      vertex   6.700000e+000 2.300000e+001 6.000000e+000
    endloop
  endfacet
  facet normal 0.000000e+000 0.000000e+000 1.000000e+000
    outer loop
      vertex   6.700000e+000 2.300000e+001 6.000000e+000
      vertex   -6.700000e+000 2.500000e+001 6.000000e+000
      vertex   -6.700000e+000 2.300000e+001 6.000000e+000
    endloop
  endfacet
  facet normal 0.000000e+000 -1.000000e+000 0.000000e+000
    outer loop
      vertex   -6.700000e+000 5.500000e+001 3.000000e+000
      vertex   6.700000e+000 5.500000e+001 3.000000e+000
      vertex   -6.700000e+000 5.500000e+001 6.000000e+000
    endloop
  endfacet
  facet normal 0.000000e+000 -1.000000e+000 0.000000e+000
    outer loop
      vertex   -6.700000e+000 5.500000e+001 6.000000e+000
      vertex   6.700000e+000 5.500000e+001 3.000000e+000
      vertex   6.700000e+000 5.500000e+001 6.000000e+000
    endloop
  endfacet
  facet normal 0.000000e+000 1.000000e+000 -0.000000e+000
    outer loop
      vertex   6.700000e+000 5.700000e+001 0.000000e+000
      vertex   -6.700000e+000 5.700000e+001 0.000000e+000
      vertex   6.700000e+000 5.700000e+001 6.000000e+000
    endloop
  endfacet
  facet normal 0.000000e+000 1.000000e+000 0.000000e+000
    outer loop
      vertex   6.700000e+000 5.700000e+001 6.000000e+000
      vertex   -6.700000e+000 5.700000e+001 0.000000e+000
      vertex   -6.700000e+000 5.700000e+001 6.000000e+000
    endloop
  endfacet
  facet normal 0.000000e+000 0.000000e+000 1.000000e+000
    outer loop
      vertex   6.700000e+000 5.700000e+001 6.000000e+000
      vertex   -6.700000e+000 5.700000e+001 6.000000e+000
      vertex   6.700000e+000 5.500000e+001 6.000000e+000
    endloop
  endfacet
  facet normal 0.000000e+000 0.000000e+000 1.000000e+000
    outer loop
      vertex   6.700000e+000 5.500000e+001 6.000000e+000
      vertex   -6.700000e+000 5.700000e+001 6.000000e+000
      vertex   -6.700000e+000 5.500000e+001 6.000000e+000
    endloop
  endfacet
  facet normal -9.999998e-001 -6.980264e-004 -0.000000e+000
    outer loop
      vertex   1.997275e+000 3.010438e+001 3.000000e+000
      vertex   1.997275e+000 3.010438e+001 0.000000e+000
      vertex   1.997418e+000 2.989841e+001 3.000000e+000
    endloop
  endfacet
  facet normal -9.999998e-001 -6.980264e-004 -0.000000e+000
    outer loop
      vertex   1.997418e+000 2.989841e+001 3.000000e+000
      vertex   1.997275e+000 3.010438e+001 0.000000e+000
      vertex   1.997418e+000 2.989841e+001 0.000000e+000
    endloop
  endfacet
  facet normal -9.947691e-001 1.021493e-001 0.000000e+000
    outer loop
      vertex   1.997418e+000 2.989841e+001 3.000000e+000
      vertex   1.997418e+000 2.989841e+001 0.000000e+000
      vertex   1.976380e+000 2.969353e+001 0.000000e+000
    endloop
  endfacet
  facet normal -9.947691e-001 1.021493e-001 8.694034e-019
    outer loop
      vertex   1.997418e+000 2.989841e+001 3.000000e+000
      vertex   1.976380e+000 2.969353e+001 0.000000e+000
      vertex   1.976380e+000 2.969353e+001 3.000000e+000
    endloop
  endfacet
  facet normal -9.789889e-001 2.039132e-001 0.000000e+000
    outer loop
      vertex   1.976380e+000 2.969353e+001 3.000000e+000
      vertex   1.976380e+000 2.969353e+001 0.000000e+000
      vertex   1.934381e+000 2.949190e+001 0.000000e+000
    endloop
  endfacet
  facet normal -9.789889e-001 2.039132e-001 0.000000e+000
    outer loop
      vertex   1.976380e+000 2.969353e+001 3.000000e+000
      vertex   1.934381e+000 2.949190e+001 0.000000e+000
      vertex   1.934381e+000 2.949190e+001 3.000000e+000
    endloop
  endfacet
  facet normal -9.528268e-001 3.035145e-001 0.000000e+000
    outer loop
      vertex   1.934381e+000 2.949190e+001 3.000000e+000
      vertex   1.934381e+000 2.949190e+001 0.000000e+000
      vertex   1.871869e+000 2.929565e+001 0.000000e+000
    endloop
  endfacet
  facet normal -9.528268e-001 3.035145e-001 3.477614e-018
    outer loop
      vertex   1.934381e+000 2.949190e+001 3.000000e+000
      vertex   1.871869e+000 2.929565e+001 0.000000e+000
      vertex   1.871869e+000 2.929565e+001 3.000000e+000
    endloop
  endfacet
  facet normal -9.165588e-001 3.999000e-001 0.000000e+000
    outer loop
      vertex   1.871869e+000 2.929565e+001 3.000000e+000
      vertex   1.871869e+000 2.929565e+001 0.000000e+000
      vertex   1.789506e+000 2.910688e+001 0.000000e+000
    endloop
  endfacet
  facet normal -9.165588e-001 3.999000e-001 3.477614e-018
    outer loop
      vertex   1.871869e+000 2.929565e+001 3.000000e+000
      vertex   1.789506e+000 2.910688e+001 0.000000e+000
      vertex   1.789506e+000 2.910688e+001 3.000000e+000
    endloop
  endfacet
  facet normal -8.705730e-001 4.920391e-001 0.000000e+000
    outer loop
      vertex   1.789506e+000 2.910688e+001 3.000000e+000
      vertex   1.789506e+000 2.910688e+001 0.000000e+000
      vertex   1.688165e+000 2.892757e+001 0.000000e+000
    endloop
  endfacet
  facet normal -8.705730e-001 4.920391e-001 3.477614e-018
    outer loop
      vertex   1.789506e+000 2.910688e+001 3.000000e+000
      vertex   1.688165e+000 2.892757e+001 0.000000e+000
      vertex   1.688165e+000 2.892757e+001 3.000000e+000
    endloop
  endfacet
  facet normal -8.153529e-001 5.789643e-001 0.000000e+000
    outer loop
      vertex   1.688165e+000 2.892757e+001 3.000000e+000
      vertex   1.688165e+000 2.892757e+001 0.000000e+000
      vertex   1.568921e+000 2.875964e+001 0.000000e+000
    endloop
  endfacet
  facet normal -8.153529e-001 5.789643e-001 0.000000e+000
    outer loop
      vertex   1.688165e+000 2.892757e+001 3.000000e+000
      vertex   1.568921e+000 2.875964e+001 0.000000e+000
      vertex   1.568921e+000 2.875964e+001 3.000000e+000
    endloop
  endfacet
  facet normal -7.514886e-001 6.597461e-001 0.000000e+000
    outer loop
      vertex   1.568921e+000 2.875964e+001 3.000000e+000
      vertex   1.568921e+000 2.875964e+001 0.000000e+000
      vertex   1.433039e+000 2.860487e+001 0.000000e+000
    endloop
  endfacet
  facet normal -7.514886e-001 6.597461e-001 0.000000e+000
    outer loop
      vertex   1.568921e+000 2.875964e+001 3.000000e+000
      vertex   1.433039e+000 2.860487e+001 0.000000e+000
      vertex   1.433039e+000 2.860487e+001 3.000000e+000
    endloop
  endfacet
  facet normal -6.796531e-001 7.335337e-001 0.000000e+000
    outer loop
      vertex   1.433039e+000 2.860487e+001 3.000000e+000
      vertex   1.433039e+000 2.860487e+001 0.000000e+000
      vertex   1.281960e+000 2.846488e+001 0.000000e+000
    endloop
  endfacet
  facet normal -6.796531e-001 7.335337e-001 -6.955227e-018
    outer loop
      vertex   1.433039e+000 2.860487e+001 3.000000e+000
      vertex   1.281960e+000 2.846488e+001 0.000000e+000
      vertex   1.281960e+000 2.846488e+001 3.000000e+000
    endloop
  endfacet
  facet normal -6.006061e-001 7.995450e-001 0.000000e+000
    outer loop
      vertex   1.281960e+000 2.846488e+001 3.000000e+000
      vertex   1.281960e+000 2.846488e+001 0.000000e+000
      vertex   1.117285e+000 2.834118e+001 0.000000e+000
    endloop
  endfacet
  facet normal -6.006061e-001 7.995450e-001 6.955227e-018
    outer loop
      vertex   1.281960e+000 2.846488e+001 3.000000e+000
      vertex   1.117285e+000 2.834118e+001 0.000000e+000
      vertex   1.117285e+000 2.834118e+001 3.000000e+000
    endloop
  endfacet
  facet normal -5.151938e-001 8.570737e-001 0.000000e+000
    outer loop
      vertex   1.117285e+000 2.834118e+001 3.000000e+000
      vertex   1.117285e+000 2.834118e+001 0.000000e+000
      vertex   9.407616e-001 2.823507e+001 0.000000e+000
    endloop
  endfacet
  facet normal -5.151938e-001 8.570737e-001 -6.955227e-018
    outer loop
      vertex   1.117285e+000 2.834118e+001 3.000000e+000
      vertex   9.407616e-001 2.823507e+001 0.000000e+000
      vertex   9.407616e-001 2.823507e+001 3.000000e+000
    endloop
  endfacet
  facet normal -4.243180e-001 9.055132e-001 0.000000e+000
    outer loop
      vertex   9.407616e-001 2.823507e+001 3.000000e+000
      vertex   9.407616e-001 2.823507e+001 0.000000e+000
      vertex   7.542616e-001 2.814768e+001 0.000000e+000
    endloop
  endfacet
  facet normal -4.243180e-001 9.055132e-001 3.477614e-018
    outer loop
      vertex   9.407616e-001 2.823507e+001 3.000000e+000
      vertex   7.542616e-001 2.814768e+001 0.000000e+000
      vertex   7.542616e-001 2.814768e+001 3.000000e+000
    endloop
  endfacet
  facet normal -3.289415e-001 9.443503e-001 0.000000e+000
    outer loop
      vertex   7.542616e-001 2.814768e+001 3.000000e+000
      vertex   7.542616e-001 2.814768e+001 0.000000e+000
      vertex   5.597625e-001 2.807993e+001 0.000000e+000
    endloop
  endfacet
  facet normal -3.289415e-001 9.443503e-001 0.000000e+000
    outer loop
      vertex   7.542616e-001 2.814768e+001 3.000000e+000
      vertex   5.597625e-001 2.807993e+001 0.000000e+000
      vertex   5.597625e-001 2.807993e+001 3.000000e+000
    endloop
  endfacet
  facet normal -2.300828e-001 9.731711e-001 0.000000e+000
    outer loop
      vertex   5.597625e-001 2.807993e+001 3.000000e+000
      vertex   5.597625e-001 2.807993e+001 0.000000e+000
      vertex   3.593272e-001 2.803254e+001 0.000000e+000
    endloop
  endfacet
  facet normal -2.300828e-001 9.731711e-001 1.738807e-018
    outer loop
      vertex   5.597625e-001 2.807993e+001 3.000000e+000
      vertex   3.593272e-001 2.803254e+001 0.000000e+000
      vertex   3.593272e-001 2.803254e+001 3.000000e+000
    endloop
  endfacet
  facet normal -1.287706e-001 9.916744e-001 0.000000e+000
    outer loop
      vertex   3.593272e-001 2.803254e+001 3.000000e+000
      vertex   3.593272e-001 2.803254e+001 0.000000e+000
      vertex   1.550813e-001 2.800602e+001 0.000000e+000
    endloop
  endfacet
  facet normal -1.287706e-001 9.916744e-001 1.738807e-018
    outer loop
      vertex   3.593272e-001 2.803254e+001 3.000000e+000
      vertex   1.550813e-001 2.800602e+001 0.000000e+000
      vertex   1.550813e-001 2.800602e+001 3.000000e+000
    endloop
  endfacet
  facet normal -2.610602e-002 9.996592e-001 0.000000e+000
    outer loop
      vertex   1.550813e-001 2.800602e+001 3.000000e+000
      vertex   1.550813e-001 2.800602e+001 0.000000e+000
      vertex   -5.080929e-002 2.800064e+001 0.000000e+000
    endloop
  endfacet
  facet normal -2.610602e-002 9.996592e-001 -2.173509e-019
    outer loop
      vertex   1.550813e-001 2.800602e+001 3.000000e+000
      vertex   -5.080929e-002 2.800064e+001 0.000000e+000
      vertex   -5.080929e-002 2.800064e+001 3.000000e+000
    endloop
  endfacet
  facet normal 7.684560e-002 9.970430e-001 0.000000e+000
    outer loop
      vertex   -5.080929e-002 2.800064e+001 3.000000e+000
      vertex   -5.080929e-002 2.800064e+001 0.000000e+000
      vertex   -2.561610e-001 2.801647e+001 0.000000e+000
    endloop
  endfacet
  facet normal 7.684560e-002 9.970430e-001 8.694034e-019
    outer loop
      vertex   -5.080929e-002 2.800064e+001 3.000000e+000
      vertex   -2.561610e-001 2.801647e+001 0.000000e+000
      vertex   -2.561610e-001 2.801647e+001 3.000000e+000
    endloop
  endfacet
  facet normal 1.789821e-001 9.838523e-001 0.000000e+000
    outer loop
      vertex   -2.561610e-001 2.801647e+001 3.000000e+000
      vertex   -2.561610e-001 2.801647e+001 0.000000e+000
      vertex   -4.587962e-001 2.805334e+001 0.000000e+000
    endloop
  endfacet
  facet normal 1.789821e-001 9.838523e-001 0.000000e+000
    outer loop
      vertex   -2.561610e-001 2.801647e+001 3.000000e+000
      vertex   -4.587962e-001 2.805334e+001 0.000000e+000
      vertex   -4.587962e-001 2.805334e+001 3.000000e+000
    endloop
  endfacet
  facet normal 2.792112e-001 9.602297e-001 0.000000e+000
    outer loop
      vertex   -4.587962e-001 2.805334e+001 3.000000e+000
      vertex   -4.587962e-001 2.805334e+001 0.000000e+000
      vertex   -6.565658e-001 2.811084e+001 0.000000e+000
    endloop
  endfacet
  facet normal 2.792112e-001 9.602297e-001 3.477614e-018
    outer loop
      vertex   -4.587962e-001 2.805334e+001 3.000000e+000
      vertex   -6.565658e-001 2.811084e+001 0.000000e+000
      vertex   -6.565658e-001 2.811084e+001 3.000000e+000
    endloop
  endfacet
  facet normal 3.764779e-001 9.264256e-001 0.000000e+000
    outer loop
      vertex   -6.565658e-001 2.811084e+001 3.000000e+000
      vertex   -6.565658e-001 2.811084e+001 0.000000e+000
      vertex   -8.473726e-001 2.818838e+001 0.000000e+000
    endloop
  endfacet
  facet normal 3.764779e-001 9.264256e-001 -3.477614e-018
    outer loop
      vertex   -6.565658e-001 2.811084e+001 3.000000e+000
      vertex   -8.473726e-001 2.818838e+001 0.000000e+000
      vertex   -8.473726e-001 2.818838e+001 3.000000e+000
    endloop
  endfacet
  facet normal 4.697684e-001 8.827897e-001 0.000000e+000
    outer loop
      vertex   -8.473726e-001 2.818838e+001 3.000000e+000
      vertex   -8.473726e-001 2.818838e+001 0.000000e+000
      vertex   -1.029193e+000 2.828514e+001 0.000000e+000
    endloop
  endfacet
  facet normal 4.697684e-001 8.827897e-001 3.477614e-018
    outer loop
      vertex   -8.473726e-001 2.818838e+001 3.000000e+000
      vertex   -1.029193e+000 2.828514e+001 0.000000e+000
      vertex   -1.029193e+000 2.828514e+001 3.000000e+000
    endloop
  endfacet
  facet normal 5.580618e-001 8.297994e-001 0.000000e+000
    outer loop
      vertex   -1.029193e+000 2.828514e+001 3.000000e+000
      vertex   -1.029193e+000 2.828514e+001 0.000000e+000
      vertex   -1.200099e+000 2.840007e+001 0.000000e+000
    endloop
  endfacet
  facet normal 5.580618e-001 8.297994e-001 0.000000e+000
    outer loop
      vertex   -1.029193e+000 2.828514e+001 3.000000e+000
      vertex   -1.200099e+000 2.840007e+001 0.000000e+000
      vertex   -1.200099e+000 2.840007e+001 3.000000e+000
    endloop
  endfacet
  facet normal 6.404446e-001 7.680044e-001 0.000000e+000
    outer loop
      vertex   -1.200099e+000 2.840007e+001 3.000000e+000
      vertex   -1.200099e+000 2.840007e+001 0.000000e+000
      vertex   -1.358278e+000 2.853198e+001 0.000000e+000
    endloop
  endfacet
  facet normal 6.404446e-001 7.680044e-001 0.000000e+000
    outer loop
      vertex   -1.200099e+000 2.840007e+001 3.000000e+000
      vertex   -1.358278e+000 2.853198e+001 0.000000e+000
      vertex   -1.358278e+000 2.853198e+001 3.000000e+000
    endloop
  endfacet
  facet normal 7.160315e-001 6.980680e-001 0.000000e+000
    outer loop
      vertex   -1.358278e+000 2.853198e+001 3.000000e+000
      vertex   -1.358278e+000 2.853198e+001 0.000000e+000
      vertex   -1.502052e+000 2.867945e+001 0.000000e+000
    endloop
  endfacet
  facet normal 7.160315e-001 6.980680e-001 0.000000e+000
    outer loop
      vertex   -1.358278e+000 2.853198e+001 3.000000e+000
      vertex   -1.502052e+000 2.867945e+001 0.000000e+000
      vertex   -1.502052e+000 2.867945e+001 3.000000e+000
    endloop
  endfacet
  facet normal 7.840296e-001 6.207235e-001 0.000000e+000
    outer loop
      vertex   -1.502052e+000 2.867945e+001 3.000000e+000
      vertex   -1.502052e+000 2.867945e+001 0.000000e+000
      vertex   -1.629897e+000 2.884093e+001 0.000000e+000
    endloop
  endfacet
  facet normal 7.840296e-001 6.207235e-001 0.000000e+000
    outer loop
      vertex   -1.502052e+000 2.867945e+001 3.000000e+000
      vertex   -1.629897e+000 2.884093e+001 0.000000e+000
      vertex   -1.629897e+000 2.884093e+001 3.000000e+000
    endloop
  endfacet
  facet normal 8.437054e-001 5.368065e-001 0.000000e+000
    outer loop
      vertex   -1.629897e+000 2.884093e+001 3.000000e+000
      vertex   -1.629897e+000 2.884093e+001 0.000000e+000
      vertex   -1.740458e+000 2.901470e+001 0.000000e+000
    endloop
  endfacet
  facet normal 8.437054e-001 5.368065e-001 0.000000e+000
    outer loop
      vertex   -1.629897e+000 2.884093e+001 3.000000e+000
      vertex   -1.740458e+000 2.901470e+001 0.000000e+000
      vertex   -1.740458e+000 2.901470e+001 3.000000e+000
    endloop
  endfacet
  facet normal 8.944427e-001 4.471826e-001 0.000000e+000
    outer loop
      vertex   -1.740458e+000 2.901470e+001 3.000000e+000
      vertex   -1.740458e+000 2.901470e+001 0.000000e+000
      vertex   -1.832560e+000 2.919893e+001 0.000000e+000
    endloop
  endfacet
  facet normal 8.944427e-001 4.471826e-001 0.000000e+000
    outer loop
      vertex   -1.740458e+000 2.901470e+001 3.000000e+000
      vertex   -1.832560e+000 2.919893e+001 0.000000e+000
      vertex   -1.832560e+000 2.919893e+001 3.000000e+000
    endloop
  endfacet
  facet normal 9.356883e-001 3.528278e-001 0.000000e+000
    outer loop
      vertex   -1.832560e+000 2.919893e+001 3.000000e+000
      vertex   -1.832560e+000 2.919893e+001 0.000000e+000
      vertex   -1.905229e+000 2.939164e+001 0.000000e+000
    endloop
  endfacet
  facet normal 9.356883e-001 3.528278e-001 3.477614e-018
    outer loop
      vertex   -1.832560e+000 2.919893e+001 3.000000e+000
      vertex   -1.905229e+000 2.939164e+001 0.000000e+000
      vertex   -1.905229e+000 2.939164e+001 3.000000e+000
    endloop
  endfacet
  facet normal 9.670133e-001 2.547258e-001 0.000000e+000
    outer loop
      vertex   -1.905229e+000 2.939164e+001 3.000000e+000
      vertex   -1.905229e+000 2.939164e+001 0.000000e+000
      vertex   -1.957693e+000 2.959081e+001 0.000000e+000
    endloop
  endfacet
  facet normal 9.670133e-001 2.547258e-001 0.000000e+000
    outer loop
      vertex   -1.905229e+000 2.939164e+001 3.000000e+000
      vertex   -1.957693e+000 2.959081e+001 0.000000e+000
      vertex   -1.957693e+000 2.959081e+001 3.000000e+000
    endloop
  endfacet
  facet normal 9.880824e-001 1.539257e-001 0.000000e+000
    outer loop
      vertex   -1.957693e+000 2.959081e+001 3.000000e+000
      vertex   -1.957693e+000 2.959081e+001 0.000000e+000
      vertex   -1.989395e+000 2.979431e+001 0.000000e+000
    endloop
  endfacet
  facet normal 9.880824e-001 1.539257e-001 0.000000e+000
    outer loop
      vertex   -1.957693e+000 2.959081e+001 3.000000e+000
      vertex   -1.989395e+000 2.979431e+001 0.000000e+000
      vertex   -1.989395e+000 2.979431e+001 3.000000e+000
    endloop
  endfacet
  facet normal 9.986735e-001 5.149005e-002 0.000000e+000
    outer loop
      vertex   -1.989395e+000 2.979431e+001 3.000000e+000
      vertex   -1.989395e+000 2.979431e+001 0.000000e+000
      vertex   -2.000000e+000 3.000000e+001 3.000000e+000
    endloop
  endfacet
  facet normal 9.986735e-001 5.149005e-002 0.000000e+000
    outer loop
      vertex   -2.000000e+000 3.000000e+001 3.000000e+000
      vertex   -1.989395e+000 2.979431e+001 0.000000e+000
      vertex   -2.000000e+000 3.000000e+001 0.000000e+000
    endloop
  endfacet
  facet normal -1.000000e+000 0.000000e+000 0.000000e+000
    outer loop
      vertex   1.997275e+000 4.989563e+001 0.000000e+000
      vertex   1.997275e+000 3.010438e+001 0.000000e+000
      vertex   1.997275e+000 4.989563e+001 3.000000e+000
    endloop
  endfacet
  facet normal -1.000000e+000 -0.000000e+000 0.000000e+000
    outer loop
      vertex   1.997275e+000 4.989563e+001 3.000000e+000
      vertex   1.997275e+000 3.010438e+001 0.000000e+000
      vertex   1.997275e+000 3.010438e+001 3.000000e+000
    endloop
  endfacet
  facet normal 9.986735e-001 -5.149005e-002 0.000000e+000
    outer loop
      vertex   -2.000000e+000 5.000000e+001 3.000000e+000
      vertex   -2.000000e+000 5.000000e+001 0.000000e+000
      vertex   -1.989395e+000 5.020569e+001 3.000000e+000
    endloop
  endfacet
  facet normal 9.986735e-001 -5.149005e-002 0.000000e+000
    outer loop
      vertex   -1.989395e+000 5.020569e+001 3.000000e+000
      vertex   -2.000000e+000 5.000000e+001 0.000000e+000
      vertex   -1.989395e+000 5.020569e+001 0.000000e+000
    endloop
  endfacet
  facet normal 9.880826e-001 -1.539243e-001 0.000000e+000
    outer loop
      vertex   -1.989395e+000 5.020569e+001 3.000000e+000
      vertex   -1.989395e+000 5.020569e+001 0.000000e+000
      vertex   -1.957693e+000 5.040919e+001 0.000000e+000
    endloop
  endfacet
  facet normal 9.880826e-001 -1.539243e-001 0.000000e+000
    outer loop
      vertex   -1.989395e+000 5.020569e+001 3.000000e+000
      vertex   -1.957693e+000 5.040919e+001 0.000000e+000
      vertex   -1.957693e+000 5.040919e+001 3.000000e+000
    endloop
  endfacet
  facet normal 9.670127e-001 -2.547281e-001 0.000000e+000
    outer loop
      vertex   -1.957693e+000 5.040919e+001 3.000000e+000
      vertex   -1.957693e+000 5.040919e+001 0.000000e+000
      vertex   -1.905229e+000 5.060836e+001 0.000000e+000
    endloop
  endfacet
  facet normal 9.670127e-001 -2.547281e-001 3.477614e-018
    outer loop
      vertex   -1.957693e+000 5.040919e+001 3.000000e+000
      vertex   -1.905229e+000 5.060836e+001 0.000000e+000
      vertex   -1.905229e+000 5.060836e+001 3.000000e+000
    endloop
  endfacet
  facet normal 9.356883e-001 -3.528278e-001 0.000000e+000
    outer loop
      vertex   -1.905229e+000 5.060836e+001 3.000000e+000
      vertex   -1.905229e+000 5.060836e+001 0.000000e+000
      vertex   -1.832560e+000 5.080107e+001 0.000000e+000
    endloop
  endfacet
  facet normal 9.356883e-001 -3.528278e-001 -3.477614e-018
    outer loop
      vertex   -1.905229e+000 5.060836e+001 3.000000e+000
      vertex   -1.832560e+000 5.080107e+001 0.000000e+000
      vertex   -1.832560e+000 5.080107e+001 3.000000e+000
    endloop
  endfacet
  facet normal 8.944408e-001 -4.471863e-001 0.000000e+000
    outer loop
      vertex   -1.832560e+000 5.080107e+001 3.000000e+000
      vertex   -1.832560e+000 5.080107e+001 0.000000e+000
      vertex   -1.740458e+000 5.098529e+001 0.000000e+000
    endloop
  endfacet
  facet normal 8.944408e-001 -4.471863e-001 0.000000e+000
    outer loop
      vertex   -1.832560e+000 5.080107e+001 3.000000e+000
      vertex   -1.740458e+000 5.098529e+001 0.000000e+000
      vertex   -1.740458e+000 5.098529e+001 3.000000e+000
    endloop
  endfacet
  facet normal 8.437081e-001 -5.368023e-001 0.000000e+000
    outer loop
      vertex   -1.740458e+000 5.098529e+001 3.000000e+000
      vertex   -1.740458e+000 5.098529e+001 0.000000e+000
      vertex   -1.629897e+000 5.115907e+001 0.000000e+000
    endloop
  endfacet
  facet normal 8.437081e-001 -5.368023e-001 -6.955227e-018
    outer loop
      vertex   -1.740458e+000 5.098529e+001 3.000000e+000
      vertex   -1.629897e+000 5.115907e+001 0.000000e+000
      vertex   -1.629897e+000 5.115907e+001 3.000000e+000
    endloop
  endfacet
  facet normal 7.840296e-001 -6.207235e-001 0.000000e+000
    outer loop
      vertex   -1.629897e+000 5.115907e+001 3.000000e+000
      vertex   -1.629897e+000 5.115907e+001 0.000000e+000
      vertex   -1.502052e+000 5.132055e+001 0.000000e+000
    endloop
  endfacet
  facet normal 7.840296e-001 -6.207235e-001 0.000000e+000
    outer loop
      vertex   -1.629897e+000 5.115907e+001 3.000000e+000
      vertex   -1.502052e+000 5.132055e+001 0.000000e+000
      vertex   -1.502052e+000 5.132055e+001 3.000000e+000
    endloop
  endfacet
  facet normal 7.160360e-001 -6.980633e-001 0.000000e+000
    outer loop
      vertex   -1.502052e+000 5.132055e+001 3.000000e+000
      vertex   -1.502052e+000 5.132055e+001 0.000000e+000
      vertex   -1.358278e+000 5.146802e+001 0.000000e+000
    endloop
  endfacet
  facet normal 7.160360e-001 -6.980633e-001 0.000000e+000
    outer loop
      vertex   -1.502052e+000 5.132055e+001 3.000000e+000
      vertex   -1.358278e+000 5.146802e+001 0.000000e+000
      vertex   -1.358278e+000 5.146802e+001 3.000000e+000
    endloop
  endfacet
  facet normal 6.404392e-001 -7.680089e-001 0.000000e+000
    outer loop
      vertex   -1.358278e+000 5.146802e+001 3.000000e+000
      vertex   -1.358278e+000 5.146802e+001 0.000000e+000
      vertex   -1.200099e+000 5.159993e+001 0.000000e+000
    endloop
  endfacet
  facet normal 6.404392e-001 -7.680089e-001 0.000000e+000
    outer loop
      vertex   -1.358278e+000 5.146802e+001 3.000000e+000
      vertex   -1.200099e+000 5.159993e+001 0.000000e+000
      vertex   -1.200099e+000 5.159993e+001 3.000000e+000
    endloop
  endfacet
  facet normal 5.580682e-001 -8.297951e-001 0.000000e+000
    outer loop
      vertex   -1.200099e+000 5.159993e+001 3.000000e+000
      vertex   -1.200099e+000 5.159993e+001 0.000000e+000
      vertex   -1.029193e+000 5.171487e+001 0.000000e+000
    endloop
  endfacet
  facet normal 5.580682e-001 -8.297951e-001 -6.955227e-018
    outer loop
      vertex   -1.200099e+000 5.159993e+001 3.000000e+000
      vertex   -1.029193e+000 5.171487e+001 0.000000e+000
      vertex   -1.029193e+000 5.171487e+001 3.000000e+000
    endloop
  endfacet
  facet normal 4.697612e-001 -8.827935e-001 0.000000e+000
    outer loop
      vertex   -1.029193e+000 5.171487e+001 3.000000e+000
      vertex   -1.029193e+000 5.171487e+001 0.000000e+000
      vertex   -8.473726e-001 5.181162e+001 0.000000e+000
    endloop
  endfacet
  facet normal 4.697612e-001 -8.827935e-001 3.477614e-018
    outer loop
      vertex   -1.029193e+000 5.171487e+001 3.000000e+000
      vertex   -8.473726e-001 5.181162e+001 0.000000e+000
      vertex   -8.473726e-001 5.181162e+001 3.000000e+000
    endloop
  endfacet
  facet normal 3.764859e-001 -9.264224e-001 0.000000e+000
    outer loop
      vertex   -8.473726e-001 5.181162e+001 3.000000e+000
      vertex   -8.473726e-001 5.181162e+001 0.000000e+000
      vertex   -6.565658e-001 5.188916e+001 0.000000e+000
    endloop
  endfacet
  facet normal 3.764859e-001 -9.264224e-001 0.000000e+000
    outer loop
      vertex   -8.473726e-001 5.181162e+001 3.000000e+000
      vertex   -6.565658e-001 5.188916e+001 0.000000e+000
      vertex   -6.565658e-001 5.188916e+001 3.000000e+000
    endloop
  endfacet
  facet normal 2.792112e-001 -9.602297e-001 0.000000e+000
    outer loop
      vertex   -6.565658e-001 5.188916e+001 3.000000e+000
      vertex   -6.565658e-001 5.188916e+001 0.000000e+000
      vertex   -4.587962e-001 5.194667e+001 0.000000e+000
    endloop
  endfacet
  facet normal 2.792112e-001 -9.602297e-001 -3.477614e-018
    outer loop
      vertex   -6.565658e-001 5.188916e+001 3.000000e+000
      vertex   -4.587962e-001 5.194667e+001 0.000000e+000
      vertex   -4.587962e-001 5.194667e+001 3.000000e+000
    endloop
  endfacet
  facet normal 1.789732e-001 -9.838539e-001 0.000000e+000
    outer loop
      vertex   -4.587962e-001 5.194667e+001 3.000000e+000
      vertex   -4.587962e-001 5.194667e+001 0.000000e+000
      vertex   -2.561610e-001 5.198353e+001 0.000000e+000
    endloop
  endfacet
  facet normal 1.789732e-001 -9.838539e-001 3.477614e-018
    outer loop
      vertex   -4.587962e-001 5.194667e+001 3.000000e+000
      vertex   -2.561610e-001 5.198353e+001 0.000000e+000
      vertex   -2.561610e-001 5.198353e+001 3.000000e+000
    endloop
  endfacet
  facet normal 7.684560e-002 -9.970430e-001 0.000000e+000
    outer loop
      vertex   -2.561610e-001 5.198353e+001 3.000000e+000
      vertex   -2.561610e-001 5.198353e+001 0.000000e+000
      vertex   -5.080929e-002 5.199936e+001 0.000000e+000
    endloop
  endfacet
  facet normal 7.684560e-002 -9.970430e-001 -8.694034e-019
    outer loop
      vertex   -2.561610e-001 5.198353e+001 3.000000e+000
      vertex   -5.080929e-002 5.199936e+001 0.000000e+000
      vertex   -5.080929e-002 5.199936e+001 3.000000e+000
    endloop
  endfacet
  facet normal -2.611528e-002 -9.996589e-001 -0.000000e+000
    outer loop
      vertex   -5.080929e-002 5.199936e+001 3.000000e+000
      vertex   -5.080929e-002 5.199936e+001 0.000000e+000
      vertex   1.550813e-001 5.199398e+001 0.000000e+000
    endloop
  endfacet
  facet normal -2.611528e-002 -9.996589e-001 -2.173509e-019
    outer loop
      vertex   -5.080929e-002 5.199936e+001 3.000000e+000
      vertex   1.550813e-001 5.199398e+001 0.000000e+000
      vertex   1.550813e-001 5.199398e+001 3.000000e+000
    endloop
  endfacet
  facet normal -1.287615e-001 -9.916756e-001 -0.000000e+000
    outer loop
      vertex   1.550813e-001 5.199398e+001 3.000000e+000
      vertex   1.550813e-001 5.199398e+001 0.000000e+000
      vertex   3.593272e-001 5.196746e+001 0.000000e+000
    endloop
  endfacet
  facet normal -1.287615e-001 -9.916756e-001 0.000000e+000
    outer loop
      vertex   1.550813e-001 5.199398e+001 3.000000e+000
      vertex   3.593272e-001 5.196746e+001 0.000000e+000
      vertex   3.593272e-001 5.196746e+001 3.000000e+000
    endloop
  endfacet
  facet normal -2.300740e-001 -9.731731e-001 -0.000000e+000
    outer loop
      vertex   3.593272e-001 5.196746e+001 3.000000e+000
      vertex   3.593272e-001 5.196746e+001 0.000000e+000
      vertex   5.597625e-001 5.192007e+001 0.000000e+000
    endloop
  endfacet
  facet normal -2.300740e-001 -9.731731e-001 0.000000e+000
    outer loop
      vertex   3.593272e-001 5.196746e+001 3.000000e+000
      vertex   5.597625e-001 5.192007e+001 0.000000e+000
      vertex   5.597625e-001 5.192007e+001 3.000000e+000
    endloop
  endfacet
  facet normal -3.289415e-001 -9.443503e-001 -0.000000e+000
    outer loop
      vertex   5.597625e-001 5.192007e+001 3.000000e+000
      vertex   5.597625e-001 5.192007e+001 0.000000e+000
      vertex   7.542616e-001 5.185232e+001 0.000000e+000
    endloop
  endfacet
  facet normal -3.289415e-001 -9.443503e-001 0.000000e+000
    outer loop
      vertex   5.597625e-001 5.192007e+001 3.000000e+000
      vertex   7.542616e-001 5.185232e+001 0.000000e+000
      vertex   7.542616e-001 5.185232e+001 3.000000e+000
    endloop
  endfacet
  facet normal -4.243256e-001 -9.055097e-001 -0.000000e+000
    outer loop
      vertex   7.542616e-001 5.185232e+001 3.000000e+000
      vertex   7.542616e-001 5.185232e+001 0.000000e+000
      vertex   9.407616e-001 5.176493e+001 0.000000e+000
    endloop
  endfacet
  facet normal -4.243256e-001 -9.055097e-001 3.477614e-018
    outer loop
      vertex   7.542616e-001 5.185232e+001 3.000000e+000
      vertex   9.407616e-001 5.176493e+001 0.000000e+000
      vertex   9.407616e-001 5.176493e+001 3.000000e+000
    endloop
  endfacet
  facet normal -5.151938e-001 -8.570737e-001 -0.000000e+000
    outer loop
      vertex   9.407616e-001 5.176493e+001 3.000000e+000
      vertex   9.407616e-001 5.176493e+001 0.000000e+000
      vertex   1.117285e+000 5.165882e+001 0.000000e+000
    endloop
  endfacet
  facet normal -5.151938e-001 -8.570737e-001 6.955227e-018
    outer loop
      vertex   9.407616e-001 5.176493e+001 3.000000e+000
      vertex   1.117285e+000 5.165882e+001 0.000000e+000
      vertex   1.117285e+000 5.165882e+001 3.000000e+000
    endloop
  endfacet
  facet normal -6.006120e-001 -7.995406e-001 -0.000000e+000
    outer loop
      vertex   1.117285e+000 5.165882e+001 3.000000e+000
      vertex   1.117285e+000 5.165882e+001 0.000000e+000
      vertex   1.281960e+000 5.153511e+001 0.000000e+000
    endloop
  endfacet
  facet normal -6.006120e-001 -7.995406e-001 0.000000e+000
    outer loop
      vertex   1.117285e+000 5.165882e+001 3.000000e+000
      vertex   1.281960e+000 5.153511e+001 0.000000e+000
      vertex   1.281960e+000 5.153511e+001 3.000000e+000
    endloop
  endfacet
  facet normal -6.796481e-001 -7.335383e-001 -0.000000e+000
    outer loop
      vertex   1.281960e+000 5.153511e+001 3.000000e+000
      vertex   1.281960e+000 5.153511e+001 0.000000e+000
      vertex   1.433039e+000 5.139513e+001 0.000000e+000
    endloop
  endfacet
  facet normal -6.796481e-001 -7.335383e-001 6.955227e-018
    outer loop
      vertex   1.281960e+000 5.153511e+001 3.000000e+000
      vertex   1.433039e+000 5.139513e+001 0.000000e+000
      vertex   1.433039e+000 5.139513e+001 3.000000e+000
    endloop
  endfacet
  facet normal -7.514886e-001 -6.597461e-001 -0.000000e+000
    outer loop
      vertex   1.433039e+000 5.139513e+001 3.000000e+000
      vertex   1.433039e+000 5.139513e+001 0.000000e+000
      vertex   1.568921e+000 5.124036e+001 0.000000e+000
    endloop
  endfacet
  facet normal -7.514886e-001 -6.597461e-001 0.000000e+000
    outer loop
      vertex   1.433039e+000 5.139513e+001 3.000000e+000
      vertex   1.568921e+000 5.124036e+001 0.000000e+000
      vertex   1.568921e+000 5.124036e+001 3.000000e+000
    endloop
  endfacet
  facet normal -8.153529e-001 -5.789643e-001 -0.000000e+000
    outer loop
      vertex   1.568921e+000 5.124036e+001 3.000000e+000
      vertex   1.568921e+000 5.124036e+001 0.000000e+000
      vertex   1.688165e+000 5.107243e+001 0.000000e+000
    endloop
  endfacet
  facet normal -8.153529e-001 -5.789643e-001 0.000000e+000
    outer loop
      vertex   1.568921e+000 5.124036e+001 3.000000e+000
      vertex   1.688165e+000 5.107243e+001 0.000000e+000
      vertex   1.688165e+000 5.107243e+001 3.000000e+000
    endloop
  endfacet
  facet normal -8.705708e-001 -4.920431e-001 -0.000000e+000
    outer loop
      vertex   1.688165e+000 5.107243e+001 3.000000e+000
      vertex   1.688165e+000 5.107243e+001 0.000000e+000
      vertex   1.789506e+000 5.089312e+001 0.000000e+000
    endloop
  endfacet
  facet normal -8.705708e-001 -4.920431e-001 3.477614e-018
    outer loop
      vertex   1.688165e+000 5.107243e+001 3.000000e+000
      vertex   1.789506e+000 5.089312e+001 0.000000e+000
      vertex   1.789506e+000 5.089312e+001 3.000000e+000
    endloop
  endfacet
  facet normal -9.165618e-001 -3.998932e-001 -0.000000e+000
    outer loop
      vertex   1.789506e+000 5.089312e+001 3.000000e+000
      vertex   1.789506e+000 5.089312e+001 0.000000e+000
      vertex   1.871869e+000 5.070435e+001 0.000000e+000
    endloop
  endfacet
  facet normal -9.165618e-001 -3.998932e-001 3.477614e-018
    outer loop
      vertex   1.789506e+000 5.089312e+001 3.000000e+000
      vertex   1.871869e+000 5.070435e+001 0.000000e+000
      vertex   1.871869e+000 5.070435e+001 3.000000e+000
    endloop
  endfacet
  facet normal -9.528260e-001 -3.035172e-001 -0.000000e+000
    outer loop
      vertex   1.871869e+000 5.070435e+001 3.000000e+000
      vertex   1.871869e+000 5.070435e+001 0.000000e+000
      vertex   1.934381e+000 5.050810e+001 0.000000e+000
    endloop
  endfacet
  facet normal -9.528260e-001 -3.035172e-001 -6.955227e-018
    outer loop
      vertex   1.871869e+000 5.070435e+001 3.000000e+000
      vertex   1.934381e+000 5.050810e+001 0.000000e+000
      vertex   1.934381e+000 5.050810e+001 3.000000e+000
    endloop
  endfacet
  facet normal -9.789889e-001 -2.039132e-001 -0.000000e+000
    outer loop
      vertex   1.934381e+000 5.050810e+001 3.000000e+000
      vertex   1.934381e+000 5.050810e+001 0.000000e+000
      vertex   1.976380e+000 5.030647e+001 0.000000e+000
    endloop
  endfacet
  facet normal -9.789889e-001 -2.039132e-001 0.000000e+000
    outer loop
      vertex   1.934381e+000 5.050810e+001 3.000000e+000
      vertex   1.976380e+000 5.030647e+001 0.000000e+000
      vertex   1.976380e+000 5.030647e+001 3.000000e+000
    endloop
  endfacet
  facet normal -9.947691e-001 -1.021493e-001 -0.000000e+000
    outer loop
      vertex   1.976380e+000 5.030647e+001 3.000000e+000
      vertex   1.976380e+000 5.030647e+001 0.000000e+000
      vertex   1.997418e+000 5.010159e+001 0.000000e+000
    endloop
  endfacet
  facet normal -9.947691e-001 -1.021493e-001 -8.694034e-019
    outer loop
      vertex   1.976380e+000 5.030647e+001 3.000000e+000
      vertex   1.997418e+000 5.010159e+001 0.000000e+000
      vertex   1.997418e+000 5.010159e+001 3.000000e+000
    endloop
  endfacet
  facet normal -9.999998e-001 6.980328e-004 0.000000e+000
    outer loop
      vertex   1.997418e+000 5.010159e+001 3.000000e+000
      vertex   1.997418e+000 5.010159e+001 0.000000e+000
      vertex   1.997275e+000 4.989563e+001 3.000000e+000
    endloop
  endfacet
  facet normal -9.999998e-001 6.980328e-004 0.000000e+000
    outer loop
      vertex   1.997275e+000 4.989563e+001 3.000000e+000
      vertex   1.997418e+000 5.010159e+001 0.000000e+000
      vertex   1.997275e+000 4.989563e+001 0.000000e+000
    endloop
  endfacet
  facet normal 1.000000e+000 0.000000e+000 0.000000e+000
    outer loop
      vertex   -2.000000e+000 3.000000e+001 0.000000e+000
      vertex   -2.000000e+000 5.000000e+001 0.000000e+000
      vertex   -2.000000e+000 3.000000e+001 3.000000e+000
    endloop
  endfacet
  facet normal 1.000000e+000 -0.000000e+000 0.000000e+000
    outer loop
      vertex   -2.000000e+000 3.000000e+001 3.000000e+000
      vertex   -2.000000e+000 5.000000e+001 0.000000e+000
      vertex   -2.000000e+000 5.000000e+001 3.000000e+000
    endloop
  endfacet
  facet normal 1.000000e+000 0.000000e+000 0.000000e+000
    outer loop
      vertex   6.700000e+000 2.300000e+001 6.000000e+000
      vertex   6.700000e+000 2.300000e+001 0.000000e+000
      vertex   6.700000e+000 2.500000e+001 3.000000e+000
    endloop
  endfacet
  facet normal 1.000000e+000 0.000000e+000 0.000000e+000
    outer loop
      vertex   6.700000e+000 2.500000e+001 3.000000e+000
      vertex   6.700000e+000 2.300000e+001 0.000000e+000
      vertex   6.700000e+000 5.700000e+001 0.000000e+000
    endloop
  endfacet
  facet normal 1.000000e+000 -0.000000e+000 0.000000e+000
    outer loop
      vertex   6.700000e+000 2.500000e+001 3.000000e+000
      vertex   6.700000e+000 5.700000e+001 0.000000e+000
      vertex   6.700000e+000 5.500000e+001 3.000000e+000
    endloop
  endfacet
  facet normal 1.000000e+000 -0.000000e+000 0.000000e+000
    outer loop
      vertex   6.700000e+000 5.500000e+001 3.000000e+000
      vertex   6.700000e+000 5.700000e+001 0.000000e+000
      vertex   6.700000e+000 5.700000e+001 6.000000e+000
    endloop
  endfacet
  facet normal 1.000000e+000 0.000000e+000 0.000000e+000
    outer loop
      vertex   6.700000e+000 5.500000e+001 3.000000e+000
      vertex   6.700000e+000 5.700000e+001 6.000000e+000
      vertex   6.700000e+000 5.500000e+001 6.000000e+000
    endloop
  endfacet
  facet normal 1.000000e+000 0.000000e+000 -0.000000e+000
    outer loop
      vertex   6.700000e+000 2.500000e+001 3.000000e+000
      vertex   6.700000e+000 2.500000e+001 6.000000e+000
      vertex   6.700000e+000 2.300000e+001 6.000000e+000
    endloop
  endfacet
  facet normal -1.000000e+000 0.000000e+000 -0.000000e+000
    outer loop
      vertex   -6.700000e+000 5.700000e+001 6.000000e+000
      vertex   -6.700000e+000 5.700000e+001 0.000000e+000
      vertex   -6.700000e+000 5.500000e+001 3.000000e+000
    endloop
  endfacet
  facet normal -1.000000e+000 0.000000e+000 -0.000000e+000
    outer loop
      vertex   -6.700000e+000 5.500000e+001 3.000000e+000
      vertex   -6.700000e+000 5.700000e+001 0.000000e+000
      vertex   -6.700000e+000 2.300000e+001 0.000000e+000
    endloop
  endfacet
  facet normal -1.000000e+000 -0.000000e+000 0.000000e+000
    outer loop
      vertex   -6.700000e+000 5.500000e+001 3.000000e+000
      vertex   -6.700000e+000 2.300000e+001 0.000000e+000
      vertex   -6.700000e+000 2.500000e+001 3.000000e+000
    endloop
  endfacet
  facet normal -1.000000e+000 -0.000000e+000 0.000000e+000
    outer loop
      vertex   -6.700000e+000 2.500000e+001 3.000000e+000
      vertex   -6.700000e+000 2.300000e+001 0.000000e+000
      vertex   -6.700000e+000 2.300000e+001 6.000000e+000
    endloop
  endfacet
  facet normal -1.000000e+000 0.000000e+000 0.000000e+000
    outer loop
      vertex   -6.700000e+000 2.500000e+001 3.000000e+000
      vertex   -6.700000e+000 2.300000e+001 6.000000e+000
      vertex   -6.700000e+000 2.500000e+001 6.000000e+000
    endloop
  endfacet
  facet normal -1.000000e+000 0.000000e+000 0.000000e+000
    outer loop
      vertex   -6.700000e+000 5.500000e+001 3.000000e+000
      vertex   -6.700000e+000 5.500000e+001 6.000000e+000
      vertex   -6.700000e+000 5.700000e+001 6.000000e+000
    endloop
  endfacet
  facet normal 0.000000e+000 0.000000e+000 1.000000e+000
    outer loop
      vertex   -1.989395e+000 2.979431e+001 3.000000e+000
      vertex   -2.000000e+000 3.000000e+001 3.000000e+000
      vertex   -6.700000e+000 2.500000e+001 3.000000e+000
    endloop
  endfacet
  facet normal 0.000000e+000 0.000000e+000 1.000000e+000
    outer loop
      vertex   -6.700000e+000 2.500000e+001 3.000000e+000
      vertex   -2.000000e+000 3.000000e+001 3.000000e+000
      vertex   -2.000000e+000 5.000000e+001 3.000000e+000
    endloop
  endfacet
  facet normal 0.000000e+000 0.000000e+000 1.000000e+000
    outer loop
      vertex   -6.700000e+000 2.500000e+001 3.000000e+000
      vertex   -2.000000e+000 5.000000e+001 3.000000e+000
      vertex   -6.700000e+000 5.500000e+001 3.000000e+000
    endloop
  endfacet
  facet normal 0.000000e+000 0.000000e+000 1.000000e+000
    outer loop
      vertex   -6.700000e+000 5.500000e+001 3.000000e+000
      vertex   -2.000000e+000 5.000000e+001 3.000000e+000
      vertex   -1.989395e+000 5.020569e+001 3.000000e+000
    endloop
  endfacet
  facet normal 0.000000e+000 0.000000e+000 1.000000e+000
    outer loop
      vertex   -6.700000e+000 5.500000e+001 3.000000e+000
      vertex   -1.989395e+000 5.020569e+001 3.000000e+000
      vertex   -1.957693e+000 5.040919e+001 3.000000e+000
    endloop
  endfacet
  facet normal 0.000000e+000 -0.000000e+000 1.000000e+000
    outer loop
      vertex   -1.957693e+000 5.040919e+001 3.000000e+000
      vertex   -1.905229e+000 5.060836e+001 3.000000e+000
      vertex   -6.700000e+000 5.500000e+001 3.000000e+000
    endloop
  endfacet
  facet normal 0.000000e+000 0.000000e+000 1.000000e+000
    outer loop
      vertex   -6.700000e+000 5.500000e+001 3.000000e+000
      vertex   -1.905229e+000 5.060836e+001 3.000000e+000
      vertex   -1.832560e+000 5.080107e+001 3.000000e+000
    endloop
  endfacet
  facet normal 0.000000e+000 0.000000e+000 1.000000e+000
    outer loop
      vertex   -6.700000e+000 5.500000e+001 3.000000e+000
      vertex   -1.832560e+000 5.080107e+001 3.000000e+000
      vertex   -1.740458e+000 5.098529e+001 3.000000e+000
    endloop
  endfacet
  facet normal 0.000000e+000 -0.000000e+000 1.000000e+000
    outer loop
      vertex   -1.740458e+000 5.098529e+001 3.000000e+000
      vertex   -1.629897e+000 5.115907e+001 3.000000e+000
      vertex   -6.700000e+000 5.500000e+001 3.000000e+000
    endloop
  endfacet
  facet normal 0.000000e+000 0.000000e+000 1.000000e+000
    outer loop
      vertex   -6.700000e+000 5.500000e+001 3.000000e+000
      vertex   -1.629897e+000 5.115907e+001 3.000000e+000
      vertex   -1.502052e+000 5.132055e+001 3.000000e+000
    endloop
  endfacet
  facet normal 0.000000e+000 0.000000e+000 1.000000e+000
    outer loop
      vertex   -6.700000e+000 5.500000e+001 3.000000e+000
      vertex   -1.502052e+000 5.132055e+001 3.000000e+000
      vertex   -1.358278e+000 5.146802e+001 3.000000e+000
    endloop
  endfacet
  facet normal 0.000000e+000 -0.000000e+000 1.000000e+000
    outer loop
      vertex   -1.358278e+000 5.146802e+001 3.000000e+000
      vertex   -1.200099e+000 5.159993e+001 3.000000e+000
      vertex   -6.700000e+000 5.500000e+001 3.000000e+000
    endloop
  endfacet
  facet normal 0.000000e+000 0.000000e+000 1.000000e+000
    outer loop
      vertex   -6.700000e+000 5.500000e+001 3.000000e+000
      vertex   -1.200099e+000 5.159993e+001 3.000000e+000
      vertex   -1.029193e+000 5.171487e+001 3.000000e+000
    endloop
  endfacet
  facet normal 0.000000e+000 0.000000e+000 1.000000e+000
    outer loop
      vertex   -6.700000e+000 5.500000e+001 3.000000e+000
      vertex   -1.029193e+000 5.171487e+001 3.000000e+000
      vertex   -8.473726e-001 5.181162e+001 3.000000e+000
    endloop
  endfacet
  facet normal 0.000000e+000 -0.000000e+000 1.000000e+000
    outer loop
      vertex   -8.473726e-001 5.181162e+001 3.000000e+000
      vertex   -6.565658e-001 5.188916e+001 3.000000e+000
      vertex   -6.700000e+000 5.500000e+001 3.000000e+000
    endloop
  endfacet
  facet normal 0.000000e+000 0.000000e+000 1.000000e+000
    outer loop
      vertex   -6.700000e+000 5.500000e+001 3.000000e+000
      vertex   -6.565658e-001 5.188916e+001 3.000000e+000
      vertex   -4.587962e-001 5.194667e+001 3.000000e+000
    endloop
  endfacet
  facet normal 0.000000e+000 0.000000e+000 1.000000e+000
    outer loop
      vertex   -6.700000e+000 5.500000e+001 3.000000e+000
      vertex   -4.587962e-001 5.194667e+001 3.000000e+000
      vertex   -2.561610e-001 5.198353e+001 3.000000e+000
    endloop
  endfacet
  facet normal 0.000000e+000 -0.000000e+000 1.000000e+000
    outer loop
      vertex   -2.561610e-001 5.198353e+001 3.000000e+000
      vertex   -5.080929e-002 5.199936e+001 3.000000e+000
      vertex   -6.700000e+000 5.500000e+001 3.000000e+000
    endloop
  endfacet
  facet normal -0.000000e+000 0.000000e+000 1.000000e+000
    outer loop
      vertex   -6.700000e+000 5.500000e+001 3.000000e+000
      vertex   -5.080929e-002 5.199936e+001 3.000000e+000
      vertex   6.700000e+000 5.500000e+001 3.000000e+000
    endloop
  endfacet
  facet normal 0.000000e+000 0.000000e+000 1.000000e+000
    outer loop
      vertex   6.700000e+000 5.500000e+001 3.000000e+000
      vertex   -5.080929e-002 5.199936e+001 3.000000e+000
      vertex   1.550813e-001 5.199398e+001 3.000000e+000
    endloop
  endfacet
  facet normal 0.000000e+000 0.000000e+000 1.000000e+000
    outer loop
      vertex   6.700000e+000 5.500000e+001 3.000000e+000
      vertex   1.550813e-001 5.199398e+001 3.000000e+000
      vertex   3.593272e-001 5.196746e+001 3.000000e+000
    endloop
  endfacet
  facet normal -0.000000e+000 0.000000e+000 1.000000e+000
    outer loop
      vertex   3.593272e-001 5.196746e+001 3.000000e+000
      vertex   5.597625e-001 5.192007e+001 3.000000e+000
      vertex   6.700000e+000 5.500000e+001 3.000000e+000
    endloop
  endfacet
  facet normal 0.000000e+000 0.000000e+000 1.000000e+000
    outer loop
      vertex   6.700000e+000 5.500000e+001 3.000000e+000
      vertex   5.597625e-001 5.192007e+001 3.000000e+000
      vertex   7.542616e-001 5.185232e+001 3.000000e+000
    endloop
  endfacet
  facet normal 0.000000e+000 0.000000e+000 1.000000e+000
    outer loop
      vertex   6.700000e+000 5.500000e+001 3.000000e+000
      vertex   7.542616e-001 5.185232e+001 3.000000e+000
      vertex   9.407616e-001 5.176493e+001 3.000000e+000
    endloop
  endfacet
  facet normal -0.000000e+000 0.000000e+000 1.000000e+000
    outer loop
      vertex   9.407616e-001 5.176493e+001 3.000000e+000
      vertex   1.117285e+000 5.165882e+001 3.000000e+000
      vertex   6.700000e+000 5.500000e+001 3.000000e+000
    endloop
  endfacet
  facet normal 0.000000e+000 0.000000e+000 1.000000e+000
    outer loop
      vertex   6.700000e+000 5.500000e+001 3.000000e+000
      vertex   1.117285e+000 5.165882e+001 3.000000e+000
      vertex   1.281960e+000 5.153511e+001 3.000000e+000
    endloop
  endfacet
  facet normal 0.000000e+000 0.000000e+000 1.000000e+000
    outer loop
      vertex   6.700000e+000 5.500000e+001 3.000000e+000
      vertex   1.281960e+000 5.153511e+001 3.000000e+000
      vertex   1.433039e+000 5.139513e+001 3.000000e+000
    endloop
  endfacet
  facet normal -0.000000e+000 0.000000e+000 1.000000e+000
    outer loop
      vertex   1.433039e+000 5.139513e+001 3.000000e+000
      vertex   1.568921e+000 5.124036e+001 3.000000e+000
      vertex   6.700000e+000 5.500000e+001 3.000000e+000
    endloop
  endfacet
  facet normal 0.000000e+000 0.000000e+000 1.000000e+000
    outer loop
      vertex   6.700000e+000 5.500000e+001 3.000000e+000
      vertex   1.568921e+000 5.124036e+001 3.000000e+000
      vertex   1.688165e+000 5.107243e+001 3.000000e+000
    endloop
  endfacet
  facet normal 0.000000e+000 0.000000e+000 1.000000e+000
    outer loop
      vertex   6.700000e+000 5.500000e+001 3.000000e+000
      vertex   1.688165e+000 5.107243e+001 3.000000e+000
      vertex   1.789506e+000 5.089312e+001 3.000000e+000
    endloop
  endfacet
  facet normal -0.000000e+000 0.000000e+000 1.000000e+000
    outer loop
      vertex   1.789506e+000 5.089312e+001 3.000000e+000
      vertex   1.871869e+000 5.070435e+001 3.000000e+000
      vertex   6.700000e+000 5.500000e+001 3.000000e+000
    endloop
  endfacet
  facet normal 0.000000e+000 0.000000e+000 1.000000e+000
    outer loop
      vertex   6.700000e+000 5.500000e+001 3.000000e+000
      vertex   1.871869e+000 5.070435e+001 3.000000e+000
      vertex   1.934381e+000 5.050810e+001 3.000000e+000
    endloop
  endfacet
  facet normal 0.000000e+000 0.000000e+000 1.000000e+000
    outer loop
      vertex   6.700000e+000 5.500000e+001 3.000000e+000
      vertex   1.934381e+000 5.050810e+001 3.000000e+000
      vertex   1.976380e+000 5.030647e+001 3.000000e+000
    endloop
  endfacet
  facet normal -0.000000e+000 0.000000e+000 1.000000e+000
    outer loop
      vertex   1.976380e+000 5.030647e+001 3.000000e+000
      vertex   1.997418e+000 5.010159e+001 3.000000e+000
      vertex   6.700000e+000 5.500000e+001 3.000000e+000
    endloop
  endfacet
  facet normal 0.000000e+000 0.000000e+000 1.000000e+000
    outer loop
      vertex   6.700000e+000 5.500000e+001 3.000000e+000
      vertex   1.997418e+000 5.010159e+001 3.000000e+000
      vertex   1.997275e+000 4.989563e+001 3.000000e+000
    endloop
  endfacet
  facet normal 0.000000e+000 0.000000e+000 1.000000e+000
    outer loop
      vertex   6.700000e+000 5.500000e+001 3.000000e+000
      vertex   1.997275e+000 4.989563e+001 3.000000e+000
      vertex   6.700000e+000 2.500000e+001 3.000000e+000
    endloop
  endfacet
  facet normal 0.000000e+000 0.000000e+000 1.000000e+000
    outer loop
      vertex   6.700000e+000 2.500000e+001 3.000000e+000
      vertex   1.997275e+000 4.989563e+001 3.000000e+000
      vertex   1.997275e+000 3.010438e+001 3.000000e+000
    endloop
  endfacet
  facet normal 0.000000e+000 0.000000e+000 1.000000e+000
    outer loop
      vertex   6.700000e+000 2.500000e+001 3.000000e+000
      vertex   1.997275e+000 3.010438e+001 3.000000e+000
      vertex   1.997418e+000 2.989841e+001 3.000000e+000
    endloop
  endfacet
  facet normal 0.000000e+000 0.000000e+000 1.000000e+000
    outer loop
      vertex   1.997418e+000 2.989841e+001 3.000000e+000
      vertex   1.976380e+000 2.969353e+001 3.000000e+000
      vertex   6.700000e+000 2.500000e+001 3.000000e+000
    endloop
  endfacet
  facet normal 0.000000e+000 0.000000e+000 1.000000e+000
    outer loop
      vertex   6.700000e+000 2.500000e+001 3.000000e+000
      vertex   1.976380e+000 2.969353e+001 3.000000e+000
      vertex   1.934381e+000 2.949190e+001 3.000000e+000
    endloop
  endfacet
  facet normal 0.000000e+000 0.000000e+000 1.000000e+000
    outer loop
      vertex   6.700000e+000 2.500000e+001 3.000000e+000
      vertex   1.934381e+000 2.949190e+001 3.000000e+000
      vertex   1.871869e+000 2.929565e+001 3.000000e+000
    endloop
  endfacet
  facet normal 0.000000e+000 0.000000e+000 1.000000e+000
    outer loop
      vertex   1.871869e+000 2.929565e+001 3.000000e+000
      vertex   1.789506e+000 2.910688e+001 3.000000e+000
      vertex   6.700000e+000 2.500000e+001 3.000000e+000
    endloop
  endfacet
  facet normal 0.000000e+000 0.000000e+000 1.000000e+000
    outer loop
      vertex   6.700000e+000 2.500000e+001 3.000000e+000
      vertex   1.789506e+000 2.910688e+001 3.000000e+000
      vertex   1.688165e+000 2.892757e+001 3.000000e+000
    endloop
  endfacet
  facet normal 0.000000e+000 0.000000e+000 1.000000e+000
    outer loop
      vertex   6.700000e+000 2.500000e+001 3.000000e+000
      vertex   1.688165e+000 2.892757e+001 3.000000e+000
      vertex   1.568921e+000 2.875964e+001 3.000000e+000
    endloop
  endfacet
  facet normal 0.000000e+000 0.000000e+000 1.000000e+000
    outer loop
      vertex   1.568921e+000 2.875964e+001 3.000000e+000
      vertex   1.433039e+000 2.860487e+001 3.000000e+000
      vertex   6.700000e+000 2.500000e+001 3.000000e+000
    endloop
  endfacet
  facet normal 0.000000e+000 0.000000e+000 1.000000e+000
    outer loop
      vertex   6.700000e+000 2.500000e+001 3.000000e+000
      vertex   1.433039e+000 2.860487e+001 3.000000e+000
      vertex   1.281960e+000 2.846488e+001 3.000000e+000
    endloop
  endfacet
  facet normal 0.000000e+000 0.000000e+000 1.000000e+000
    outer loop
      vertex   6.700000e+000 2.500000e+001 3.000000e+000
      vertex   1.281960e+000 2.846488e+001 3.000000e+000
      vertex   1.117285e+000 2.834118e+001 3.000000e+000
    endloop
  endfacet
  facet normal 0.000000e+000 0.000000e+000 1.000000e+000
    outer loop
      vertex   1.117285e+000 2.834118e+001 3.000000e+000
      vertex   9.407616e-001 2.823507e+001 3.000000e+000
      vertex   6.700000e+000 2.500000e+001 3.000000e+000
    endloop
  endfacet
  facet normal 0.000000e+000 0.000000e+000 1.000000e+000
    outer loop
      vertex   6.700000e+000 2.500000e+001 3.000000e+000
      vertex   9.407616e-001 2.823507e+001 3.000000e+000
      vertex   7.542616e-001 2.814768e+001 3.000000e+000
    endloop
  endfacet
  facet normal 0.000000e+000 0.000000e+000 1.000000e+000
    outer loop
      vertex   6.700000e+000 2.500000e+001 3.000000e+000
      vertex   7.542616e-001 2.814768e+001 3.000000e+000
      vertex   5.597625e-001 2.807993e+001 3.000000e+000
    endloop
  endfacet
  facet normal 0.000000e+000 0.000000e+000 1.000000e+000
    outer loop
      vertex   5.597625e-001 2.807993e+001 3.000000e+000
      vertex   3.593272e-001 2.803254e+001 3.000000e+000
      vertex   6.700000e+000 2.500000e+001 3.000000e+000
    endloop
  endfacet
  facet normal 0.000000e+000 0.000000e+000 1.000000e+000
    outer loop
      vertex   6.700000e+000 2.500000e+001 3.000000e+000
      vertex   3.593272e-001 2.803254e+001 3.000000e+000
      vertex   1.550813e-001 2.800602e+001 3.000000e+000
    endloop
  endfacet
  facet normal 0.000000e+000 0.000000e+000 1.000000e+000
    outer loop
      vertex   6.700000e+000 2.500000e+001 3.000000e+000
      vertex   1.550813e-001 2.800602e+001 3.000000e+000
      vertex   -5.080929e-002 2.800064e+001 3.000000e+000
    endloop
  endfacet
  facet normal 0.000000e+000 0.000000e+000 1.000000e+000
    outer loop
      vertex   6.700000e+000 2.500000e+001 3.000000e+000
      vertex   -5.080929e-002 2.800064e+001 3.000000e+000
      vertex   -6.700000e+000 2.500000e+001 3.000000e+000
    endloop
  endfacet
  facet normal 0.000000e+000 0.000000e+000 1.000000e+000
    outer loop
      vertex   -6.700000e+000 2.500000e+001 3.000000e+000
      vertex   -5.080929e-002 2.800064e+001 3.000000e+000
      vertex   -2.561610e-001 2.801647e+001 3.000000e+000
    endloop
  endfacet
  facet normal 0.000000e+000 0.000000e+000 1.000000e+000
    outer loop
      vertex   -6.700000e+000 2.500000e+001 3.000000e+000
      vertex   -2.561610e-001 2.801647e+001 3.000000e+000
      vertex   -4.587962e-001 2.805334e+001 3.000000e+000
    endloop
  endfacet
  facet normal 0.000000e+000 0.000000e+000 1.000000e+000
    outer loop
      vertex   -4.587962e-001 2.805334e+001 3.000000e+000
      vertex   -6.565658e-001 2.811084e+001 3.000000e+000
      vertex   -6.700000e+000 2.500000e+001 3.000000e+000
    endloop
  endfacet
  facet normal 0.000000e+000 0.000000e+000 1.000000e+000
    outer loop
      vertex   -6.700000e+000 2.500000e+001 3.000000e+000
      vertex   -6.565658e-001 2.811084e+001 3.000000e+000
      vertex   -8.473726e-001 2.818838e+001 3.000000e+000
    endloop
  endfacet
  facet normal 0.000000e+000 0.000000e+000 1.000000e+000
    outer loop
      vertex   -6.700000e+000 2.500000e+001 3.000000e+000
      vertex   -8.473726e-001 2.818838e+001 3.000000e+000
      vertex   -1.029193e+000 2.828514e+001 3.000000e+000
    endloop
  endfacet
  facet normal 0.000000e+000 0.000000e+000 1.000000e+000
    outer loop
      vertex   -1.029193e+000 2.828514e+001 3.000000e+000
      vertex   -1.200099e+000 2.840007e+001 3.000000e+000
      vertex   -6.700000e+000 2.500000e+001 3.000000e+000
    endloop
  endfacet
  facet normal 0.000000e+000 0.000000e+000 1.000000e+000
    outer loop
      vertex   -6.700000e+000 2.500000e+001 3.000000e+000
      vertex   -1.200099e+000 2.840007e+001 3.000000e+000
      vertex   -1.358278e+000 2.853198e+001 3.000000e+000
    endloop
  endfacet
  facet normal 0.000000e+000 0.000000e+000 1.000000e+000
    outer loop
      vertex   -6.700000e+000 2.500000e+001 3.000000e+000
      vertex   -1.358278e+000 2.853198e+001 3.000000e+000
      vertex   -1.502052e+000 2.867945e+001 3.000000e+000
    endloop
  endfacet
  facet normal 0.000000e+000 0.000000e+000 1.000000e+000
    outer loop
      vertex   -1.502052e+000 2.867945e+001 3.000000e+000
      vertex   -1.629897e+000 2.884093e+001 3.000000e+000
      vertex   -6.700000e+000 2.500000e+001 3.000000e+000
    endloop
  endfacet
  facet normal 0.000000e+000 0.000000e+000 1.000000e+000
    outer loop
      vertex   -6.700000e+000 2.500000e+001 3.000000e+000
      vertex   -1.629897e+000 2.884093e+001 3.000000e+000
      vertex   -1.740458e+000 2.901470e+001 3.000000e+000
    endloop
  endfacet
  facet normal 0.000000e+000 0.000000e+000 1.000000e+000
    outer loop
      vertex   -6.700000e+000 2.500000e+001 3.000000e+000
      vertex   -1.740458e+000 2.901470e+001 3.000000e+000
      vertex   -1.832560e+000 2.919893e+001 3.000000e+000
    endloop
  endfacet
  facet normal 0.000000e+000 0.000000e+000 1.000000e+000
    outer loop
      vertex   -1.832560e+000 2.919893e+001 3.000000e+000
      vertex   -1.905229e+000 2.939164e+001 3.000000e+000
      vertex   -6.700000e+000 2.500000e+001 3.000000e+000
    endloop
  endfacet
  facet normal 0.000000e+000 0.000000e+000 1.000000e+000
    outer loop
      vertex   -6.700000e+000 2.500000e+001 3.000000e+000
      vertex   -1.905229e+000 2.939164e+001 3.000000e+000
      vertex   -1.957693e+000 2.959081e+001 3.000000e+000
    endloop
  endfacet
  facet normal 0.000000e+000 0.000000e+000 1.000000e+000
    outer loop
      vertex   -6.700000e+000 2.500000e+001 3.000000e+000
      vertex   -1.957693e+000 2.959081e+001 3.000000e+000
      vertex   -1.989395e+000 2.979431e+001 3.000000e+000
    endloop
  endfacet
  facet normal -0.000000e+000 0.000000e+000 -1.000000e+000
    outer loop
      vertex   -2.000000e+000 3.000000e+001 0.000000e+000
      vertex   -6.700000e+000 2.300000e+001 0.000000e+000
      vertex   -2.000000e+000 5.000000e+001 0.000000e+000
    endloop
  endfacet
  facet normal -0.000000e+000 0.000000e+000 -1.000000e+000
    outer loop
      vertex   -2.000000e+000 5.000000e+001 0.000000e+000
      vertex   -6.700000e+000 2.300000e+001 0.000000e+000
      vertex   -6.700000e+000 5.700000e+001 0.000000e+000
    endloop
  endfacet
  facet normal 0.000000e+000 0.000000e+000 -1.000000e+000
    outer loop
      vertex   -2.000000e+000 5.000000e+001 0.000000e+000
      vertex   -6.700000e+000 5.700000e+001 0.000000e+000
      vertex   -1.989395e+000 5.020569e+001 0.000000e+000
    endloop
  endfacet
  facet normal 0.000000e+000 0.000000e+000 -1.000000e+000
    outer loop
      vertex   -1.989395e+000 5.020569e+001 0.000000e+000
      vertex   -6.700000e+000 5.700000e+001 0.000000e+000
      vertex   -1.957693e+000 5.040919e+001 0.000000e+000
    endloop
  endfacet
  facet normal 0.000000e+000 0.000000e+000 -1.000000e+000
    outer loop
      vertex   -1.957693e+000 5.040919e+001 0.000000e+000
      vertex   -6.700000e+000 5.700000e+001 0.000000e+000
      vertex   -1.905229e+000 5.060836e+001 0.000000e+000
    endloop
  endfacet
  facet normal 0.000000e+000 0.000000e+000 -1.000000e+000
    outer loop
      vertex   -1.905229e+000 5.060836e+001 0.000000e+000
      vertex   -6.700000e+000 5.700000e+001 0.000000e+000
      vertex   -1.832560e+000 5.080107e+001 0.000000e+000
    endloop
  endfacet
  facet normal 0.000000e+000 0.000000e+000 -1.000000e+000
    outer loop
      vertex   -1.832560e+000 5.080107e+001 0.000000e+000
      vertex   -6.700000e+000 5.700000e+001 0.000000e+000
      vertex   -1.740458e+000 5.098529e+001 0.000000e+000
    endloop
  endfacet
  facet normal 0.000000e+000 0.000000e+000 -1.000000e+000
    outer loop
      vertex   -1.740458e+000 5.098529e+001 0.000000e+000
      vertex   -6.700000e+000 5.700000e+001 0.000000e+000
      vertex   -1.629897e+000 5.115907e+001 0.000000e+000
    endloop
  endfacet
  facet normal 0.000000e+000 0.000000e+000 -1.000000e+000
    outer loop
      vertex   -1.629897e+000 5.115907e+001 0.000000e+000
      vertex   -6.700000e+000 5.700000e+001 0.000000e+000
      vertex   -1.502052e+000 5.132055e+001 0.000000e+000
    endloop
  endfacet
  facet normal 0.000000e+000 0.000000e+000 -1.000000e+000
    outer loop
      vertex   -1.502052e+000 5.132055e+001 0.000000e+000
      vertex   -6.700000e+000 5.700000e+001 0.000000e+000
      vertex   -1.358278e+000 5.146802e+001 0.000000e+000
    endloop
  endfacet
  facet normal 0.000000e+000 0.000000e+000 -1.000000e+000
    outer loop
      vertex   -1.358278e+000 5.146802e+001 0.000000e+000
      vertex   -6.700000e+000 5.700000e+001 0.000000e+000
      vertex   -1.200099e+000 5.159993e+001 0.000000e+000
    endloop
  endfacet
  facet normal 0.000000e+000 0.000000e+000 -1.000000e+000
    outer loop
      vertex   -1.200099e+000 5.159993e+001 0.000000e+000
      vertex   -6.700000e+000 5.700000e+001 0.000000e+000
      vertex   -1.029193e+000 5.171487e+001 0.000000e+000
    endloop
  endfacet
  facet normal 0.000000e+000 0.000000e+000 -1.000000e+000
    outer loop
      vertex   -1.029193e+000 5.171487e+001 0.000000e+000
      vertex   -6.700000e+000 5.700000e+001 0.000000e+000
      vertex   -8.473726e-001 5.181162e+001 0.000000e+000
    endloop
  endfacet
  facet normal 0.000000e+000 0.000000e+000 -1.000000e+000
    outer loop
      vertex   -8.473726e-001 5.181162e+001 0.000000e+000
      vertex   -6.700000e+000 5.700000e+001 0.000000e+000
      vertex   -6.565658e-001 5.188916e+001 0.000000e+000
    endloop
  endfacet
  facet normal 0.000000e+000 0.000000e+000 -1.000000e+000
    outer loop
      vertex   -6.565658e-001 5.188916e+001 0.000000e+000
      vertex   -6.700000e+000 5.700000e+001 0.000000e+000
      vertex   -4.587962e-001 5.194667e+001 0.000000e+000
    endloop
  endfacet
  facet normal 0.000000e+000 0.000000e+000 -1.000000e+000
    outer loop
      vertex   -4.587962e-001 5.194667e+001 0.000000e+000
      vertex   -6.700000e+000 5.700000e+001 0.000000e+000
      vertex   -2.561610e-001 5.198353e+001 0.000000e+000
    endloop
  endfacet
  facet normal 0.000000e+000 0.000000e+000 -1.000000e+000
    outer loop
      vertex   -2.561610e-001 5.198353e+001 0.000000e+000
      vertex   -6.700000e+000 5.700000e+001 0.000000e+000
      vertex   -5.080929e-002 5.199936e+001 0.000000e+000
    endloop
  endfacet
  facet normal 0.000000e+000 0.000000e+000 -1.000000e+000
    outer loop
      vertex   -5.080929e-002 5.199936e+001 0.000000e+000
      vertex   -6.700000e+000 5.700000e+001 0.000000e+000
      vertex   6.700000e+000 5.700000e+001 0.000000e+000
    endloop
  endfacet
  facet normal 0.000000e+000 0.000000e+000 -1.000000e+000
    outer loop
      vertex   -5.080929e-002 5.199936e+001 0.000000e+000
      vertex   6.700000e+000 5.700000e+001 0.000000e+000
      vertex   1.550813e-001 5.199398e+001 0.000000e+000
    endloop
  endfacet
  facet normal 0.000000e+000 0.000000e+000 -1.000000e+000
    outer loop
      vertex   1.550813e-001 5.199398e+001 0.000000e+000
      vertex   6.700000e+000 5.700000e+001 0.000000e+000
      vertex   3.593272e-001 5.196746e+001 0.000000e+000
    endloop
  endfacet
  facet normal 0.000000e+000 0.000000e+000 -1.000000e+000
    outer loop
      vertex   3.593272e-001 5.196746e+001 0.000000e+000
      vertex   6.700000e+000 5.700000e+001 0.000000e+000
      vertex   5.597625e-001 5.192007e+001 0.000000e+000
    endloop
  endfacet
  facet normal 0.000000e+000 0.000000e+000 -1.000000e+000
    outer loop
      vertex   5.597625e-001 5.192007e+001 0.000000e+000
      vertex   6.700000e+000 5.700000e+001 0.000000e+000
      vertex   7.542616e-001 5.185232e+001 0.000000e+000
    endloop
  endfacet
  facet normal 0.000000e+000 0.000000e+000 -1.000000e+000
    outer loop
      vertex   7.542616e-001 5.185232e+001 0.000000e+000
      vertex   6.700000e+000 5.700000e+001 0.000000e+000
      vertex   9.407616e-001 5.176493e+001 0.000000e+000
    endloop
  endfacet
  facet normal 0.000000e+000 0.000000e+000 -1.000000e+000
    outer loop
      vertex   9.407616e-001 5.176493e+001 0.000000e+000
      vertex   6.700000e+000 5.700000e+001 0.000000e+000
      vertex   1.117285e+000 5.165882e+001 0.000000e+000
    endloop
  endfacet
  facet normal 0.000000e+000 0.000000e+000 -1.000000e+000
    outer loop
      vertex   1.117285e+000 5.165882e+001 0.000000e+000
      vertex   6.700000e+000 5.700000e+001 0.000000e+000
      vertex   1.281960e+000 5.153511e+001 0.000000e+000
    endloop
  endfacet
  facet normal 0.000000e+000 0.000000e+000 -1.000000e+000
    outer loop
      vertex   1.281960e+000 5.153511e+001 0.000000e+000
      vertex   6.700000e+000 5.700000e+001 0.000000e+000
      vertex   1.433039e+000 5.139513e+001 0.000000e+000
    endloop
  endfacet
  facet normal 0.000000e+000 0.000000e+000 -1.000000e+000
    outer loop
      vertex   1.433039e+000 5.139513e+001 0.000000e+000
      vertex   6.700000e+000 5.700000e+001 0.000000e+000
      vertex   1.568921e+000 5.124036e+001 0.000000e+000
    endloop
  endfacet
  facet normal 0.000000e+000 0.000000e+000 -1.000000e+000
    outer loop
      vertex   1.568921e+000 5.124036e+001 0.000000e+000
      vertex   6.700000e+000 5.700000e+001 0.000000e+000
      vertex   1.688165e+000 5.107243e+001 0.000000e+000
    endloop
  endfacet
  facet normal 0.000000e+000 0.000000e+000 -1.000000e+000
    outer loop
      vertex   1.688165e+000 5.107243e+001 0.000000e+000
      vertex   6.700000e+000 5.700000e+001 0.000000e+000
      vertex   1.789506e+000 5.089312e+001 0.000000e+000
    endloop
  endfacet
  facet normal 0.000000e+000 0.000000e+000 -1.000000e+000
    outer loop
      vertex   1.789506e+000 5.089312e+001 0.000000e+000
      vertex   6.700000e+000 5.700000e+001 0.000000e+000
      vertex   1.871869e+000 5.070435e+001 0.000000e+000
    endloop
  endfacet
  facet normal 0.000000e+000 0.000000e+000 -1.000000e+000
    outer loop
      vertex   1.871869e+000 5.070435e+001 0.000000e+000
      vertex   6.700000e+000 5.700000e+001 0.000000e+000
      vertex   1.934381e+000 5.050810e+001 0.000000e+000
    endloop
  endfacet
  facet normal 0.000000e+000 0.000000e+000 -1.000000e+000
    outer loop
      vertex   1.934381e+000 5.050810e+001 0.000000e+000
      vertex   6.700000e+000 5.700000e+001 0.000000e+000
      vertex   1.976380e+000 5.030647e+001 0.000000e+000
    endloop
  endfacet
  facet normal 0.000000e+000 0.000000e+000 -1.000000e+000
    outer loop
      vertex   1.976380e+000 5.030647e+001 0.000000e+000
      vertex   6.700000e+000 5.700000e+001 0.000000e+000
      vertex   1.997418e+000 5.010159e+001 0.000000e+000
    endloop
  endfacet
  facet normal 0.000000e+000 -0.000000e+000 -1.000000e+000
    outer loop
      vertex   1.997418e+000 5.010159e+001 0.000000e+000
      vertex   6.700000e+000 5.700000e+001 0.000000e+000
      vertex   1.997275e+000 4.989563e+001 0.000000e+000
    endloop
  endfacet
  facet normal 0.000000e+000 0.000000e+000 -1.000000e+000
    outer loop
      vertex   1.997275e+000 4.989563e+001 0.000000e+000
      vertex   6.700000e+000 5.700000e+001 0.000000e+000
      vertex   6.700000e+000 2.300000e+001 0.000000e+000
    endloop
  endfacet
  facet normal 0.000000e+000 0.000000e+000 -1.000000e+000
    outer loop
      vertex   1.997275e+000 4.989563e+001 0.000000e+000
      vertex   6.700000e+000 2.300000e+001 0.000000e+000
      vertex   1.997275e+000 3.010438e+001 0.000000e+000
    endloop
  endfacet
  facet normal 0.000000e+000 0.000000e+000 -1.000000e+000
    outer loop
      vertex   1.997275e+000 3.010438e+001 0.000000e+000
      vertex   6.700000e+000 2.300000e+001 0.000000e+000
      vertex   1.997418e+000 2.989841e+001 0.000000e+000
    endloop
  endfacet
  facet normal 0.000000e+000 -0.000000e+000 -1.000000e+000
    outer loop
      vertex   1.997418e+000 2.989841e+001 0.000000e+000
      vertex   6.700000e+000 2.300000e+001 0.000000e+000
      vertex   1.976380e+000 2.969353e+001 0.000000e+000
    endloop
  endfacet
  facet normal 0.000000e+000 -0.000000e+000 -1.000000e+000
    outer loop
      vertex   1.976380e+000 2.969353e+001 0.000000e+000
      vertex   6.700000e+000 2.300000e+001 0.000000e+000
      vertex   1.934381e+000 2.949190e+001 0.000000e+000
    endloop
  endfacet
  facet normal 0.000000e+000 -0.000000e+000 -1.000000e+000
    outer loop
      vertex   1.934381e+000 2.949190e+001 0.000000e+000
      vertex   6.700000e+000 2.300000e+001 0.000000e+000
      vertex   1.871869e+000 2.929565e+001 0.000000e+000
    endloop
  endfacet
  facet normal 0.000000e+000 -0.000000e+000 -1.000000e+000
    outer loop
      vertex   1.871869e+000 2.929565e+001 0.000000e+000
      vertex   6.700000e+000 2.300000e+001 0.000000e+000
      vertex   1.789506e+000 2.910688e+001 0.000000e+000
    endloop
  endfacet
  facet normal 0.000000e+000 -0.000000e+000 -1.000000e+000
    outer loop
      vertex   1.789506e+000 2.910688e+001 0.000000e+000
      vertex   6.700000e+000 2.300000e+001 0.000000e+000
      vertex   1.688165e+000 2.892757e+001 0.000000e+000
    endloop
  endfacet
  facet normal 0.000000e+000 -0.000000e+000 -1.000000e+000
    outer loop
      vertex   1.688165e+000 2.892757e+001 0.000000e+000
      vertex   6.700000e+000 2.300000e+001 0.000000e+000
      vertex   1.568921e+000 2.875964e+001 0.000000e+000
    endloop
  endfacet
  facet normal 0.000000e+000 -0.000000e+000 -1.000000e+000
    outer loop
      vertex   1.568921e+000 2.875964e+001 0.000000e+000
      vertex   6.700000e+000 2.300000e+001 0.000000e+000
      vertex   1.433039e+000 2.860487e+001 0.000000e+000
    endloop
  endfacet
  facet normal 0.000000e+000 -0.000000e+000 -1.000000e+000
    outer loop
      vertex   1.433039e+000 2.860487e+001 0.000000e+000
      vertex   6.700000e+000 2.300000e+001 0.000000e+000
      vertex   1.281960e+000 2.846488e+001 0.000000e+000
    endloop
  endfacet
  facet normal 0.000000e+000 -0.000000e+000 -1.000000e+000
    outer loop
      vertex   1.281960e+000 2.846488e+001 0.000000e+000
      vertex   6.700000e+000 2.300000e+001 0.000000e+000
      vertex   1.117285e+000 2.834118e+001 0.000000e+000
    endloop
  endfacet
  facet normal 0.000000e+000 -0.000000e+000 -1.000000e+000
    outer loop
      vertex   1.117285e+000 2.834118e+001 0.000000e+000
      vertex   6.700000e+000 2.300000e+001 0.000000e+000
      vertex   9.407616e-001 2.823507e+001 0.000000e+000
    endloop
  endfacet
  facet normal 0.000000e+000 -0.000000e+000 -1.000000e+000
    outer loop
      vertex   9.407616e-001 2.823507e+001 0.000000e+000
      vertex   6.700000e+000 2.300000e+001 0.000000e+000
      vertex   7.542616e-001 2.814768e+001 0.000000e+000
    endloop
  endfacet
  facet normal 0.000000e+000 -0.000000e+000 -1.000000e+000
    outer loop
      vertex   7.542616e-001 2.814768e+001 0.000000e+000
      vertex   6.700000e+000 2.300000e+001 0.000000e+000
      vertex   5.597625e-001 2.807993e+001 0.000000e+000
    endloop
  endfacet
  facet normal 0.000000e+000 -0.000000e+000 -1.000000e+000
    outer loop
      vertex   5.597625e-001 2.807993e+001 0.000000e+000
      vertex   6.700000e+000 2.300000e+001 0.000000e+000
      vertex   3.593272e-001 2.803254e+001 0.000000e+000
    endloop
  endfacet
  facet normal 0.000000e+000 -0.000000e+000 -1.000000e+000
    outer loop
      vertex   3.593272e-001 2.803254e+001 0.000000e+000
      vertex   6.700000e+000 2.300000e+001 0.000000e+000
      vertex   1.550813e-001 2.800602e+001 0.000000e+000
    endloop
  endfacet
  facet normal 0.000000e+000 -0.000000e+000 -1.000000e+000
    outer loop
      vertex   1.550813e-001 2.800602e+001 0.000000e+000
      vertex   6.700000e+000 2.300000e+001 0.000000e+000
      vertex   -5.080929e-002 2.800064e+001 0.000000e+000
    endloop
  endfacet
  facet normal 0.000000e+000 -0.000000e+000 -1.000000e+000
    outer loop
      vertex   -5.080929e-002 2.800064e+001 0.000000e+000
      vertex   6.700000e+000 2.300000e+001 0.000000e+000
      vertex   -6.700000e+000 2.300000e+001 0.000000e+000
    endloop
  endfacet
  facet normal -0.000000e+000 0.000000e+000 -1.000000e+000
    outer loop
      vertex   -5.080929e-002 2.800064e+001 0.000000e+000
      vertex   -6.700000e+000 2.300000e+001 0.000000e+000
      vertex   -2.561610e-001 2.801647e+001 0.000000e+000
    endloop
  endfacet
  facet normal -0.000000e+000 0.000000e+000 -1.000000e+000
    outer loop
      vertex   -2.561610e-001 2.801647e+001 0.000000e+000
      vertex   -6.700000e+000 2.300000e+001 0.000000e+000
      vertex   -4.587962e-001 2.805334e+001 0.000000e+000
    endloop
  endfacet
  facet normal -0.000000e+000 0.000000e+000 -1.000000e+000
    outer loop
      vertex   -4.587962e-001 2.805334e+001 0.000000e+000
      vertex   -6.700000e+000 2.300000e+001 0.000000e+000
      vertex   -6.565658e-001 2.811084e+001 0.000000e+000
    endloop
  endfacet
  facet normal -0.000000e+000 0.000000e+000 -1.000000e+000
    outer loop
      vertex   -6.565658e-001 2.811084e+001 0.000000e+000
      vertex   -6.700000e+000 2.300000e+001 0.000000e+000
      vertex   -8.473726e-001 2.818838e+001 0.000000e+000
    endloop
  endfacet
  facet normal -0.000000e+000 0.000000e+000 -1.000000e+000
    outer loop
      vertex   -8.473726e-001 2.818838e+001 0.000000e+000
      vertex   -6.700000e+000 2.300000e+001 0.000000e+000
      vertex   -1.029193e+000 2.828514e+001 0.000000e+000
    endloop
  endfacet
  facet normal -0.000000e+000 0.000000e+000 -1.000000e+000
    outer loop
      vertex   -1.029193e+000 2.828514e+001 0.000000e+000
      vertex   -6.700000e+000 2.300000e+001 0.000000e+000
      vertex   -1.200099e+000 2.840007e+001 0.000000e+000
    endloop
  endfacet
  facet normal -0.000000e+000 0.000000e+000 -1.000000e+000
    outer loop
      vertex   -1.200099e+000 2.840007e+001 0.000000e+000
      vertex   -6.700000e+000 2.300000e+001 0.000000e+000
      vertex   -1.358278e+000 2.853198e+001 0.000000e+000
    endloop
  endfacet
  facet normal -0.000000e+000 0.000000e+000 -1.000000e+000
    outer loop
      vertex   -1.358278e+000 2.853198e+001 0.000000e+000
      vertex   -6.700000e+000 2.300000e+001 0.000000e+000
      vertex   -1.502052e+000 2.867945e+001 0.000000e+000
    endloop
  endfacet
  facet normal -0.000000e+000 0.000000e+000 -1.000000e+000
    outer loop
      vertex   -1.502052e+000 2.867945e+001 0.000000e+000
      vertex   -6.700000e+000 2.300000e+001 0.000000e+000
      vertex   -1.629897e+000 2.884093e+001 0.000000e+000
    endloop
  endfacet
  facet normal -0.000000e+000 0.000000e+000 -1.000000e+000
    outer loop
      vertex   -1.629897e+000 2.884093e+001 0.000000e+000
      vertex   -6.700000e+000 2.300000e+001 0.000000e+000
      vertex   -1.740458e+000 2.901470e+001 0.000000e+000
    endloop
  endfacet
  facet normal -0.000000e+000 0.000000e+000 -1.000000e+000
    outer loop
      vertex   -1.740458e+000 2.901470e+001 0.000000e+000
      vertex   -6.700000e+000 2.300000e+001 0.000000e+000
      vertex   -1.832560e+000 2.919893e+001 0.000000e+000
    endloop
  endfacet
  facet normal -0.000000e+000 0.000000e+000 -1.000000e+000
    outer loop
      vertex   -1.832560e+000 2.919893e+001 0.000000e+000
      vertex   -6.700000e+000 2.300000e+001 0.000000e+000
      vertex   -1.905229e+000 2.939164e+001 0.000000e+000
    endloop
  endfacet
  facet normal -0.000000e+000 0.000000e+000 -1.000000e+000
    outer loop
      vertex   -1.905229e+000 2.939164e+001 0.000000e+000
      vertex   -6.700000e+000 2.300000e+001 0.000000e+000
      vertex   -1.957693e+000 2.959081e+001 0.000000e+000
    endloop
  endfacet
  facet normal -0.000000e+000 0.000000e+000 -1.000000e+000
    outer loop
      vertex   -1.957693e+000 2.959081e+001 0.000000e+000
      vertex   -6.700000e+000 2.300000e+001 0.000000e+000
      vertex   -1.989395e+000 2.979431e+001 0.000000e+000
    endloop
  endfacet
  facet normal -0.000000e+000 0.000000e+000 -1.000000e+000
    outer loop
      vertex   -1.989395e+000 2.979431e+001 0.000000e+000
      vertex   -6.700000e+000 2.300000e+001 0.000000e+000
      vertex   -2.000000e+000 3.000000e+001 0.000000e+000
    endloop
  endfacet
endsolid
