solid ascii
  facet normal -9.984819e-001 -5.508027e-002 0.000000e+000
    outer loop
      vertex   -1.848914e+001 6.630415e+001 3.000000e+000
      vertex   -1.847792e+001 6.610064e+001 0.000000e+000
      vertex   -1.847792e+001 6.610064e+001 3.000000e+000
    endloop
  endfacet
  facet normal -9.984819e-001 5.508027e-002 0.000000e+000
    outer loop
      vertex   -1.847792e+001 6.610064e+001 3.000000e+000
      vertex   -1.847792e+001 6.610064e+001 0.000000e+000
      vertex   -1.848914e+001 6.589713e+001 0.000000e+000
    endloop
  endfacet
  facet normal -9.984819e-001 5.508027e-002 0.000000e+000
    outer loop
      vertex   -1.847792e+001 6.610064e+001 3.000000e+000
      vertex   -1.848914e+001 6.589713e+001 0.000000e+000
      vertex   -1.848914e+001 6.589713e+001 3.000000e+000
    endloop
  endfacet
  facet normal -9.863595e-001 1.646054e-001 0.000000e+000
    outer loop
      vertex   -1.848914e+001 6.589713e+001 3.000000e+000
      vertex   -1.848914e+001 6.589713e+001 0.000000e+000
      vertex   -1.852269e+001 6.569608e+001 0.000000e+000
    endloop
  endfacet
  facet normal -9.863595e-001 1.646054e-001 0.000000e+000
    outer loop
      vertex   -1.848914e+001 6.589713e+001 3.000000e+000
      vertex   -1.852269e+001 6.569608e+001 0.000000e+000
      vertex   -1.852269e+001 6.569608e+001 3.000000e+000
    endloop
  endfacet
  facet normal -9.622707e-001 2.720938e-001 0.000000e+000
    outer loop
      vertex   -1.852269e+001 6.569608e+001 3.000000e+000
      vertex   -1.852269e+001 6.569608e+001 0.000000e+000
      vertex   -1.857815e+001 6.549995e+001 0.000000e+000
    endloop
  endfacet
  facet normal -9.622707e-001 2.720938e-001 0.000000e+000
    outer loop
      vertex   -1.852269e+001 6.569608e+001 3.000000e+000
      vertex   -1.857815e+001 6.549995e+001 0.000000e+000
      vertex   -1.857815e+001 6.549995e+001 3.000000e+000
    endloop
  endfacet
  facet normal -9.264927e-001 3.763128e-001 0.000000e+000
    outer loop
      vertex   -1.857815e+001 6.549995e+001 3.000000e+000
      vertex   -1.857815e+001 6.549995e+001 0.000000e+000
      vertex   -1.865486e+001 6.531110e+001 0.000000e+000
    endloop
  endfacet
  facet normal -9.264927e-001 3.763128e-001 0.000000e+000
    outer loop
      vertex   -1.857815e+001 6.549995e+001 3.000000e+000
      vertex   -1.865486e+001 6.531110e+001 0.000000e+000
      vertex   -1.865486e+001 6.531110e+001 3.000000e+000
    endloop
  endfacet
  facet normal -8.794761e-001 4.759431e-001 0.000000e+000
    outer loop
      vertex   -1.865486e+001 6.531110e+001 3.000000e+000
      vertex   -1.865486e+001 6.531110e+001 0.000000e+000
      vertex   -1.875187e+001 6.513184e+001 0.000000e+000
    endloop
  endfacet
  facet normal -8.794761e-001 4.759431e-001 -3.477445e-018
    outer loop
      vertex   -1.865486e+001 6.531110e+001 3.000000e+000
      vertex   -1.875187e+001 6.513184e+001 0.000000e+000
      vertex   -1.875187e+001 6.513184e+001 3.000000e+000
    endloop
  endfacet
  facet normal -8.217745e-001 5.698127e-001 0.000000e+000
    outer loop
      vertex   -1.875187e+001 6.513184e+001 3.000000e+000
      vertex   -1.875187e+001 6.513184e+001 0.000000e+000
      vertex   -1.886801e+001 6.496435e+001 0.000000e+000
    endloop
  endfacet
  facet normal -8.217745e-001 5.698127e-001 0.000000e+000
    outer loop
      vertex   -1.875187e+001 6.513184e+001 3.000000e+000
      vertex   -1.886801e+001 6.496435e+001 0.000000e+000
      vertex   -1.886801e+001 6.496435e+001 3.000000e+000
    endloop
  endfacet
  facet normal -7.540958e-001 6.567644e-001 0.000000e+000
    outer loop
      vertex   -1.886801e+001 6.496435e+001 3.000000e+000
      vertex   -1.886801e+001 6.496435e+001 0.000000e+000
      vertex   -1.900187e+001 6.481065e+001 0.000000e+000
    endloop
  endfacet
  facet normal -7.540958e-001 6.567644e-001 -6.954890e-018
    outer loop
      vertex   -1.886801e+001 6.496435e+001 3.000000e+000
      vertex   -1.900187e+001 6.481065e+001 0.000000e+000
      vertex   -1.900187e+001 6.481065e+001 3.000000e+000
    endloop
  endfacet
  facet normal -6.772829e-001 7.357227e-001 0.000000e+000
    outer loop
      vertex   -1.900187e+001 6.481065e+001 3.000000e+000
      vertex   -1.900187e+001 6.481065e+001 0.000000e+000
      vertex   -1.915183e+001 6.467260e+001 0.000000e+000
    endloop
  endfacet
  facet normal -6.772829e-001 7.357227e-001 0.000000e+000
    outer loop
      vertex   -1.900187e+001 6.481065e+001 3.000000e+000
      vertex   -1.915183e+001 6.467260e+001 0.000000e+000
      vertex   -1.915183e+001 6.467260e+001 3.000000e+000
    endloop
  endfacet
  facet normal -5.922372e-001 8.057637e-001 0.000000e+000
    outer loop
      vertex   -1.915183e+001 6.467260e+001 3.000000e+000
      vertex   -1.915183e+001 6.467260e+001 0.000000e+000
      vertex   -1.931606e+001 6.455189e+001 0.000000e+000
    endloop
  endfacet
  facet normal -5.922372e-001 8.057637e-001 0.000000e+000
    outer loop
      vertex   -1.915183e+001 6.467260e+001 3.000000e+000
      vertex   -1.931606e+001 6.455189e+001 0.000000e+000
      vertex   -1.931606e+001 6.455189e+001 3.000000e+000
    endloop
  endfacet
  facet normal -5.000038e-001 8.660232e-001 0.000000e+000
    outer loop
      vertex   -1.931606e+001 6.455189e+001 3.000000e+000
      vertex   -1.931606e+001 6.455189e+001 0.000000e+000
      vertex   -1.949258e+001 6.444997e+001 0.000000e+000
    endloop
  endfacet
  facet normal -5.000038e-001 8.660232e-001 0.000000e+000
    outer loop
      vertex   -1.931606e+001 6.455189e+001 3.000000e+000
      vertex   -1.949258e+001 6.444997e+001 0.000000e+000
      vertex   -1.949258e+001 6.444997e+001 3.000000e+000
    endloop
  endfacet
  facet normal -4.017057e-001 9.157688e-001 0.000000e+000
    outer loop
      vertex   -1.949258e+001 6.444997e+001 3.000000e+000
      vertex   -1.949258e+001 6.444997e+001 0.000000e+000
      vertex   -1.967924e+001 6.436810e+001 0.000000e+000
    endloop
  endfacet
  facet normal -4.017057e-001 9.157688e-001 -6.954891e-018
    outer loop
      vertex   -1.949258e+001 6.444997e+001 3.000000e+000
      vertex   -1.967924e+001 6.436810e+001 0.000000e+000
      vertex   -1.967924e+001 6.436810e+001 3.000000e+000
    endloop
  endfacet
  facet normal -2.985148e-001 9.544050e-001 0.000000e+000
    outer loop
      vertex   -1.967924e+001 6.436810e+001 3.000000e+000
      vertex   -1.967924e+001 6.436810e+001 0.000000e+000
      vertex   -1.987377e+001 6.430725e+001 0.000000e+000
    endloop
  endfacet
  facet normal -2.985148e-001 9.544050e-001 0.000000e+000
    outer loop
      vertex   -1.967924e+001 6.436810e+001 3.000000e+000
      vertex   -1.987377e+001 6.430725e+001 0.000000e+000
      vertex   -1.987377e+001 6.430725e+001 3.000000e+000
    endloop
  endfacet
  facet normal -1.917214e-001 9.814494e-001 0.000000e+000
    outer loop
      vertex   -1.987377e+001 6.430725e+001 3.000000e+000
      vertex   -1.987377e+001 6.430725e+001 0.000000e+000
      vertex   -2.007381e+001 6.426817e+001 0.000000e+000
    endloop
  endfacet
  facet normal -1.917214e-001 9.814494e-001 1.738723e-018
    outer loop
      vertex   -1.987377e+001 6.430725e+001 3.000000e+000
      vertex   -2.007381e+001 6.426817e+001 0.000000e+000
      vertex   -2.007381e+001 6.426817e+001 3.000000e+000
    endloop
  endfacet
  facet normal -8.257306e-002 9.965850e-001 0.000000e+000
    outer loop
      vertex   -2.007381e+001 6.426817e+001 3.000000e+000
      vertex   -2.007381e+001 6.426817e+001 0.000000e+000
      vertex   -2.027694e+001 6.425134e+001 0.000000e+000
    endloop
  endfacet
  facet normal -8.257306e-002 9.965850e-001 0.000000e+000
    outer loop
      vertex   -2.007381e+001 6.426817e+001 3.000000e+000
      vertex   -2.027694e+001 6.425134e+001 0.000000e+000
      vertex   -2.027694e+001 6.425134e+001 3.000000e+000
    endloop
  endfacet
  facet normal 2.754940e-002 9.996204e-001 0.000000e+000
    outer loop
      vertex   -2.027694e+001 6.425134e+001 3.000000e+000
      vertex   -2.027694e+001 6.425134e+001 0.000000e+000
      vertex   -2.048069e+001 6.425696e+001 0.000000e+000
    endloop
  endfacet
  facet normal 2.754940e-002 9.996204e-001 0.000000e+000
    outer loop
      vertex   -2.027694e+001 6.425134e+001 3.000000e+000
      vertex   -2.048069e+001 6.425696e+001 0.000000e+000
      vertex   -2.048069e+001 6.425696e+001 3.000000e+000
    endloop
  endfacet
  facet normal 1.373720e-001 9.905195e-001 0.000000e+000
    outer loop
      vertex   -2.048069e+001 6.425696e+001 3.000000e+000
      vertex   -2.048069e+001 6.425696e+001 0.000000e+000
      vertex   -2.068258e+001 6.428496e+001 0.000000e+000
    endloop
  endfacet
  facet normal 1.373720e-001 9.905195e-001 0.000000e+000
    outer loop
      vertex   -2.048069e+001 6.425696e+001 3.000000e+000
      vertex   -2.068258e+001 6.428496e+001 0.000000e+000
      vertex   -2.068258e+001 6.428496e+001 3.000000e+000
    endloop
  endfacet
  facet normal 2.454740e-001 9.694032e-001 0.000000e+000
    outer loop
      vertex   -2.068258e+001 6.428496e+001 3.000000e+000
      vertex   -2.068258e+001 6.428496e+001 0.000000e+000
      vertex   -2.088017e+001 6.433499e+001 0.000000e+000
    endloop
  endfacet
  facet normal 2.454740e-001 9.694032e-001 0.000000e+000
    outer loop
      vertex   -2.068258e+001 6.428496e+001 3.000000e+000
      vertex   -2.088017e+001 6.433499e+001 0.000000e+000
      vertex   -2.088017e+001 6.433499e+001 3.000000e+000
    endloop
  endfacet
  facet normal 3.506537e-001 9.365052e-001 0.000000e+000
    outer loop
      vertex   -2.088017e+001 6.433499e+001 3.000000e+000
      vertex   -2.088017e+001 6.433499e+001 0.000000e+000
      vertex   -2.107105e+001 6.440646e+001 0.000000e+000
    endloop
  endfacet
  facet normal 3.506537e-001 9.365052e-001 -6.954891e-018
    outer loop
      vertex   -2.088017e+001 6.433499e+001 3.000000e+000
      vertex   -2.107105e+001 6.440646e+001 0.000000e+000
      vertex   -2.107105e+001 6.440646e+001 3.000000e+000
    endloop
  endfacet
  facet normal 4.515317e-001 8.922551e-001 0.000000e+000
    outer loop
      vertex   -2.107105e+001 6.440646e+001 3.000000e+000
      vertex   -2.107105e+001 6.440646e+001 0.000000e+000
      vertex   -2.125292e+001 6.449850e+001 0.000000e+000
    endloop
  endfacet
  facet normal 4.515317e-001 8.922551e-001 -3.477445e-018
    outer loop
      vertex   -2.107105e+001 6.440646e+001 3.000000e+000
      vertex   -2.125292e+001 6.449850e+001 0.000000e+000
      vertex   -2.125292e+001 6.449850e+001 3.000000e+000
    endloop
  endfacet
  facet normal 5.469453e-001 8.371684e-001 0.000000e+000
    outer loop
      vertex   -2.125292e+001 6.449850e+001 3.000000e+000
      vertex   -2.125292e+001 6.449850e+001 0.000000e+000
      vertex   -2.142355e+001 6.460998e+001 0.000000e+000
    endloop
  endfacet
  facet normal 5.469453e-001 8.371684e-001 -3.477445e-018
    outer loop
      vertex   -2.125292e+001 6.449850e+001 3.000000e+000
      vertex   -2.142355e+001 6.460998e+001 0.000000e+000
      vertex   -2.142355e+001 6.460998e+001 3.000000e+000
    endloop
  endfacet
  facet normal 6.357289e-001 7.719124e-001 0.000000e+000
    outer loop
      vertex   -2.142355e+001 6.460998e+001 3.000000e+000
      vertex   -2.142355e+001 6.460998e+001 0.000000e+000
      vertex   -2.158089e+001 6.473956e+001 0.000000e+000
    endloop
  endfacet
  facet normal 6.357289e-001 7.719124e-001 -6.954891e-018
    outer loop
      vertex   -2.142355e+001 6.460998e+001 3.000000e+000
      vertex   -2.158089e+001 6.473956e+001 0.000000e+000
      vertex   -2.158089e+001 6.473956e+001 3.000000e+000
    endloop
  endfacet
  facet normal 7.167766e-001 6.973029e-001 0.000000e+000
    outer loop
      vertex   -2.158089e+001 6.473956e+001 3.000000e+000
      vertex   -2.158089e+001 6.473956e+001 0.000000e+000
      vertex   -2.172301e+001 6.488565e+001 0.000000e+000
    endloop
  endfacet
  facet normal 7.167766e-001 6.973029e-001 0.000000e+000
    outer loop
      vertex   -2.158089e+001 6.473956e+001 3.000000e+000
      vertex   -2.172301e+001 6.488565e+001 0.000000e+000
      vertex   -2.172301e+001 6.488565e+001 3.000000e+000
    endloop
  endfacet
  facet normal 7.891319e-001 6.142237e-001 0.000000e+000
    outer loop
      vertex   -2.172301e+001 6.488565e+001 3.000000e+000
      vertex   -2.172301e+001 6.488565e+001 0.000000e+000
      vertex   -2.184821e+001 6.504649e+001 0.000000e+000
    endloop
  endfacet
  facet normal 7.891319e-001 6.142237e-001 6.954890e-018
    outer loop
      vertex   -2.172301e+001 6.488565e+001 3.000000e+000
      vertex   -2.184821e+001 6.504649e+001 0.000000e+000
      vertex   -2.184821e+001 6.504649e+001 3.000000e+000
    endloop
  endfacet
  facet normal 8.519239e-001 5.236656e-001 0.000000e+000
    outer loop
      vertex   -2.184821e+001 6.504649e+001 3.000000e+000
      vertex   -2.184821e+001 6.504649e+001 0.000000e+000
      vertex   -2.195494e+001 6.522014e+001 0.000000e+000
    endloop
  endfacet
  facet normal 8.519239e-001 5.236656e-001 0.000000e+000
    outer loop
      vertex   -2.184821e+001 6.504649e+001 3.000000e+000
      vertex   -2.195494e+001 6.522014e+001 0.000000e+000
      vertex   -2.195494e+001 6.522014e+001 3.000000e+000
    endloop
  endfacet
  facet normal 9.043622e-001 4.267657e-001 0.000000e+000
    outer loop
      vertex   -2.195494e+001 6.522014e+001 3.000000e+000
      vertex   -2.195494e+001 6.522014e+001 0.000000e+000
      vertex   -2.204193e+001 6.540447e+001 0.000000e+000
    endloop
  endfacet
  facet normal 9.043622e-001 4.267657e-001 -3.477445e-018
    outer loop
      vertex   -2.195494e+001 6.522014e+001 3.000000e+000
      vertex   -2.204193e+001 6.540447e+001 0.000000e+000
      vertex   -2.204193e+001 6.540447e+001 3.000000e+000
    endloop
  endfacet
  facet normal 9.458145e-001 3.247073e-001 0.000000e+000
    outer loop
      vertex   -2.204193e+001 6.540447e+001 3.000000e+000
      vertex   -2.204193e+001 6.540447e+001 0.000000e+000
      vertex   -2.210811e+001 6.559725e+001 0.000000e+000
    endloop
  endfacet
  facet normal 9.458145e-001 3.247073e-001 0.000000e+000
    outer loop
      vertex   -2.204193e+001 6.540447e+001 3.000000e+000
      vertex   -2.210811e+001 6.559725e+001 0.000000e+000
      vertex   -2.210811e+001 6.559725e+001 3.000000e+000
    endloop
  endfacet
  facet normal 9.757960e-001 2.186829e-001 0.000000e+000
    outer loop
      vertex   -2.210811e+001 6.559725e+001 3.000000e+000
      vertex   -2.210811e+001 6.559725e+001 0.000000e+000
      vertex   -2.215269e+001 6.579614e+001 0.000000e+000
    endloop
  endfacet
  facet normal 9.757960e-001 2.186829e-001 -1.738723e-018
    outer loop
      vertex   -2.210811e+001 6.559725e+001 3.000000e+000
      vertex   -2.215269e+001 6.579614e+001 0.000000e+000
      vertex   -2.215269e+001 6.579614e+001 3.000000e+000
    endloop
  endfacet
  facet normal 9.939312e-001 1.100032e-001 0.000000e+000
    outer loop
      vertex   -2.215269e+001 6.579614e+001 3.000000e+000
      vertex   -2.215269e+001 6.579614e+001 0.000000e+000
      vertex   -2.217511e+001 6.599873e+001 0.000000e+000
    endloop
  endfacet
  facet normal 9.939312e-001 1.100032e-001 0.000000e+000
    outer loop
      vertex   -2.215269e+001 6.579614e+001 3.000000e+000
      vertex   -2.217511e+001 6.599873e+001 0.000000e+000
      vertex   -2.217511e+001 6.599873e+001 3.000000e+000
    endloop
  endfacet
  facet normal 1.000000e+000 0.000000e+000 0.000000e+000
    outer loop
      vertex   -2.217511e+001 6.599873e+001 3.000000e+000
      vertex   -2.217511e+001 6.599873e+001 0.000000e+000
      vertex   -2.217511e+001 6.620255e+001 0.000000e+000
    endloop
  endfacet
  facet normal 1.000000e+000 -0.000000e+000 0.000000e+000
    outer loop
      vertex   -2.217511e+001 6.599873e+001 3.000000e+000
      vertex   -2.217511e+001 6.620255e+001 0.000000e+000
      vertex   -2.217511e+001 6.620255e+001 3.000000e+000
    endloop
  endfacet
  facet normal 9.939317e-001 -1.099991e-001 0.000000e+000
    outer loop
      vertex   -2.217511e+001 6.620255e+001 3.000000e+000
      vertex   -2.217511e+001 6.620255e+001 0.000000e+000
      vertex   -2.215269e+001 6.640514e+001 0.000000e+000
    endloop
  endfacet
  facet normal 9.939317e-001 -1.099991e-001 8.693613e-019
    outer loop
      vertex   -2.217511e+001 6.620255e+001 3.000000e+000
      vertex   -2.215269e+001 6.640514e+001 0.000000e+000
      vertex   -2.215269e+001 6.640514e+001 3.000000e+000
    endloop
  endfacet
  facet normal 9.757960e-001 -2.186829e-001 0.000000e+000
    outer loop
      vertex   -2.215269e+001 6.640514e+001 3.000000e+000
      vertex   -2.215269e+001 6.640514e+001 0.000000e+000
      vertex   -2.210811e+001 6.660403e+001 0.000000e+000
    endloop
  endfacet
  facet normal 9.757960e-001 -2.186829e-001 1.738723e-018
    outer loop
      vertex   -2.215269e+001 6.640514e+001 3.000000e+000
      vertex   -2.210811e+001 6.660403e+001 0.000000e+000
      vertex   -2.210811e+001 6.660403e+001 3.000000e+000
    endloop
  endfacet
  facet normal 9.458145e-001 -3.247073e-001 0.000000e+000
    outer loop
      vertex   -2.210811e+001 6.660403e+001 3.000000e+000
      vertex   -2.210811e+001 6.660403e+001 0.000000e+000
      vertex   -2.204193e+001 6.679681e+001 0.000000e+000
    endloop
  endfacet
  facet normal 9.458145e-001 -3.247073e-001 0.000000e+000
    outer loop
      vertex   -2.210811e+001 6.660403e+001 3.000000e+000
      vertex   -2.204193e+001 6.679681e+001 0.000000e+000
      vertex   -2.204193e+001 6.679681e+001 3.000000e+000
    endloop
  endfacet
  facet normal 9.043622e-001 -4.267657e-001 0.000000e+000
    outer loop
      vertex   -2.204193e+001 6.679681e+001 3.000000e+000
      vertex   -2.204193e+001 6.679681e+001 0.000000e+000
      vertex   -2.195494e+001 6.698115e+001 0.000000e+000
    endloop
  endfacet
  facet normal 9.043622e-001 -4.267657e-001 3.477445e-018
    outer loop
      vertex   -2.204193e+001 6.679681e+001 3.000000e+000
      vertex   -2.195494e+001 6.698115e+001 0.000000e+000
      vertex   -2.195494e+001 6.698115e+001 3.000000e+000
    endloop
  endfacet
  facet normal 8.519136e-001 -5.236823e-001 0.000000e+000
    outer loop
      vertex   -2.195494e+001 6.698115e+001 3.000000e+000
      vertex   -2.195494e+001 6.698115e+001 0.000000e+000
      vertex   -2.184821e+001 6.715479e+001 0.000000e+000
    endloop
  endfacet
  facet normal 8.519136e-001 -5.236823e-001 3.477445e-018
    outer loop
      vertex   -2.195494e+001 6.698115e+001 3.000000e+000
      vertex   -2.184821e+001 6.715479e+001 0.000000e+000
      vertex   -2.184821e+001 6.715479e+001 3.000000e+000
    endloop
  endfacet
  facet normal 7.891461e-001 -6.142055e-001 0.000000e+000
    outer loop
      vertex   -2.184821e+001 6.715479e+001 3.000000e+000
      vertex   -2.184821e+001 6.715479e+001 0.000000e+000
      vertex   -2.172301e+001 6.731564e+001 0.000000e+000
    endloop
  endfacet
  facet normal 7.891461e-001 -6.142055e-001 0.000000e+000
    outer loop
      vertex   -2.184821e+001 6.715479e+001 3.000000e+000
      vertex   -2.172301e+001 6.731564e+001 0.000000e+000
      vertex   -2.172301e+001 6.731564e+001 3.000000e+000
    endloop
  endfacet
  facet normal 7.167766e-001 -6.973029e-001 0.000000e+000
    outer loop
      vertex   -2.172301e+001 6.731564e+001 3.000000e+000
      vertex   -2.172301e+001 6.731564e+001 0.000000e+000
      vertex   -2.158089e+001 6.746173e+001 0.000000e+000
    endloop
  endfacet
  facet normal 7.167766e-001 -6.973029e-001 0.000000e+000
    outer loop
      vertex   -2.172301e+001 6.731564e+001 3.000000e+000
      vertex   -2.158089e+001 6.746173e+001 0.000000e+000
      vertex   -2.158089e+001 6.746173e+001 3.000000e+000
    endloop
  endfacet
  facet normal 6.357289e-001 -7.719124e-001 0.000000e+000
    outer loop
      vertex   -2.158089e+001 6.746173e+001 3.000000e+000
      vertex   -2.158089e+001 6.746173e+001 0.000000e+000
      vertex   -2.142355e+001 6.759131e+001 0.000000e+000
    endloop
  endfacet
  facet normal 6.357289e-001 -7.719124e-001 6.954891e-018
    outer loop
      vertex   -2.158089e+001 6.746173e+001 3.000000e+000
      vertex   -2.142355e+001 6.759131e+001 0.000000e+000
      vertex   -2.142355e+001 6.759131e+001 3.000000e+000
    endloop
  endfacet
  facet normal 5.469453e-001 -8.371684e-001 0.000000e+000
    outer loop
      vertex   -2.142355e+001 6.759131e+001 3.000000e+000
      vertex   -2.142355e+001 6.759131e+001 0.000000e+000
      vertex   -2.125292e+001 6.770279e+001 0.000000e+000
    endloop
  endfacet
  facet normal 5.469453e-001 -8.371684e-001 3.477445e-018
    outer loop
      vertex   -2.142355e+001 6.759131e+001 3.000000e+000
      vertex   -2.125292e+001 6.770279e+001 0.000000e+000
      vertex   -2.125292e+001 6.770279e+001 3.000000e+000
    endloop
  endfacet
  facet normal 4.515317e-001 -8.922551e-001 0.000000e+000
    outer loop
      vertex   -2.125292e+001 6.770279e+001 3.000000e+000
      vertex   -2.125292e+001 6.770279e+001 0.000000e+000
      vertex   -2.107105e+001 6.779482e+001 0.000000e+000
    endloop
  endfacet
  facet normal 4.515317e-001 -8.922551e-001 3.477445e-018
    outer loop
      vertex   -2.125292e+001 6.770279e+001 3.000000e+000
      vertex   -2.107105e+001 6.779482e+001 0.000000e+000
      vertex   -2.107105e+001 6.779482e+001 3.000000e+000
    endloop
  endfacet
  facet normal 3.506537e-001 -9.365052e-001 0.000000e+000
    outer loop
      vertex   -2.107105e+001 6.779482e+001 3.000000e+000
      vertex   -2.107105e+001 6.779482e+001 0.000000e+000
      vertex   -2.088017e+001 6.786629e+001 0.000000e+000
    endloop
  endfacet
  facet normal 3.506537e-001 -9.365052e-001 6.954891e-018
    outer loop
      vertex   -2.107105e+001 6.779482e+001 3.000000e+000
      vertex   -2.088017e+001 6.786629e+001 0.000000e+000
      vertex   -2.088017e+001 6.786629e+001 3.000000e+000
    endloop
  endfacet
  facet normal 2.454740e-001 -9.694032e-001 0.000000e+000
    outer loop
      vertex   -2.088017e+001 6.786629e+001 3.000000e+000
      vertex   -2.088017e+001 6.786629e+001 0.000000e+000
      vertex   -2.068258e+001 6.791633e+001 0.000000e+000
    endloop
  endfacet
  facet normal 2.454740e-001 -9.694032e-001 0.000000e+000
    outer loop
      vertex   -2.088017e+001 6.786629e+001 3.000000e+000
      vertex   -2.068258e+001 6.791633e+001 0.000000e+000
      vertex   -2.068258e+001 6.791633e+001 3.000000e+000
    endloop
  endfacet
  facet normal 1.373353e-001 -9.905246e-001 0.000000e+000
    outer loop
      vertex   -2.068258e+001 6.791633e+001 3.000000e+000
      vertex   -2.068258e+001 6.791633e+001 0.000000e+000
      vertex   -2.048069e+001 6.794432e+001 0.000000e+000
    endloop
  endfacet
  facet normal 1.373353e-001 -9.905246e-001 0.000000e+000
    outer loop
      vertex   -2.068258e+001 6.791633e+001 3.000000e+000
      vertex   -2.048069e+001 6.794432e+001 0.000000e+000
      vertex   -2.048069e+001 6.794432e+001 3.000000e+000
    endloop
  endfacet
  facet normal 2.754940e-002 -9.996204e-001 0.000000e+000
    outer loop
      vertex   -2.048069e+001 6.794432e+001 3.000000e+000
      vertex   -2.048069e+001 6.794432e+001 0.000000e+000
      vertex   -2.027694e+001 6.794994e+001 0.000000e+000
    endloop
  endfacet
  facet normal 2.754940e-002 -9.996204e-001 0.000000e+000
    outer loop
      vertex   -2.048069e+001 6.794432e+001 3.000000e+000
      vertex   -2.027694e+001 6.794994e+001 0.000000e+000
      vertex   -2.027694e+001 6.794994e+001 3.000000e+000
    endloop
  endfacet
  facet normal -8.257306e-002 -9.965850e-001 -0.000000e+000
    outer loop
      vertex   -2.027694e+001 6.794994e+001 3.000000e+000
      vertex   -2.027694e+001 6.794994e+001 0.000000e+000
      vertex   -2.007381e+001 6.793311e+001 0.000000e+000
    endloop
  endfacet
  facet normal -8.257306e-002 -9.965850e-001 0.000000e+000
    outer loop
      vertex   -2.027694e+001 6.794994e+001 3.000000e+000
      vertex   -2.007381e+001 6.793311e+001 0.000000e+000
      vertex   -2.007381e+001 6.793311e+001 3.000000e+000
    endloop
  endfacet
  facet normal -1.916854e-001 -9.814564e-001 -0.000000e+000
    outer loop
      vertex   -2.007381e+001 6.793311e+001 3.000000e+000
      vertex   -2.007381e+001 6.793311e+001 0.000000e+000
      vertex   -1.987377e+001 6.789404e+001 0.000000e+000
    endloop
  endfacet
  facet normal -1.916854e-001 -9.814564e-001 -1.738723e-018
    outer loop
      vertex   -2.007381e+001 6.793311e+001 3.000000e+000
      vertex   -1.987377e+001 6.789404e+001 0.000000e+000
      vertex   -1.987377e+001 6.789404e+001 3.000000e+000
    endloop
  endfacet
  facet normal -2.985148e-001 -9.544050e-001 -0.000000e+000
    outer loop
      vertex   -1.987377e+001 6.789404e+001 3.000000e+000
      vertex   -1.987377e+001 6.789404e+001 0.000000e+000
      vertex   -1.967924e+001 6.783319e+001 0.000000e+000
    endloop
  endfacet
  facet normal -2.985148e-001 -9.544050e-001 0.000000e+000
    outer loop
      vertex   -1.987377e+001 6.789404e+001 3.000000e+000
      vertex   -1.967924e+001 6.783319e+001 0.000000e+000
      vertex   -1.967924e+001 6.783319e+001 3.000000e+000
    endloop
  endfacet
  facet normal -4.017057e-001 -9.157688e-001 -0.000000e+000
    outer loop
      vertex   -1.967924e+001 6.783319e+001 3.000000e+000
      vertex   -1.967924e+001 6.783319e+001 0.000000e+000
      vertex   -1.949258e+001 6.775131e+001 0.000000e+000
    endloop
  endfacet
  facet normal -4.017057e-001 -9.157688e-001 6.954891e-018
    outer loop
      vertex   -1.967924e+001 6.783319e+001 3.000000e+000
      vertex   -1.949258e+001 6.775131e+001 0.000000e+000
      vertex   -1.949258e+001 6.775131e+001 3.000000e+000
    endloop
  endfacet
  facet normal -5.000038e-001 -8.660232e-001 -0.000000e+000
    outer loop
      vertex   -1.949258e+001 6.775131e+001 3.000000e+000
      vertex   -1.949258e+001 6.775131e+001 0.000000e+000
      vertex   -1.931606e+001 6.764940e+001 0.000000e+000
    endloop
  endfacet
  facet normal -5.000038e-001 -8.660232e-001 0.000000e+000
    outer loop
      vertex   -1.949258e+001 6.775131e+001 3.000000e+000
      vertex   -1.931606e+001 6.764940e+001 0.000000e+000
      vertex   -1.931606e+001 6.764940e+001 3.000000e+000
    endloop
  endfacet
  facet normal -5.922372e-001 -8.057637e-001 -0.000000e+000
    outer loop
      vertex   -1.931606e+001 6.764940e+001 3.000000e+000
      vertex   -1.931606e+001 6.764940e+001 0.000000e+000
      vertex   -1.915183e+001 6.752869e+001 0.000000e+000
    endloop
  endfacet
  facet normal -5.922372e-001 -8.057637e-001 0.000000e+000
    outer loop
      vertex   -1.931606e+001 6.764940e+001 3.000000e+000
      vertex   -1.915183e+001 6.752869e+001 0.000000e+000
      vertex   -1.915183e+001 6.752869e+001 3.000000e+000
    endloop
  endfacet
  facet normal -6.772829e-001 -7.357227e-001 -0.000000e+000
    outer loop
      vertex   -1.915183e+001 6.752869e+001 3.000000e+000
      vertex   -1.915183e+001 6.752869e+001 0.000000e+000
      vertex   -1.900187e+001 6.739064e+001 0.000000e+000
    endloop
  endfacet
  facet normal -6.772829e-001 -7.357227e-001 0.000000e+000
    outer loop
      vertex   -1.915183e+001 6.752869e+001 3.000000e+000
      vertex   -1.900187e+001 6.739064e+001 0.000000e+000
      vertex   -1.900187e+001 6.739064e+001 3.000000e+000
    endloop
  endfacet
  facet normal -7.540958e-001 -6.567644e-001 -0.000000e+000
    outer loop
      vertex   -1.900187e+001 6.739064e+001 3.000000e+000
      vertex   -1.900187e+001 6.739064e+001 0.000000e+000
      vertex   -1.886801e+001 6.723694e+001 0.000000e+000
    endloop
  endfacet
  facet normal -7.540958e-001 -6.567644e-001 6.954890e-018
    outer loop
      vertex   -1.900187e+001 6.739064e+001 3.000000e+000
      vertex   -1.886801e+001 6.723694e+001 0.000000e+000
      vertex   -1.886801e+001 6.723694e+001 3.000000e+000
    endloop
  endfacet
  facet normal -8.217867e-001 -5.697952e-001 -0.000000e+000
    outer loop
      vertex   -1.886801e+001 6.723694e+001 3.000000e+000
      vertex   -1.886801e+001 6.723694e+001 0.000000e+000
      vertex   -1.875187e+001 6.706944e+001 0.000000e+000
    endloop
  endfacet
  facet normal -8.217867e-001 -5.697952e-001 -6.954892e-018
    outer loop
      vertex   -1.886801e+001 6.723694e+001 3.000000e+000
      vertex   -1.875187e+001 6.706944e+001 0.000000e+000
      vertex   -1.875187e+001 6.706944e+001 3.000000e+000
    endloop
  endfacet
  facet normal -8.794761e-001 -4.759431e-001 -0.000000e+000
    outer loop
      vertex   -1.875187e+001 6.706944e+001 3.000000e+000
      vertex   -1.875187e+001 6.706944e+001 0.000000e+000
      vertex   -1.865486e+001 6.689017e+001 0.000000e+000
    endloop
  endfacet
  facet normal -8.794761e-001 -4.759431e-001 3.477445e-018
    outer loop
      vertex   -1.875187e+001 6.706944e+001 3.000000e+000
      vertex   -1.865486e+001 6.689017e+001 0.000000e+000
      vertex   -1.865486e+001 6.689017e+001 3.000000e+000
    endloop
  endfacet
  facet normal -9.264874e-001 -3.763258e-001 -0.000000e+000
    outer loop
      vertex   -1.865486e+001 6.689017e+001 3.000000e+000
      vertex   -1.865486e+001 6.689017e+001 0.000000e+000
      vertex   -1.857815e+001 6.670134e+001 0.000000e+000
    endloop
  endfacet
  facet normal -9.264874e-001 -3.763258e-001 0.000000e+000
    outer loop
      vertex   -1.865486e+001 6.689017e+001 3.000000e+000
      vertex   -1.857815e+001 6.670134e+001 0.000000e+000
      vertex   -1.857815e+001 6.670134e+001 3.000000e+000
    endloop
  endfacet
  facet normal -9.622707e-001 -2.720938e-001 -0.000000e+000
    outer loop
      vertex   -1.857815e+001 6.670134e+001 3.000000e+000
      vertex   -1.857815e+001 6.670134e+001 0.000000e+000
      vertex   -1.852269e+001 6.650520e+001 0.000000e+000
    endloop
  endfacet
  facet normal -9.622707e-001 -2.720938e-001 0.000000e+000
    outer loop
      vertex   -1.857815e+001 6.670134e+001 3.000000e+000
      vertex   -1.852269e+001 6.650520e+001 0.000000e+000
      vertex   -1.852269e+001 6.650520e+001 3.000000e+000
    endloop
  endfacet
  facet normal -9.863605e-001 -1.645993e-001 -0.000000e+000
    outer loop
      vertex   -1.852269e+001 6.650520e+001 3.000000e+000
      vertex   -1.852269e+001 6.650520e+001 0.000000e+000
      vertex   -1.848914e+001 6.630415e+001 0.000000e+000
    endloop
  endfacet
  facet normal -9.863605e-001 -1.645993e-001 -1.738723e-018
    outer loop
      vertex   -1.852269e+001 6.650520e+001 3.000000e+000
      vertex   -1.848914e+001 6.630415e+001 0.000000e+000
      vertex   -1.848914e+001 6.630415e+001 3.000000e+000
    endloop
  endfacet
  facet normal -9.984819e-001 -5.508027e-002 -0.000000e+000
    outer loop
      vertex   -1.848914e+001 6.630415e+001 3.000000e+000
      vertex   -1.848914e+001 6.630415e+001 0.000000e+000
      vertex   -1.847792e+001 6.610064e+001 0.000000e+000
    endloop
  endfacet
  facet normal 0.000000e+000 0.000000e+000 1.000000e+000
    outer loop
      vertex   -1.848914e+001 6.630415e+001 3.000000e+000
      vertex   -1.847792e+001 6.610064e+001 3.000000e+000
      vertex   -1.692792e+001 6.610064e+001 3.000000e+000
    endloop
  endfacet
  facet normal 0.000000e+000 0.000000e+000 1.000000e+000
    outer loop
      vertex   -1.692792e+001 6.610064e+001 3.000000e+000
      vertex   -1.847792e+001 6.610064e+001 3.000000e+000
      vertex   -1.848914e+001 6.589713e+001 3.000000e+000
    endloop
  endfacet
  facet normal 0.000000e+000 0.000000e+000 1.000000e+000
    outer loop
      vertex   -1.692792e+001 6.610064e+001 3.000000e+000
      vertex   -1.848914e+001 6.589713e+001 3.000000e+000
      vertex   -1.852269e+001 6.569608e+001 3.000000e+000
    endloop
  endfacet
  facet normal -0.000000e+000 0.000000e+000 1.000000e+000
    outer loop
      vertex   -1.852269e+001 6.569608e+001 3.000000e+000
      vertex   -1.857815e+001 6.549995e+001 3.000000e+000
      vertex   -1.692792e+001 6.610064e+001 3.000000e+000
    endloop
  endfacet
  facet normal 0.000000e+000 0.000000e+000 1.000000e+000
    outer loop
      vertex   -1.692792e+001 6.610064e+001 3.000000e+000
      vertex   -1.857815e+001 6.549995e+001 3.000000e+000
      vertex   -1.865486e+001 6.531110e+001 3.000000e+000
    endloop
  endfacet
  facet normal 0.000000e+000 0.000000e+000 1.000000e+000
    outer loop
      vertex   -1.692792e+001 6.610064e+001 3.000000e+000
      vertex   -1.865486e+001 6.531110e+001 3.000000e+000
      vertex   -1.875187e+001 6.513184e+001 3.000000e+000
    endloop
  endfacet
  facet normal 0.000000e+000 0.000000e+000 1.000000e+000
    outer loop
      vertex   -1.692792e+001 6.610064e+001 3.000000e+000
      vertex   -1.875187e+001 6.513184e+001 3.000000e+000
      vertex   -1.862792e+001 6.315615e+001 3.000000e+000
    endloop
  endfacet
  facet normal 0.000000e+000 0.000000e+000 1.000000e+000
    outer loop
      vertex   -1.862792e+001 6.315615e+001 3.000000e+000
      vertex   -1.875187e+001 6.513184e+001 3.000000e+000
      vertex   -1.886801e+001 6.496435e+001 3.000000e+000
    endloop
  endfacet
  facet normal 0.000000e+000 0.000000e+000 1.000000e+000
    outer loop
      vertex   -1.862792e+001 6.315615e+001 3.000000e+000
      vertex   -1.886801e+001 6.496435e+001 3.000000e+000
      vertex   -1.900187e+001 6.481065e+001 3.000000e+000
    endloop
  endfacet
  facet normal 0.000000e+000 0.000000e+000 1.000000e+000
    outer loop
      vertex   -1.900187e+001 6.481065e+001 3.000000e+000
      vertex   -1.915183e+001 6.467260e+001 3.000000e+000
      vertex   -1.862792e+001 6.315615e+001 3.000000e+000
    endloop
  endfacet
  facet normal 0.000000e+000 0.000000e+000 1.000000e+000
    outer loop
      vertex   -1.862792e+001 6.315615e+001 3.000000e+000
      vertex   -1.915183e+001 6.467260e+001 3.000000e+000
      vertex   -1.931606e+001 6.455189e+001 3.000000e+000
    endloop
  endfacet
  facet normal 0.000000e+000 0.000000e+000 1.000000e+000
    outer loop
      vertex   -1.862792e+001 6.315615e+001 3.000000e+000
      vertex   -1.931606e+001 6.455189e+001 3.000000e+000
      vertex   -1.949258e+001 6.444997e+001 3.000000e+000
    endloop
  endfacet
  facet normal 0.000000e+000 0.000000e+000 1.000000e+000
    outer loop
      vertex   -1.949258e+001 6.444997e+001 3.000000e+000
      vertex   -1.967924e+001 6.436810e+001 3.000000e+000
      vertex   -1.862792e+001 6.315615e+001 3.000000e+000
    endloop
  endfacet
  facet normal 0.000000e+000 0.000000e+000 1.000000e+000
    outer loop
      vertex   -1.862792e+001 6.315615e+001 3.000000e+000
      vertex   -1.967924e+001 6.436810e+001 3.000000e+000
      vertex   -1.987377e+001 6.430725e+001 3.000000e+000
    endloop
  endfacet
  facet normal 0.000000e+000 0.000000e+000 1.000000e+000
    outer loop
      vertex   -1.862792e+001 6.315615e+001 3.000000e+000
      vertex   -1.987377e+001 6.430725e+001 3.000000e+000
      vertex   -2.007381e+001 6.426817e+001 3.000000e+000
    endloop
  endfacet
  facet normal 0.000000e+000 0.000000e+000 1.000000e+000
    outer loop
      vertex   -2.007381e+001 6.426817e+001 3.000000e+000
      vertex   -2.027694e+001 6.425134e+001 3.000000e+000
      vertex   -1.862792e+001 6.315615e+001 3.000000e+000
    endloop
  endfacet
  facet normal 0.000000e+000 0.000000e+000 1.000000e+000
    outer loop
      vertex   -1.862792e+001 6.315615e+001 3.000000e+000
      vertex   -2.027694e+001 6.425134e+001 3.000000e+000
      vertex   -2.202792e+001 6.315615e+001 3.000000e+000
    endloop
  endfacet
  facet normal 0.000000e+000 0.000000e+000 1.000000e+000
    outer loop
      vertex   -2.202792e+001 6.315615e+001 3.000000e+000
      vertex   -2.027694e+001 6.425134e+001 3.000000e+000
      vertex   -2.048069e+001 6.425696e+001 3.000000e+000
    endloop
  endfacet
  facet normal 0.000000e+000 0.000000e+000 1.000000e+000
    outer loop
      vertex   -2.202792e+001 6.315615e+001 3.000000e+000
      vertex   -2.048069e+001 6.425696e+001 3.000000e+000
      vertex   -2.068258e+001 6.428496e+001 3.000000e+000
    endloop
  endfacet
  facet normal 0.000000e+000 0.000000e+000 1.000000e+000
    outer loop
      vertex   -2.068258e+001 6.428496e+001 3.000000e+000
      vertex   -2.088017e+001 6.433499e+001 3.000000e+000
      vertex   -2.202792e+001 6.315615e+001 3.000000e+000
    endloop
  endfacet
  facet normal 0.000000e+000 0.000000e+000 1.000000e+000
    outer loop
      vertex   -2.202792e+001 6.315615e+001 3.000000e+000
      vertex   -2.088017e+001 6.433499e+001 3.000000e+000
      vertex   -2.107105e+001 6.440646e+001 3.000000e+000
    endloop
  endfacet
  facet normal 0.000000e+000 0.000000e+000 1.000000e+000
    outer loop
      vertex   -2.202792e+001 6.315615e+001 3.000000e+000
      vertex   -2.107105e+001 6.440646e+001 3.000000e+000
      vertex   -2.125292e+001 6.449850e+001 3.000000e+000
    endloop
  endfacet
  facet normal 0.000000e+000 0.000000e+000 1.000000e+000
    outer loop
      vertex   -2.125292e+001 6.449850e+001 3.000000e+000
      vertex   -2.142355e+001 6.460998e+001 3.000000e+000
      vertex   -2.202792e+001 6.315615e+001 3.000000e+000
    endloop
  endfacet
  facet normal 0.000000e+000 0.000000e+000 1.000000e+000
    outer loop
      vertex   -2.202792e+001 6.315615e+001 3.000000e+000
      vertex   -2.142355e+001 6.460998e+001 3.000000e+000
      vertex   -2.158089e+001 6.473956e+001 3.000000e+000
    endloop
  endfacet
  facet normal 0.000000e+000 0.000000e+000 1.000000e+000
    outer loop
      vertex   -2.202792e+001 6.315615e+001 3.000000e+000
      vertex   -2.158089e+001 6.473956e+001 3.000000e+000
      vertex   -2.172301e+001 6.488565e+001 3.000000e+000
    endloop
  endfacet
  facet normal 0.000000e+000 0.000000e+000 1.000000e+000
    outer loop
      vertex   -2.172301e+001 6.488565e+001 3.000000e+000
      vertex   -2.184821e+001 6.504649e+001 3.000000e+000
      vertex   -2.202792e+001 6.315615e+001 3.000000e+000
    endloop
  endfacet
  facet normal 0.000000e+000 -0.000000e+000 1.000000e+000
    outer loop
      vertex   -2.202792e+001 6.315615e+001 3.000000e+000
      vertex   -2.184821e+001 6.504649e+001 3.000000e+000
      vertex   -2.372792e+001 6.610064e+001 3.000000e+000
    endloop
  endfacet
  facet normal 0.000000e+000 0.000000e+000 1.000000e+000
    outer loop
      vertex   -2.372792e+001 6.610064e+001 3.000000e+000
      vertex   -2.184821e+001 6.504649e+001 3.000000e+000
      vertex   -2.195494e+001 6.522014e+001 3.000000e+000
    endloop
  endfacet
  facet normal 0.000000e+000 0.000000e+000 1.000000e+000
    outer loop
      vertex   -2.372792e+001 6.610064e+001 3.000000e+000
      vertex   -2.195494e+001 6.522014e+001 3.000000e+000
      vertex   -2.204193e+001 6.540447e+001 3.000000e+000
    endloop
  endfacet
  facet normal 0.000000e+000 0.000000e+000 1.000000e+000
    outer loop
      vertex   -2.204193e+001 6.540447e+001 3.000000e+000
      vertex   -2.210811e+001 6.559725e+001 3.000000e+000
      vertex   -2.372792e+001 6.610064e+001 3.000000e+000
    endloop
  endfacet
  facet normal 0.000000e+000 0.000000e+000 1.000000e+000
    outer loop
      vertex   -2.372792e+001 6.610064e+001 3.000000e+000
      vertex   -2.210811e+001 6.559725e+001 3.000000e+000
      vertex   -2.215269e+001 6.579614e+001 3.000000e+000
    endloop
  endfacet
  facet normal 0.000000e+000 0.000000e+000 1.000000e+000
    outer loop
      vertex   -2.372792e+001 6.610064e+001 3.000000e+000
      vertex   -2.215269e+001 6.579614e+001 3.000000e+000
      vertex   -2.217511e+001 6.599873e+001 3.000000e+000
    endloop
  endfacet
  facet normal 0.000000e+000 -0.000000e+000 1.000000e+000
    outer loop
      vertex   -2.217511e+001 6.599873e+001 3.000000e+000
      vertex   -2.217511e+001 6.620255e+001 3.000000e+000
      vertex   -2.372792e+001 6.610064e+001 3.000000e+000
    endloop
  endfacet
  facet normal 0.000000e+000 0.000000e+000 1.000000e+000
    outer loop
      vertex   -2.372792e+001 6.610064e+001 3.000000e+000
      vertex   -2.217511e+001 6.620255e+001 3.000000e+000
      vertex   -2.215269e+001 6.640514e+001 3.000000e+000
    endloop
  endfacet
  facet normal 0.000000e+000 0.000000e+000 1.000000e+000
    outer loop
      vertex   -2.372792e+001 6.610064e+001 3.000000e+000
      vertex   -2.215269e+001 6.640514e+001 3.000000e+000
      vertex   -2.210811e+001 6.660403e+001 3.000000e+000
    endloop
  endfacet
  facet normal 0.000000e+000 -0.000000e+000 1.000000e+000
    outer loop
      vertex   -2.210811e+001 6.660403e+001 3.000000e+000
      vertex   -2.204193e+001 6.679681e+001 3.000000e+000
      vertex   -2.372792e+001 6.610064e+001 3.000000e+000
    endloop
  endfacet
  facet normal 0.000000e+000 0.000000e+000 1.000000e+000
    outer loop
      vertex   -2.372792e+001 6.610064e+001 3.000000e+000
      vertex   -2.204193e+001 6.679681e+001 3.000000e+000
      vertex   -2.195494e+001 6.698115e+001 3.000000e+000
    endloop
  endfacet
  facet normal 0.000000e+000 0.000000e+000 1.000000e+000
    outer loop
      vertex   -2.372792e+001 6.610064e+001 3.000000e+000
      vertex   -2.195494e+001 6.698115e+001 3.000000e+000
      vertex   -2.184821e+001 6.715479e+001 3.000000e+000
    endloop
  endfacet
  facet normal 0.000000e+000 0.000000e+000 1.000000e+000
    outer loop
      vertex   -2.372792e+001 6.610064e+001 3.000000e+000
      vertex   -2.184821e+001 6.715479e+001 3.000000e+000
      vertex   -2.202792e+001 6.904513e+001 3.000000e+000
    endloop
  endfacet
  facet normal 0.000000e+000 0.000000e+000 1.000000e+000
    outer loop
      vertex   -2.202792e+001 6.904513e+001 3.000000e+000
      vertex   -2.184821e+001 6.715479e+001 3.000000e+000
      vertex   -2.172301e+001 6.731564e+001 3.000000e+000
    endloop
  endfacet
  facet normal 0.000000e+000 0.000000e+000 1.000000e+000
    outer loop
      vertex   -2.202792e+001 6.904513e+001 3.000000e+000
      vertex   -2.172301e+001 6.731564e+001 3.000000e+000
      vertex   -2.158089e+001 6.746173e+001 3.000000e+000
    endloop
  endfacet
  facet normal 0.000000e+000 -0.000000e+000 1.000000e+000
    outer loop
      vertex   -2.158089e+001 6.746173e+001 3.000000e+000
      vertex   -2.142355e+001 6.759131e+001 3.000000e+000
      vertex   -2.202792e+001 6.904513e+001 3.000000e+000
    endloop
  endfacet
  facet normal 0.000000e+000 0.000000e+000 1.000000e+000
    outer loop
      vertex   -2.202792e+001 6.904513e+001 3.000000e+000
      vertex   -2.142355e+001 6.759131e+001 3.000000e+000
      vertex   -2.125292e+001 6.770279e+001 3.000000e+000
    endloop
  endfacet
  facet normal 0.000000e+000 0.000000e+000 1.000000e+000
    outer loop
      vertex   -2.202792e+001 6.904513e+001 3.000000e+000
      vertex   -2.125292e+001 6.770279e+001 3.000000e+000
      vertex   -2.107105e+001 6.779482e+001 3.000000e+000
    endloop
  endfacet
  facet normal 0.000000e+000 -0.000000e+000 1.000000e+000
    outer loop
      vertex   -2.107105e+001 6.779482e+001 3.000000e+000
      vertex   -2.088017e+001 6.786629e+001 3.000000e+000
      vertex   -2.202792e+001 6.904513e+001 3.000000e+000
    endloop
  endfacet
  facet normal 0.000000e+000 0.000000e+000 1.000000e+000
    outer loop
      vertex   -2.202792e+001 6.904513e+001 3.000000e+000
      vertex   -2.088017e+001 6.786629e+001 3.000000e+000
      vertex   -2.068258e+001 6.791633e+001 3.000000e+000
    endloop
  endfacet
  facet normal 0.000000e+000 0.000000e+000 1.000000e+000
    outer loop
      vertex   -2.202792e+001 6.904513e+001 3.000000e+000
      vertex   -2.068258e+001 6.791633e+001 3.000000e+000
      vertex   -2.048069e+001 6.794432e+001 3.000000e+000
    endloop
  endfacet
  facet normal 0.000000e+000 -0.000000e+000 1.000000e+000
    outer loop
      vertex   -2.048069e+001 6.794432e+001 3.000000e+000
      vertex   -2.027694e+001 6.794994e+001 3.000000e+000
      vertex   -2.202792e+001 6.904513e+001 3.000000e+000
    endloop
  endfacet
  facet normal -0.000000e+000 0.000000e+000 1.000000e+000
    outer loop
      vertex   -2.202792e+001 6.904513e+001 3.000000e+000
      vertex   -2.027694e+001 6.794994e+001 3.000000e+000
      vertex   -1.862792e+001 6.904513e+001 3.000000e+000
    endloop
  endfacet
  facet normal 0.000000e+000 0.000000e+000 1.000000e+000
    outer loop
      vertex   -1.862792e+001 6.904513e+001 3.000000e+000
      vertex   -2.027694e+001 6.794994e+001 3.000000e+000
      vertex   -2.007381e+001 6.793311e+001 3.000000e+000
    endloop
  endfacet
  facet normal 0.000000e+000 0.000000e+000 1.000000e+000
    outer loop
      vertex   -1.862792e+001 6.904513e+001 3.000000e+000
      vertex   -2.007381e+001 6.793311e+001 3.000000e+000
      vertex   -1.987377e+001 6.789404e+001 3.000000e+000
    endloop
  endfacet
  facet normal -0.000000e+000 0.000000e+000 1.000000e+000
    outer loop
      vertex   -1.987377e+001 6.789404e+001 3.000000e+000
      vertex   -1.967924e+001 6.783319e+001 3.000000e+000
      vertex   -1.862792e+001 6.904513e+001 3.000000e+000
    endloop
  endfacet
  facet normal 0.000000e+000 0.000000e+000 1.000000e+000
    outer loop
      vertex   -1.862792e+001 6.904513e+001 3.000000e+000
      vertex   -1.967924e+001 6.783319e+001 3.000000e+000
      vertex   -1.949258e+001 6.775131e+001 3.000000e+000
    endloop
  endfacet
  facet normal 0.000000e+000 0.000000e+000 1.000000e+000
    outer loop
      vertex   -1.862792e+001 6.904513e+001 3.000000e+000
      vertex   -1.949258e+001 6.775131e+001 3.000000e+000
      vertex   -1.931606e+001 6.764940e+001 3.000000e+000
    endloop
  endfacet
  facet normal -0.000000e+000 0.000000e+000 1.000000e+000
    outer loop
      vertex   -1.931606e+001 6.764940e+001 3.000000e+000
      vertex   -1.915183e+001 6.752869e+001 3.000000e+000
      vertex   -1.862792e+001 6.904513e+001 3.000000e+000
    endloop
  endfacet
  facet normal 0.000000e+000 0.000000e+000 1.000000e+000
    outer loop
      vertex   -1.862792e+001 6.904513e+001 3.000000e+000
      vertex   -1.915183e+001 6.752869e+001 3.000000e+000
      vertex   -1.900187e+001 6.739064e+001 3.000000e+000
    endloop
  endfacet
  facet normal 0.000000e+000 0.000000e+000 1.000000e+000
    outer loop
      vertex   -1.862792e+001 6.904513e+001 3.000000e+000
      vertex   -1.900187e+001 6.739064e+001 3.000000e+000
      vertex   -1.886801e+001 6.723694e+001 3.000000e+000
    endloop
  endfacet
  facet normal -0.000000e+000 0.000000e+000 1.000000e+000
    outer loop
      vertex   -1.886801e+001 6.723694e+001 3.000000e+000
      vertex   -1.875187e+001 6.706944e+001 3.000000e+000
      vertex   -1.862792e+001 6.904513e+001 3.000000e+000
    endloop
  endfacet
  facet normal 0.000000e+000 0.000000e+000 1.000000e+000
    outer loop
      vertex   -1.862792e+001 6.904513e+001 3.000000e+000
      vertex   -1.875187e+001 6.706944e+001 3.000000e+000
      vertex   -1.692792e+001 6.610064e+001 3.000000e+000
    endloop
  endfacet
  facet normal 0.000000e+000 0.000000e+000 1.000000e+000
    outer loop
      vertex   -1.692792e+001 6.610064e+001 3.000000e+000
      vertex   -1.875187e+001 6.706944e+001 3.000000e+000
      vertex   -1.865486e+001 6.689017e+001 3.000000e+000
    endloop
  endfacet
  facet normal 0.000000e+000 0.000000e+000 1.000000e+000
    outer loop
      vertex   -1.692792e+001 6.610064e+001 3.000000e+000
      vertex   -1.865486e+001 6.689017e+001 3.000000e+000
      vertex   -1.857815e+001 6.670134e+001 3.000000e+000
    endloop
  endfacet
  facet normal 0.000000e+000 0.000000e+000 1.000000e+000
    outer loop
      vertex   -1.857815e+001 6.670134e+001 3.000000e+000
      vertex   -1.852269e+001 6.650520e+001 3.000000e+000
      vertex   -1.692792e+001 6.610064e+001 3.000000e+000
    endloop
  endfacet
  facet normal 0.000000e+000 0.000000e+000 1.000000e+000
    outer loop
      vertex   -1.692792e+001 6.610064e+001 3.000000e+000
      vertex   -1.852269e+001 6.650520e+001 3.000000e+000
      vertex   -1.848914e+001 6.630415e+001 3.000000e+000
    endloop
  endfacet
  facet normal 8.660252e-001 5.000004e-001 -0.000000e+000
    outer loop
      vertex   -2.202792e+001 6.315615e+001 3.000000e+000
      vertex   -2.372792e+001 6.610064e+001 3.000000e+000
      vertex   -2.202792e+001 6.315615e+001 6.000000e+000
    endloop
  endfacet
  facet normal 8.660252e-001 5.000004e-001 8.390164e-017
    outer loop
      vertex   -2.202792e+001 6.315615e+001 6.000000e+000
      vertex   -2.372792e+001 6.610064e+001 3.000000e+000
      vertex   -2.372792e+001 6.610064e+001 6.000000e+000
    endloop
  endfacet
  facet normal 8.660254e-001 -4.999999e-001 0.000000e+000
    outer loop
      vertex   -2.372792e+001 6.610064e+001 3.000000e+000
      vertex   -2.202792e+001 6.904513e+001 3.000000e+000
      vertex   -2.372792e+001 6.610064e+001 6.000000e+000
    endloop
  endfacet
  facet normal 8.660254e-001 -4.999999e-001 8.390169e-017
    outer loop
      vertex   -2.372792e+001 6.610064e+001 6.000000e+000
      vertex   -2.202792e+001 6.904513e+001 3.000000e+000
      vertex   -2.202792e+001 6.904513e+001 6.000000e+000
    endloop
  endfacet
  facet normal 0.000000e+000 -1.000000e+000 0.000000e+000
    outer loop
      vertex   -2.202792e+001 6.904513e+001 3.000000e+000
      vertex   -1.862792e+001 6.904513e+001 3.000000e+000
      vertex   -2.202792e+001 6.904513e+001 6.000000e+000
    endloop
  endfacet
  facet normal 0.000000e+000 -1.000000e+000 0.000000e+000
    outer loop
      vertex   -2.202792e+001 6.904513e+001 6.000000e+000
      vertex   -1.862792e+001 6.904513e+001 3.000000e+000
      vertex   -1.862792e+001 6.904513e+001 6.000000e+000
    endloop
  endfacet
  facet normal 0.000000e+000 1.000000e+000 -0.000000e+000
    outer loop
      vertex   -1.862792e+001 6.315615e+001 3.000000e+000
      vertex   -2.202792e+001 6.315615e+001 3.000000e+000
      vertex   -1.862792e+001 6.315615e+001 6.000000e+000
    endloop
  endfacet
  facet normal 0.000000e+000 1.000000e+000 0.000000e+000
    outer loop
      vertex   -1.862792e+001 6.315615e+001 6.000000e+000
      vertex   -2.202792e+001 6.315615e+001 3.000000e+000
      vertex   -2.202792e+001 6.315615e+001 6.000000e+000
    endloop
  endfacet
  facet normal -8.660252e-001 5.000004e-001 0.000000e+000
    outer loop
      vertex   -1.692792e+001 6.610064e+001 3.000000e+000
      vertex   -1.862792e+001 6.315615e+001 3.000000e+000
      vertex   -1.692792e+001 6.610064e+001 6.000000e+000
    endloop
  endfacet
  facet normal -8.660252e-001 5.000004e-001 -8.390164e-017
    outer loop
      vertex   -1.692792e+001 6.610064e+001 6.000000e+000
      vertex   -1.862792e+001 6.315615e+001 3.000000e+000
      vertex   -1.862792e+001 6.315615e+001 6.000000e+000
    endloop
  endfacet
  facet normal -8.660254e-001 -4.999999e-001 0.000000e+000
    outer loop
      vertex   -1.862792e+001 6.904513e+001 3.000000e+000
      vertex   -1.692792e+001 6.610064e+001 3.000000e+000
      vertex   -1.862792e+001 6.904513e+001 6.000000e+000
    endloop
  endfacet
  facet normal -8.660254e-001 -4.999999e-001 -8.390169e-017
    outer loop
      vertex   -1.862792e+001 6.904513e+001 6.000000e+000
      vertex   -1.692792e+001 6.610064e+001 3.000000e+000
      vertex   -1.692792e+001 6.610064e+001 6.000000e+000
    endloop
  endfacet
  facet normal 1.000000e+000 0.000000e+000 0.000000e+000
    outer loop
      vertex   -1.600992e+001 6.178264e+001 0.000000e+000
      vertex   -1.600992e+001 7.041864e+001 0.000000e+000
      vertex   -1.600992e+001 6.178264e+001 6.000000e+000
    endloop
  endfacet
  facet normal 1.000000e+000 -0.000000e+000 0.000000e+000
    outer loop
      vertex   -1.600992e+001 6.178264e+001 6.000000e+000
      vertex   -1.600992e+001 7.041864e+001 0.000000e+000
      vertex   -1.600992e+001 7.041864e+001 6.000000e+000
    endloop
  endfacet
  facet normal 0.000000e+000 -1.000000e+000 0.000000e+000
    outer loop
      vertex   -2.464592e+001 6.178264e+001 0.000000e+000
      vertex   -1.600992e+001 6.178264e+001 0.000000e+000
      vertex   -2.464592e+001 6.178264e+001 6.000000e+000
    endloop
  endfacet
  facet normal 0.000000e+000 -1.000000e+000 0.000000e+000
    outer loop
      vertex   -2.464592e+001 6.178264e+001 6.000000e+000
      vertex   -1.600992e+001 6.178264e+001 0.000000e+000
      vertex   -1.600992e+001 6.178264e+001 6.000000e+000
    endloop
  endfacet
  facet normal -1.000000e+000 0.000000e+000 0.000000e+000
    outer loop
      vertex   -2.464592e+001 7.041864e+001 0.000000e+000
      vertex   -2.464592e+001 6.178264e+001 0.000000e+000
      vertex   -2.464592e+001 7.041864e+001 6.000000e+000
    endloop
  endfacet
  facet normal -1.000000e+000 -0.000000e+000 0.000000e+000
    outer loop
      vertex   -2.464592e+001 7.041864e+001 6.000000e+000
      vertex   -2.464592e+001 6.178264e+001 0.000000e+000
      vertex   -2.464592e+001 6.178264e+001 6.000000e+000
    endloop
  endfacet
  facet normal 0.000000e+000 1.000000e+000 -0.000000e+000
    outer loop
      vertex   -1.600992e+001 7.041864e+001 0.000000e+000
      vertex   -2.464592e+001 7.041864e+001 0.000000e+000
      vertex   -1.600992e+001 7.041864e+001 6.000000e+000
    endloop
  endfacet
  facet normal 0.000000e+000 1.000000e+000 0.000000e+000
    outer loop
      vertex   -1.600992e+001 7.041864e+001 6.000000e+000
      vertex   -2.464592e+001 7.041864e+001 0.000000e+000
      vertex   -2.464592e+001 7.041864e+001 6.000000e+000
    endloop
  endfacet
  facet normal 0.000000e+000 -0.000000e+000 1.000000e+000
    outer loop
      vertex   -2.372792e+001 6.610064e+001 6.000000e+000
      vertex   -2.202792e+001 6.904513e+001 6.000000e+000
      vertex   -2.464592e+001 7.041864e+001 6.000000e+000
    endloop
  endfacet
  facet normal 0.000000e+000 0.000000e+000 1.000000e+000
    outer loop
      vertex   -2.464592e+001 7.041864e+001 6.000000e+000
      vertex   -2.202792e+001 6.904513e+001 6.000000e+000
      vertex   -1.862792e+001 6.904513e+001 6.000000e+000
    endloop
  endfacet
  facet normal -0.000000e+000 0.000000e+000 1.000000e+000
    outer loop
      vertex   -2.464592e+001 7.041864e+001 6.000000e+000
      vertex   -1.862792e+001 6.904513e+001 6.000000e+000
      vertex   -1.600992e+001 7.041864e+001 6.000000e+000
    endloop
  endfacet
  facet normal 0.000000e+000 0.000000e+000 1.000000e+000
    outer loop
      vertex   -1.600992e+001 7.041864e+001 6.000000e+000
      vertex   -1.862792e+001 6.904513e+001 6.000000e+000
      vertex   -1.692792e+001 6.610064e+001 6.000000e+000
    endloop
  endfacet
  facet normal 0.000000e+000 0.000000e+000 1.000000e+000
    outer loop
      vertex   -1.600992e+001 7.041864e+001 6.000000e+000
      vertex   -1.692792e+001 6.610064e+001 6.000000e+000
      vertex   -1.600992e+001 6.178264e+001 6.000000e+000
    endloop
  endfacet
  facet normal 0.000000e+000 0.000000e+000 1.000000e+000
    outer loop
      vertex   -1.600992e+001 6.178264e+001 6.000000e+000
      vertex   -1.692792e+001 6.610064e+001 6.000000e+000
      vertex   -1.862792e+001 6.315615e+001 6.000000e+000
    endloop
  endfacet
  facet normal 0.000000e+000 0.000000e+000 1.000000e+000
    outer loop
      vertex   -1.600992e+001 6.178264e+001 6.000000e+000
      vertex   -1.862792e+001 6.315615e+001 6.000000e+000
      vertex   -2.464592e+001 6.178264e+001 6.000000e+000
    endloop
  endfacet
  facet normal 0.000000e+000 0.000000e+000 1.000000e+000
    outer loop
      vertex   -2.464592e+001 6.178264e+001 6.000000e+000
      vertex   -1.862792e+001 6.315615e+001 6.000000e+000
      vertex   -2.202792e+001 6.315615e+001 6.000000e+000
    endloop
  endfacet
  facet normal 0.000000e+000 0.000000e+000 1.000000e+000
    outer loop
      vertex   -2.464592e+001 6.178264e+001 6.000000e+000
      vertex   -2.202792e+001 6.315615e+001 6.000000e+000
      vertex   -2.372792e+001 6.610064e+001 6.000000e+000
    endloop
  endfacet
  facet normal 0.000000e+000 0.000000e+000 1.000000e+000
    outer loop
      vertex   -2.464592e+001 6.178264e+001 6.000000e+000
      vertex   -2.372792e+001 6.610064e+001 6.000000e+000
      vertex   -2.464592e+001 7.041864e+001 6.000000e+000
    endloop
  endfacet
  facet normal 0.000000e+000 0.000000e+000 -1.000000e+000
    outer loop
      vertex   -1.848914e+001 6.630415e+001 0.000000e+000
      vertex   -1.600992e+001 7.041864e+001 0.000000e+000
      vertex   -1.847792e+001 6.610064e+001 0.000000e+000
    endloop
  endfacet
  facet normal 0.000000e+000 0.000000e+000 -1.000000e+000
    outer loop
      vertex   -1.847792e+001 6.610064e+001 0.000000e+000
      vertex   -1.600992e+001 7.041864e+001 0.000000e+000
      vertex   -1.600992e+001 6.178264e+001 0.000000e+000
    endloop
  endfacet
  facet normal 0.000000e+000 -0.000000e+000 -1.000000e+000
    outer loop
      vertex   -1.847792e+001 6.610064e+001 0.000000e+000
      vertex   -1.600992e+001 6.178264e+001 0.000000e+000
      vertex   -1.848914e+001 6.589713e+001 0.000000e+000
    endloop
  endfacet
  facet normal 0.000000e+000 -0.000000e+000 -1.000000e+000
    outer loop
      vertex   -1.848914e+001 6.589713e+001 0.000000e+000
      vertex   -1.600992e+001 6.178264e+001 0.000000e+000
      vertex   -1.852269e+001 6.569608e+001 0.000000e+000
    endloop
  endfacet
  facet normal 0.000000e+000 -0.000000e+000 -1.000000e+000
    outer loop
      vertex   -1.852269e+001 6.569608e+001 0.000000e+000
      vertex   -1.600992e+001 6.178264e+001 0.000000e+000
      vertex   -1.857815e+001 6.549995e+001 0.000000e+000
    endloop
  endfacet
  facet normal 0.000000e+000 -0.000000e+000 -1.000000e+000
    outer loop
      vertex   -1.857815e+001 6.549995e+001 0.000000e+000
      vertex   -1.600992e+001 6.178264e+001 0.000000e+000
      vertex   -1.865486e+001 6.531110e+001 0.000000e+000
    endloop
  endfacet
  facet normal 0.000000e+000 -0.000000e+000 -1.000000e+000
    outer loop
      vertex   -1.865486e+001 6.531110e+001 0.000000e+000
      vertex   -1.600992e+001 6.178264e+001 0.000000e+000
      vertex   -1.875187e+001 6.513184e+001 0.000000e+000
    endloop
  endfacet
  facet normal 0.000000e+000 -0.000000e+000 -1.000000e+000
    outer loop
      vertex   -1.875187e+001 6.513184e+001 0.000000e+000
      vertex   -1.600992e+001 6.178264e+001 0.000000e+000
      vertex   -1.886801e+001 6.496435e+001 0.000000e+000
    endloop
  endfacet
  facet normal 0.000000e+000 -0.000000e+000 -1.000000e+000
    outer loop
      vertex   -1.886801e+001 6.496435e+001 0.000000e+000
      vertex   -1.600992e+001 6.178264e+001 0.000000e+000
      vertex   -1.900187e+001 6.481065e+001 0.000000e+000
    endloop
  endfacet
  facet normal 0.000000e+000 -0.000000e+000 -1.000000e+000
    outer loop
      vertex   -1.900187e+001 6.481065e+001 0.000000e+000
      vertex   -1.600992e+001 6.178264e+001 0.000000e+000
      vertex   -1.915183e+001 6.467260e+001 0.000000e+000
    endloop
  endfacet
  facet normal 0.000000e+000 -0.000000e+000 -1.000000e+000
    outer loop
      vertex   -1.915183e+001 6.467260e+001 0.000000e+000
      vertex   -1.600992e+001 6.178264e+001 0.000000e+000
      vertex   -1.931606e+001 6.455189e+001 0.000000e+000
    endloop
  endfacet
  facet normal 0.000000e+000 -0.000000e+000 -1.000000e+000
    outer loop
      vertex   -1.931606e+001 6.455189e+001 0.000000e+000
      vertex   -1.600992e+001 6.178264e+001 0.000000e+000
      vertex   -1.949258e+001 6.444997e+001 0.000000e+000
    endloop
  endfacet
  facet normal 0.000000e+000 -0.000000e+000 -1.000000e+000
    outer loop
      vertex   -1.949258e+001 6.444997e+001 0.000000e+000
      vertex   -1.600992e+001 6.178264e+001 0.000000e+000
      vertex   -1.967924e+001 6.436810e+001 0.000000e+000
    endloop
  endfacet
  facet normal 0.000000e+000 -0.000000e+000 -1.000000e+000
    outer loop
      vertex   -1.967924e+001 6.436810e+001 0.000000e+000
      vertex   -1.600992e+001 6.178264e+001 0.000000e+000
      vertex   -1.987377e+001 6.430725e+001 0.000000e+000
    endloop
  endfacet
  facet normal 0.000000e+000 -0.000000e+000 -1.000000e+000
    outer loop
      vertex   -1.987377e+001 6.430725e+001 0.000000e+000
      vertex   -1.600992e+001 6.178264e+001 0.000000e+000
      vertex   -2.007381e+001 6.426817e+001 0.000000e+000
    endloop
  endfacet
  facet normal 0.000000e+000 -0.000000e+000 -1.000000e+000
    outer loop
      vertex   -2.007381e+001 6.426817e+001 0.000000e+000
      vertex   -1.600992e+001 6.178264e+001 0.000000e+000
      vertex   -2.027694e+001 6.425134e+001 0.000000e+000
    endloop
  endfacet
  facet normal 0.000000e+000 -0.000000e+000 -1.000000e+000
    outer loop
      vertex   -2.027694e+001 6.425134e+001 0.000000e+000
      vertex   -1.600992e+001 6.178264e+001 0.000000e+000
      vertex   -2.464592e+001 6.178264e+001 0.000000e+000
    endloop
  endfacet
  facet normal -0.000000e+000 0.000000e+000 -1.000000e+000
    outer loop
      vertex   -2.027694e+001 6.425134e+001 0.000000e+000
      vertex   -2.464592e+001 6.178264e+001 0.000000e+000
      vertex   -2.048069e+001 6.425696e+001 0.000000e+000
    endloop
  endfacet
  facet normal -0.000000e+000 0.000000e+000 -1.000000e+000
    outer loop
      vertex   -2.048069e+001 6.425696e+001 0.000000e+000
      vertex   -2.464592e+001 6.178264e+001 0.000000e+000
      vertex   -2.068258e+001 6.428496e+001 0.000000e+000
    endloop
  endfacet
  facet normal -0.000000e+000 0.000000e+000 -1.000000e+000
    outer loop
      vertex   -2.068258e+001 6.428496e+001 0.000000e+000
      vertex   -2.464592e+001 6.178264e+001 0.000000e+000
      vertex   -2.088017e+001 6.433499e+001 0.000000e+000
    endloop
  endfacet
  facet normal -0.000000e+000 0.000000e+000 -1.000000e+000
    outer loop
      vertex   -2.088017e+001 6.433499e+001 0.000000e+000
      vertex   -2.464592e+001 6.178264e+001 0.000000e+000
      vertex   -2.107105e+001 6.440646e+001 0.000000e+000
    endloop
  endfacet
  facet normal -0.000000e+000 0.000000e+000 -1.000000e+000
    outer loop
      vertex   -2.107105e+001 6.440646e+001 0.000000e+000
      vertex   -2.464592e+001 6.178264e+001 0.000000e+000
      vertex   -2.125292e+001 6.449850e+001 0.000000e+000
    endloop
  endfacet
  facet normal -0.000000e+000 0.000000e+000 -1.000000e+000
    outer loop
      vertex   -2.125292e+001 6.449850e+001 0.000000e+000
      vertex   -2.464592e+001 6.178264e+001 0.000000e+000
      vertex   -2.142355e+001 6.460998e+001 0.000000e+000
    endloop
  endfacet
  facet normal -0.000000e+000 0.000000e+000 -1.000000e+000
    outer loop
      vertex   -2.142355e+001 6.460998e+001 0.000000e+000
      vertex   -2.464592e+001 6.178264e+001 0.000000e+000
      vertex   -2.158089e+001 6.473956e+001 0.000000e+000
    endloop
  endfacet
  facet normal -0.000000e+000 0.000000e+000 -1.000000e+000
    outer loop
      vertex   -2.158089e+001 6.473956e+001 0.000000e+000
      vertex   -2.464592e+001 6.178264e+001 0.000000e+000
      vertex   -2.172301e+001 6.488565e+001 0.000000e+000
    endloop
  endfacet
  facet normal -0.000000e+000 0.000000e+000 -1.000000e+000
    outer loop
      vertex   -2.172301e+001 6.488565e+001 0.000000e+000
      vertex   -2.464592e+001 6.178264e+001 0.000000e+000
      vertex   -2.184821e+001 6.504649e+001 0.000000e+000
    endloop
  endfacet
  facet normal -0.000000e+000 0.000000e+000 -1.000000e+000
    outer loop
      vertex   -2.184821e+001 6.504649e+001 0.000000e+000
      vertex   -2.464592e+001 6.178264e+001 0.000000e+000
      vertex   -2.195494e+001 6.522014e+001 0.000000e+000
    endloop
  endfacet
  facet normal -0.000000e+000 0.000000e+000 -1.000000e+000
    outer loop
      vertex   -2.195494e+001 6.522014e+001 0.000000e+000
      vertex   -2.464592e+001 6.178264e+001 0.000000e+000
      vertex   -2.204193e+001 6.540447e+001 0.000000e+000
    endloop
  endfacet
  facet normal -0.000000e+000 0.000000e+000 -1.000000e+000
    outer loop
      vertex   -2.204193e+001 6.540447e+001 0.000000e+000
      vertex   -2.464592e+001 6.178264e+001 0.000000e+000
      vertex   -2.210811e+001 6.559725e+001 0.000000e+000
    endloop
  endfacet
  facet normal -0.000000e+000 0.000000e+000 -1.000000e+000
    outer loop
      vertex   -2.210811e+001 6.559725e+001 0.000000e+000
      vertex   -2.464592e+001 6.178264e+001 0.000000e+000
      vertex   -2.215269e+001 6.579614e+001 0.000000e+000
    endloop
  endfacet
  facet normal -0.000000e+000 0.000000e+000 -1.000000e+000
    outer loop
      vertex   -2.215269e+001 6.579614e+001 0.000000e+000
      vertex   -2.464592e+001 6.178264e+001 0.000000e+000
      vertex   -2.217511e+001 6.599873e+001 0.000000e+000
    endloop
  endfacet
  facet normal -0.000000e+000 0.000000e+000 -1.000000e+000
    outer loop
      vertex   -2.217511e+001 6.599873e+001 0.000000e+000
      vertex   -2.464592e+001 6.178264e+001 0.000000e+000
      vertex   -2.464592e+001 7.041864e+001 0.000000e+000
    endloop
  endfacet
  facet normal 0.000000e+000 0.000000e+000 -1.000000e+000
    outer loop
      vertex   -2.217511e+001 6.599873e+001 0.000000e+000
      vertex   -2.464592e+001 7.041864e+001 0.000000e+000
      vertex   -2.217511e+001 6.620255e+001 0.000000e+000
    endloop
  endfacet
  facet normal 0.000000e+000 0.000000e+000 -1.000000e+000
    outer loop
      vertex   -2.217511e+001 6.620255e+001 0.000000e+000
      vertex   -2.464592e+001 7.041864e+001 0.000000e+000
      vertex   -2.215269e+001 6.640514e+001 0.000000e+000
    endloop
  endfacet
  facet normal 0.000000e+000 0.000000e+000 -1.000000e+000
    outer loop
      vertex   -2.215269e+001 6.640514e+001 0.000000e+000
      vertex   -2.464592e+001 7.041864e+001 0.000000e+000
      vertex   -2.210811e+001 6.660403e+001 0.000000e+000
    endloop
  endfacet
  facet normal 0.000000e+000 0.000000e+000 -1.000000e+000
    outer loop
      vertex   -2.210811e+001 6.660403e+001 0.000000e+000
      vertex   -2.464592e+001 7.041864e+001 0.000000e+000
      vertex   -2.204193e+001 6.679681e+001 0.000000e+000
    endloop
  endfacet
  facet normal 0.000000e+000 0.000000e+000 -1.000000e+000
    outer loop
      vertex   -2.204193e+001 6.679681e+001 0.000000e+000
      vertex   -2.464592e+001 7.041864e+001 0.000000e+000
      vertex   -2.195494e+001 6.698115e+001 0.000000e+000
    endloop
  endfacet
  facet normal 0.000000e+000 0.000000e+000 -1.000000e+000
    outer loop
      vertex   -2.195494e+001 6.698115e+001 0.000000e+000
      vertex   -2.464592e+001 7.041864e+001 0.000000e+000
      vertex   -2.184821e+001 6.715479e+001 0.000000e+000
    endloop
  endfacet
  facet normal 0.000000e+000 0.000000e+000 -1.000000e+000
    outer loop
      vertex   -2.184821e+001 6.715479e+001 0.000000e+000
      vertex   -2.464592e+001 7.041864e+001 0.000000e+000
      vertex   -2.172301e+001 6.731564e+001 0.000000e+000
    endloop
  endfacet
  facet normal 0.000000e+000 0.000000e+000 -1.000000e+000
    outer loop
      vertex   -2.172301e+001 6.731564e+001 0.000000e+000
      vertex   -2.464592e+001 7.041864e+001 0.000000e+000
      vertex   -2.158089e+001 6.746173e+001 0.000000e+000
    endloop
  endfacet
  facet normal 0.000000e+000 0.000000e+000 -1.000000e+000
    outer loop
      vertex   -2.158089e+001 6.746173e+001 0.000000e+000
      vertex   -2.464592e+001 7.041864e+001 0.000000e+000
      vertex   -2.142355e+001 6.759131e+001 0.000000e+000
    endloop
  endfacet
  facet normal 0.000000e+000 0.000000e+000 -1.000000e+000
    outer loop
      vertex   -2.142355e+001 6.759131e+001 0.000000e+000
      vertex   -2.464592e+001 7.041864e+001 0.000000e+000
      vertex   -2.125292e+001 6.770279e+001 0.000000e+000
    endloop
  endfacet
  facet normal 0.000000e+000 0.000000e+000 -1.000000e+000
    outer loop
      vertex   -2.125292e+001 6.770279e+001 0.000000e+000
      vertex   -2.464592e+001 7.041864e+001 0.000000e+000
      vertex   -2.107105e+001 6.779482e+001 0.000000e+000
    endloop
  endfacet
  facet normal 0.000000e+000 0.000000e+000 -1.000000e+000
    outer loop
      vertex   -2.107105e+001 6.779482e+001 0.000000e+000
      vertex   -2.464592e+001 7.041864e+001 0.000000e+000
      vertex   -2.088017e+001 6.786629e+001 0.000000e+000
    endloop
  endfacet
  facet normal 0.000000e+000 0.000000e+000 -1.000000e+000
    outer loop
      vertex   -2.088017e+001 6.786629e+001 0.000000e+000
      vertex   -2.464592e+001 7.041864e+001 0.000000e+000
      vertex   -2.068258e+001 6.791633e+001 0.000000e+000
    endloop
  endfacet
  facet normal 0.000000e+000 0.000000e+000 -1.000000e+000
    outer loop
      vertex   -2.068258e+001 6.791633e+001 0.000000e+000
      vertex   -2.464592e+001 7.041864e+001 0.000000e+000
      vertex   -2.048069e+001 6.794432e+001 0.000000e+000
    endloop
  endfacet
  facet normal 0.000000e+000 0.000000e+000 -1.000000e+000
    outer loop
      vertex   -2.048069e+001 6.794432e+001 0.000000e+000
      vertex   -2.464592e+001 7.041864e+001 0.000000e+000
      vertex   -2.027694e+001 6.794994e+001 0.000000e+000
    endloop
  endfacet
  facet normal 0.000000e+000 0.000000e+000 -1.000000e+000
    outer loop
      vertex   -2.027694e+001 6.794994e+001 0.000000e+000
      vertex   -2.464592e+001 7.041864e+001 0.000000e+000
      vertex   -1.600992e+001 7.041864e+001 0.000000e+000
    endloop
  endfacet
  facet normal 0.000000e+000 0.000000e+000 -1.000000e+000
    outer loop
      vertex   -2.027694e+001 6.794994e+001 0.000000e+000
      vertex   -1.600992e+001 7.041864e+001 0.000000e+000
      vertex   -2.007381e+001 6.793311e+001 0.000000e+000
    endloop
  endfacet
  facet normal 0.000000e+000 0.000000e+000 -1.000000e+000
    outer loop
      vertex   -2.007381e+001 6.793311e+001 0.000000e+000
      vertex   -1.600992e+001 7.041864e+001 0.000000e+000
      vertex   -1.987377e+001 6.789404e+001 0.000000e+000
    endloop
  endfacet
  facet normal 0.000000e+000 0.000000e+000 -1.000000e+000
    outer loop
      vertex   -1.987377e+001 6.789404e+001 0.000000e+000
      vertex   -1.600992e+001 7.041864e+001 0.000000e+000
      vertex   -1.967924e+001 6.783319e+001 0.000000e+000
    endloop
  endfacet
  facet normal 0.000000e+000 0.000000e+000 -1.000000e+000
    outer loop
      vertex   -1.967924e+001 6.783319e+001 0.000000e+000
      vertex   -1.600992e+001 7.041864e+001 0.000000e+000
      vertex   -1.949258e+001 6.775131e+001 0.000000e+000
    endloop
  endfacet
  facet normal 0.000000e+000 0.000000e+000 -1.000000e+000
    outer loop
      vertex   -1.949258e+001 6.775131e+001 0.000000e+000
      vertex   -1.600992e+001 7.041864e+001 0.000000e+000
      vertex   -1.931606e+001 6.764940e+001 0.000000e+000
    endloop
  endfacet
  facet normal 0.000000e+000 0.000000e+000 -1.000000e+000
    outer loop
      vertex   -1.931606e+001 6.764940e+001 0.000000e+000
      vertex   -1.600992e+001 7.041864e+001 0.000000e+000
      vertex   -1.915183e+001 6.752869e+001 0.000000e+000
    endloop
  endfacet
  facet normal 0.000000e+000 0.000000e+000 -1.000000e+000
    outer loop
      vertex   -1.915183e+001 6.752869e+001 0.000000e+000
      vertex   -1.600992e+001 7.041864e+001 0.000000e+000
      vertex   -1.900187e+001 6.739064e+001 0.000000e+000
    endloop
  endfacet
  facet normal 0.000000e+000 0.000000e+000 -1.000000e+000
    outer loop
      vertex   -1.900187e+001 6.739064e+001 0.000000e+000
      vertex   -1.600992e+001 7.041864e+001 0.000000e+000
      vertex   -1.886801e+001 6.723694e+001 0.000000e+000
    endloop
  endfacet
  facet normal 0.000000e+000 0.000000e+000 -1.000000e+000
    outer loop
      vertex   -1.886801e+001 6.723694e+001 0.000000e+000
      vertex   -1.600992e+001 7.041864e+001 0.000000e+000
      vertex   -1.875187e+001 6.706944e+001 0.000000e+000
    endloop
  endfacet
  facet normal 0.000000e+000 0.000000e+000 -1.000000e+000
    outer loop
      vertex   -1.875187e+001 6.706944e+001 0.000000e+000
      vertex   -1.600992e+001 7.041864e+001 0.000000e+000
      vertex   -1.865486e+001 6.689017e+001 0.000000e+000
    endloop
  endfacet
  facet normal 0.000000e+000 0.000000e+000 -1.000000e+000
    outer loop
      vertex   -1.865486e+001 6.689017e+001 0.000000e+000
      vertex   -1.600992e+001 7.041864e+001 0.000000e+000
      vertex   -1.857815e+001 6.670134e+001 0.000000e+000
    endloop
  endfacet
  facet normal 0.000000e+000 0.000000e+000 -1.000000e+000
    outer loop
      vertex   -1.857815e+001 6.670134e+001 0.000000e+000
      vertex   -1.600992e+001 7.041864e+001 0.000000e+000
      vertex   -1.852269e+001 6.650520e+001 0.000000e+000
    endloop
  endfacet
  facet normal 0.000000e+000 0.000000e+000 -1.000000e+000
    outer loop
      vertex   -1.852269e+001 6.650520e+001 0.000000e+000
      vertex   -1.600992e+001 7.041864e+001 0.000000e+000
      vertex   -1.848914e+001 6.630415e+001 0.000000e+000
    endloop
  endfacet
endsolid
