solid ascii
  facet normal 0.000000e+000 1.000000e+000 -0.000000e+000
    outer loop
      vertex   0.000000e+000 0.000000e+000 2.000000e+000
      vertex   -1.400000e+001 0.000000e+000 2.000000e+000
      vertex   0.000000e+000 0.000000e+000 6.000000e+000
    endloop
  endfacet
  facet normal 0.000000e+000 1.000000e+000 -0.000000e+000
    outer loop
      vertex   0.000000e+000 0.000000e+000 6.000000e+000
      vertex   -1.400000e+001 0.000000e+000 2.000000e+000
      vertex   -1.400000e+001 0.000000e+000 6.000000e+000
    endloop
  endfacet
  facet normal -1.000000e+000 0.000000e+000 0.000000e+000
    outer loop
      vertex   0.000000e+000 8.900000e+001 2.000000e+000
      vertex   0.000000e+000 4.450000e+001 2.000000e+000
      vertex   0.000000e+000 8.900000e+001 6.000000e+000
    endloop
  endfacet
  facet normal -1.000000e+000 -0.000000e+000 0.000000e+000
    outer loop
      vertex   0.000000e+000 8.900000e+001 6.000000e+000
      vertex   0.000000e+000 4.450000e+001 2.000000e+000
      vertex   0.000000e+000 4.450000e+001 6.000000e+000
    endloop
  endfacet
  facet normal -1.000000e+000 -0.000000e+000 -0.000000e+000
    outer loop
      vertex   0.000000e+000 4.450000e+001 6.000000e+000
      vertex   0.000000e+000 4.450000e+001 2.000000e+000
      vertex   0.000000e+000 0.000000e+000 2.000000e+000
    endloop
  endfacet
  facet normal -1.000000e+000 0.000000e+000 -0.000000e+000
    outer loop
      vertex   0.000000e+000 0.000000e+000 6.000000e+000
      vertex   0.000000e+000 4.450000e+001 6.000000e+000
      vertex   0.000000e+000 0.000000e+000 2.000000e+000
    endloop
  endfacet
  facet normal 0.000000e+000 -1.000000e+000 0.000000e+000
    outer loop
      vertex   -1.400000e+001 8.900000e+001 2.000000e+000
      vertex   0.000000e+000 8.900000e+001 2.000000e+000
      vertex   -1.400000e+001 8.900000e+001 6.000000e+000
    endloop
  endfacet
  facet normal 0.000000e+000 -1.000000e+000 0.000000e+000
    outer loop
      vertex   -1.400000e+001 8.900000e+001 6.000000e+000
      vertex   0.000000e+000 8.900000e+001 2.000000e+000
      vertex   0.000000e+000 8.900000e+001 6.000000e+000
    endloop
  endfacet
  facet normal 0.000000e+000 1.000000e+000 -0.000000e+000
    outer loop
      vertex   2.500000e+000 9.100000e+001 0.000000e+000
      vertex   -1.400000e+001 9.100000e+001 0.000000e+000
      vertex   2.500000e+000 9.100000e+001 6.000000e+000
    endloop
  endfacet
  facet normal 0.000000e+000 1.000000e+000 -0.000000e+000
    outer loop
      vertex   2.500000e+000 9.100000e+001 6.000000e+000
      vertex   -1.400000e+001 9.100000e+001 0.000000e+000
      vertex   -1.400000e+001 9.100000e+001 6.000000e+000
    endloop
  endfacet
  facet normal 1.000000e+000 0.000000e+000 -0.000000e+000
    outer loop
      vertex   2.500000e+000 -1.500000e+000 0.000000e+000
      vertex   2.500000e+000 4.475000e+001 0.000000e+000
      vertex   2.500000e+000 -1.500000e+000 6.000000e+000
    endloop
  endfacet
  facet normal 1.000000e+000 -0.000000e+000 0.000000e+000
    outer loop
      vertex   2.500000e+000 -1.500000e+000 6.000000e+000
      vertex   2.500000e+000 4.475000e+001 0.000000e+000
      vertex   2.500000e+000 4.475000e+001 6.000000e+000
    endloop
  endfacet
  facet normal 1.000000e+000 -0.000000e+000 0.000000e+000
    outer loop
      vertex   2.500000e+000 4.475000e+001 6.000000e+000
      vertex   2.500000e+000 4.475000e+001 0.000000e+000
      vertex   2.500000e+000 9.100000e+001 0.000000e+000
    endloop
  endfacet
  facet normal 1.000000e+000 0.000000e+000 0.000000e+000
    outer loop
      vertex   2.500000e+000 9.100000e+001 6.000000e+000
      vertex   2.500000e+000 4.475000e+001 6.000000e+000
      vertex   2.500000e+000 9.100000e+001 0.000000e+000
    endloop
  endfacet
  facet normal 0.000000e+000 -1.000000e+000 0.000000e+000
    outer loop
      vertex   -1.400000e+001 -1.500000e+000 0.000000e+000
      vertex   2.500000e+000 -1.500000e+000 0.000000e+000
      vertex   -1.400000e+001 -1.500000e+000 6.000000e+000
    endloop
  endfacet
  facet normal 0.000000e+000 -1.000000e+000 0.000000e+000
    outer loop
      vertex   -1.400000e+001 -1.500000e+000 6.000000e+000
      vertex   2.500000e+000 -1.500000e+000 0.000000e+000
      vertex   2.500000e+000 -1.500000e+000 6.000000e+000
    endloop
  endfacet
  facet normal -0.000000e+000 0.000000e+000 1.000000e+000
    outer loop
      vertex   -1.400000e+001 0.000000e+000 6.000000e+000
      vertex   -1.400000e+001 -1.500000e+000 6.000000e+000
      vertex   0.000000e+000 0.000000e+000 6.000000e+000
    endloop
  endfacet
  facet normal -0.000000e+000 0.000000e+000 1.000000e+000
    outer loop
      vertex   0.000000e+000 0.000000e+000 6.000000e+000
      vertex   -1.400000e+001 -1.500000e+000 6.000000e+000
      vertex   2.500000e+000 -1.500000e+000 6.000000e+000
    endloop
  endfacet
  facet normal 0.000000e+000 0.000000e+000 1.000000e+000
    outer loop
      vertex   2.500000e+000 4.475000e+001 6.000000e+000
      vertex   0.000000e+000 0.000000e+000 6.000000e+000
      vertex   2.500000e+000 -1.500000e+000 6.000000e+000
    endloop
  endfacet
  facet normal 0.000000e+000 0.000000e+000 1.000000e+000
    outer loop
      vertex   2.500000e+000 4.475000e+001 6.000000e+000
      vertex   0.000000e+000 4.450000e+001 6.000000e+000
      vertex   0.000000e+000 0.000000e+000 6.000000e+000
    endloop
  endfacet
  facet normal 0.000000e+000 0.000000e+000 1.000000e+000
    outer loop
      vertex   2.500000e+000 4.475000e+001 6.000000e+000
      vertex   0.000000e+000 8.900000e+001 6.000000e+000
      vertex   0.000000e+000 4.450000e+001 6.000000e+000
    endloop
  endfacet
  facet normal 0.000000e+000 -0.000000e+000 1.000000e+000
    outer loop
      vertex   2.500000e+000 4.475000e+001 6.000000e+000
      vertex   2.500000e+000 9.100000e+001 6.000000e+000
      vertex   0.000000e+000 8.900000e+001 6.000000e+000
    endloop
  endfacet
  facet normal 0.000000e+000 -0.000000e+000 1.000000e+000
    outer loop
      vertex   0.000000e+000 8.900000e+001 6.000000e+000
      vertex   2.500000e+000 9.100000e+001 6.000000e+000
      vertex   -1.400000e+001 9.100000e+001 6.000000e+000
    endloop
  endfacet
  facet normal 0.000000e+000 -0.000000e+000 1.000000e+000
    outer loop
      vertex   -1.400000e+001 8.900000e+001 6.000000e+000
      vertex   0.000000e+000 8.900000e+001 6.000000e+000
      vertex   -1.400000e+001 9.100000e+001 6.000000e+000
    endloop
  endfacet
  facet normal -1.000000e+000 -0.000000e+000 -0.000000e+000
    outer loop
      vertex   -1.400000e+001 9.100000e+001 6.000000e+000
      vertex   -1.400000e+001 9.100000e+001 0.000000e+000
      vertex   -1.400000e+001 8.900000e+001 2.000000e+000
    endloop
  endfacet
  facet normal -1.000000e+000 0.000000e+000 -0.000000e+000
    outer loop
      vertex   -1.400000e+001 8.900000e+001 6.000000e+000
      vertex   -1.400000e+001 9.100000e+001 6.000000e+000
      vertex   -1.400000e+001 8.900000e+001 2.000000e+000
    endloop
  endfacet
  facet normal -1.000000e+000 0.000000e+000 0.000000e+000
    outer loop
      vertex   -1.400000e+001 -1.500000e+000 0.000000e+000
      vertex   -1.400000e+001 0.000000e+000 2.000000e+000
      vertex   -1.400000e+001 4.475000e+001 0.000000e+000
    endloop
  endfacet
  facet normal -1.000000e+000 0.000000e+000 0.000000e+000
    outer loop
      vertex   -1.400000e+001 -1.500000e+000 0.000000e+000
      vertex   -1.400000e+001 -1.500000e+000 6.000000e+000
      vertex   -1.400000e+001 0.000000e+000 2.000000e+000
    endloop
  endfacet
  facet normal -1.000000e+000 0.000000e+000 0.000000e+000
    outer loop
      vertex   -1.400000e+001 0.000000e+000 2.000000e+000
      vertex   -1.400000e+001 -1.500000e+000 6.000000e+000
      vertex   -1.400000e+001 0.000000e+000 6.000000e+000
    endloop
  endfacet
  facet normal -1.000000e+000 0.000000e+000 0.000000e+000
    outer loop
      vertex   -1.400000e+001 0.000000e+000 2.000000e+000
      vertex   -1.400000e+001 4.450000e+001 2.000000e+000
      vertex   -1.400000e+001 4.475000e+001 0.000000e+000
    endloop
  endfacet
  facet normal -1.000000e+000 0.000000e+000 0.000000e+000
    outer loop
      vertex   -1.400000e+001 4.475000e+001 0.000000e+000
      vertex   -1.400000e+001 4.450000e+001 2.000000e+000
      vertex   -1.400000e+001 8.900000e+001 2.000000e+000
    endloop
  endfacet
  facet normal -1.000000e+000 0.000000e+000 0.000000e+000
    outer loop
      vertex   -1.400000e+001 9.100000e+001 0.000000e+000
      vertex   -1.400000e+001 4.475000e+001 0.000000e+000
      vertex   -1.400000e+001 8.900000e+001 2.000000e+000
    endloop
  endfacet
  facet normal 0.000000e+000 0.000000e+000 1.000000e+000
    outer loop
      vertex   0.000000e+000 8.900000e+001 2.000000e+000
      vertex   -1.400000e+001 8.900000e+001 2.000000e+000
      vertex   0.000000e+000 4.450000e+001 2.000000e+000
    endloop
  endfacet
  facet normal 0.000000e+000 0.000000e+000 1.000000e+000
    outer loop
      vertex   0.000000e+000 4.450000e+001 2.000000e+000
      vertex   -1.400000e+001 8.900000e+001 2.000000e+000
      vertex   -1.400000e+001 4.450000e+001 2.000000e+000
    endloop
  endfacet
  facet normal 0.000000e+000 0.000000e+000 1.000000e+000
    outer loop
      vertex   0.000000e+000 0.000000e+000 2.000000e+000
      vertex   -1.400000e+001 4.450000e+001 2.000000e+000
      vertex   -1.400000e+001 0.000000e+000 2.000000e+000
    endloop
  endfacet
  facet normal 0.000000e+000 -0.000000e+000 1.000000e+000
    outer loop
      vertex   0.000000e+000 0.000000e+000 2.000000e+000
      vertex   0.000000e+000 4.450000e+001 2.000000e+000
      vertex   -1.400000e+001 4.450000e+001 2.000000e+000
    endloop
  endfacet
  facet normal 0.000000e+000 0.000000e+000 -1.000000e+000
    outer loop
      vertex   2.500000e+000 -1.500000e+000 0.000000e+000
      vertex   -1.400000e+001 -1.500000e+000 0.000000e+000
      vertex   2.500000e+000 4.475000e+001 0.000000e+000
    endloop
  endfacet
  facet normal -0.000000e+000 0.000000e+000 -1.000000e+000
    outer loop
      vertex   2.500000e+000 4.475000e+001 0.000000e+000
      vertex   -1.400000e+001 -1.500000e+000 0.000000e+000
      vertex   -1.400000e+001 4.475000e+001 0.000000e+000
    endloop
  endfacet
  facet normal -0.000000e+000 0.000000e+000 -1.000000e+000
    outer loop
      vertex   2.500000e+000 9.100000e+001 0.000000e+000
      vertex   -1.400000e+001 4.475000e+001 0.000000e+000
      vertex   -1.400000e+001 9.100000e+001 0.000000e+000
    endloop
  endfacet
  facet normal 0.000000e+000 -0.000000e+000 -1.000000e+000
    outer loop
      vertex   2.500000e+000 9.100000e+001 0.000000e+000
      vertex   2.500000e+000 4.475000e+001 0.000000e+000
      vertex   -1.400000e+001 4.475000e+001 0.000000e+000
    endloop
  endfacet
endsolid
