<?xml version="1.0" encoding="UTF-8" standalone="no"?>
<svg
   xmlns:dc="http://purl.org/dc/elements/1.1/"
   xmlns:cc="http://creativecommons.org/ns#"
   xmlns:rdf="http://www.w3.org/1999/02/22-rdf-syntax-ns#"
   xmlns:svg="http://www.w3.org/2000/svg"
   xmlns="http://www.w3.org/2000/svg"
   xmlns:sodipodi="http://sodipodi.sourceforge.net/DTD/sodipodi-0.dtd"
   xmlns:inkscape="http://www.inkscape.org/namespaces/inkscape"
   width="43.331566pt"
   height="61.112801pt"
   viewBox="0 0 43.331566 61.112801"
   version="1.1"
   id="svg3403"
   inkscape:version="0.91 r13725"
   sodipodi:docname="layout_resize.svg">
  <metadata
     id="metadata3430">
    <rdf:RDF>
      <cc:Work
         rdf:about="">
        <dc:format>image/svg+xml</dc:format>
        <dc:type
           rdf:resource="http://purl.org/dc/dcmitype/StillImage" />
        <dc:title></dc:title>
      </cc:Work>
    </rdf:RDF>
  </metadata>
  <defs
     id="defs3428" />
  <sodipodi:namedview
     pagecolor="#ffffff"
     bordercolor="#666666"
     borderopacity="1"
     objecttolerance="10"
     gridtolerance="10"
     guidetolerance="10"
     inkscape:pageopacity="0"
     inkscape:pageshadow="2"
     inkscape:window-width="1920"
     inkscape:window-height="1015"
     id="namedview3426"
     showgrid="false"
     fit-margin-top="0"
     fit-margin-left="0"
     fit-margin-right="0"
     fit-margin-bottom="0"
     inkscape:zoom="3.4778947"
     inkscape:cx="-25.89225"
     inkscape:cy="37.851242"
     inkscape:window-x="0"
     inkscape:window-y="28"
     inkscape:window-maximized="1"
     inkscape:current-layer="svg3403" />
  <g
     id="surface5689"
     transform="matrix(0.35278,0,0,0.35278,-2.1663156,-2.8605412)">
    <path
       style="fill:#ff7d73;fill-opacity:1;fill-rule:evenodd;stroke:none"
       d="m 36.59375,29.925781 c 0,-5.757812 -8.640625,-5.757812 -8.640625,0 0,5.761719 8.640625,5.761719 8.640625,0"
       id="path3406"
       inkscape:connector-curvature="0" />
    <path
       style="fill:#ff7d73;fill-opacity:1;fill-rule:evenodd;stroke:none"
       d="m 36.59375,159.52734 c 0,-5.76172 -8.640625,-5.76172 -8.640625,0 0,5.75782 8.640625,5.75782 8.640625,0"
       id="path3408"
       inkscape:connector-curvature="0" />
    <path
       style="fill:#ff7d73;fill-opacity:1;fill-rule:evenodd;stroke:none"
       d="m 125.875,86.085938 c 0,-5.761719 -8.64062,-5.761719 -8.64062,0 0,5.761718 8.64062,5.761718 8.64062,0"
       id="path3410"
       inkscape:connector-curvature="0" />
    <path
       style="fill:none;stroke:#7373de;stroke-width:0.00590551;stroke-linecap:round;stroke-linejoin:miter;stroke-miterlimit:10;stroke-opacity:1"
       d="m 5.740001,-5.399984 0,2.400011"
       transform="matrix(72,0,0,-72,-284.52614,-207.67386)"
       id="path3412"
       inkscape:connector-curvature="0" />
    <path
       style="fill:none;stroke:#7373de;stroke-width:0.00590551;stroke-linecap:round;stroke-linejoin:miter;stroke-miterlimit:10;stroke-opacity:1"
       d="m 4.520003,-5.399984 1.219998,0"
       transform="matrix(72,0,0,-72,-284.52614,-207.67386)"
       id="path3414"
       inkscape:connector-curvature="0" />
    <path
       style="fill:none;stroke:#7373de;stroke-width:0.00590551;stroke-linecap:round;stroke-linejoin:miter;stroke-miterlimit:10;stroke-opacity:1"
       d="m 4.040022,-4.920004 0.479981,-0.47998"
       transform="matrix(72,0,0,-72,-284.52614,-207.67386)"
       id="path3416"
       inkscape:connector-curvature="0" />
    <path
       style="fill:none;stroke:#7373de;stroke-width:0.00590551;stroke-linecap:round;stroke-linejoin:miter;stroke-miterlimit:10;stroke-opacity:1"
       d="m 4.040022,-3.480008 0,-1.439996"
       transform="matrix(72,0,0,-72,-284.52614,-207.67386)"
       id="path3418"
       inkscape:connector-curvature="0" />
    <path
       style="fill:none;stroke:#7373de;stroke-width:0.00590551;stroke-linecap:round;stroke-linejoin:miter;stroke-miterlimit:10;stroke-opacity:1"
       d="m 4.520003,-2.999973 0.180013,0"
       transform="matrix(72,0,0,-72,-284.52614,-207.67386)"
       id="path3420"
       inkscape:connector-curvature="0" />
    <path
       style="fill:none;stroke:#7373de;stroke-width:0.00590551;stroke-linecap:round;stroke-linejoin:miter;stroke-miterlimit:10;stroke-opacity:1"
       d="m 4.040022,-3.480008 0.479981,0.480035"
       transform="matrix(72,0,0,-72,-284.52614,-207.67386)"
       id="path3422"
       inkscape:connector-curvature="0" />
    <path
       style="fill:none;stroke:#7373de;stroke-width:0.00590551;stroke-linecap:round;stroke-linejoin:miter;stroke-miterlimit:10;stroke-opacity:1"
       d="m 5.740001,-2.999973 -1.039985,0"
       transform="matrix(72,0,0,-72,-284.52614,-207.67386)"
       id="path3424"
       inkscape:connector-curvature="0" />
  </g>
</svg>
