<?xml version="1.0" encoding="UTF-8"?>
<svg xmlns="http://www.w3.org/2000/svg" xmlns:xlink="http://www.w3.org/1999/xlink" width="135pt" height="190pt" viewBox="0 0 135 190" version="1.1">
<g id="surface5689">
<path style=" stroke:none;fill-rule:evenodd;fill:rgb(100%,49.803922%,45.098039%);fill-opacity:1;" d="M 36.59375 29.925781 C 36.59375 24.167969 27.953125 24.167969 27.953125 29.925781 C 27.953125 35.6875 36.59375 35.6875 36.59375 29.925781 "/>
<path style=" stroke:none;fill-rule:evenodd;fill:rgb(100%,49.803922%,45.098039%);fill-opacity:1;" d="M 36.59375 159.527344 C 36.59375 153.765625 27.953125 153.765625 27.953125 159.527344 C 27.953125 165.285156 36.59375 165.285156 36.59375 159.527344 "/>
<path style=" stroke:none;fill-rule:evenodd;fill:rgb(100%,49.803922%,45.098039%);fill-opacity:1;" d="M 125.875 86.085938 C 125.875 80.324219 117.234375 80.324219 117.234375 86.085938 C 117.234375 91.847656 125.875 91.847656 125.875 86.085938 "/>
<path style="fill:none;stroke-width:0.00590551;stroke-linecap:round;stroke-linejoin:miter;stroke:rgb(45.098039%,45.098039%,87.058824%);stroke-opacity:1;stroke-miterlimit:10;" d="M 5.740001 -5.399984 L 5.740001 -2.999973 " transform="matrix(72,0,0,-72,-284.526142,-207.673858)"/>
<path style="fill:none;stroke-width:0.00590551;stroke-linecap:round;stroke-linejoin:miter;stroke:rgb(45.098039%,45.098039%,87.058824%);stroke-opacity:1;stroke-miterlimit:10;" d="M 4.520003 -5.399984 L 5.740001 -5.399984 " transform="matrix(72,0,0,-72,-284.526142,-207.673858)"/>
<path style="fill:none;stroke-width:0.00590551;stroke-linecap:round;stroke-linejoin:miter;stroke:rgb(45.098039%,45.098039%,87.058824%);stroke-opacity:1;stroke-miterlimit:10;" d="M 4.040022 -4.920004 L 4.520003 -5.399984 " transform="matrix(72,0,0,-72,-284.526142,-207.673858)"/>
<path style="fill:none;stroke-width:0.00590551;stroke-linecap:round;stroke-linejoin:miter;stroke:rgb(45.098039%,45.098039%,87.058824%);stroke-opacity:1;stroke-miterlimit:10;" d="M 4.040022 -3.480008 L 4.040022 -4.920004 " transform="matrix(72,0,0,-72,-284.526142,-207.673858)"/>
<path style="fill:none;stroke-width:0.00590551;stroke-linecap:round;stroke-linejoin:miter;stroke:rgb(45.098039%,45.098039%,87.058824%);stroke-opacity:1;stroke-miterlimit:10;" d="M 4.520003 -2.999973 L 4.700016 -2.999973 " transform="matrix(72,0,0,-72,-284.526142,-207.673858)"/>
<path style="fill:none;stroke-width:0.00590551;stroke-linecap:round;stroke-linejoin:miter;stroke:rgb(45.098039%,45.098039%,87.058824%);stroke-opacity:1;stroke-miterlimit:10;" d="M 4.040022 -3.480008 L 4.520003 -2.999973 " transform="matrix(72,0,0,-72,-284.526142,-207.673858)"/>
<path style="fill:none;stroke-width:0.00590551;stroke-linecap:round;stroke-linejoin:miter;stroke:rgb(45.098039%,45.098039%,87.058824%);stroke-opacity:1;stroke-miterlimit:10;" d="M 5.740001 -2.999973 L 4.700016 -2.999973 " transform="matrix(72,0,0,-72,-284.526142,-207.673858)"/>
</g>
</svg>
