M48
;DRILL file {KiCad 4.0.0-rc2-stable} date 11/27/2015 8:53:51 PM
;FORMAT={-:-/ absolute / inch / decimal}
FMAT,2
INCH,TZ
T1C0.016
T2C0.031
T3C0.032
T4C0.040
T5C0.120
%
G90
G05
M72
T1
X4.32Y-3.76
X4.4Y-4.1
X4.44Y-3.76
T2
X4.1Y-3.55
X4.1Y-3.65
X4.1Y-3.75
X4.1Y-3.85
X4.1Y-3.95
X4.1Y-4.05
X4.1Y-4.15
X4.1Y-4.25
X4.1Y-4.35
X4.1Y-4.45
X4.1Y-4.55
X4.1Y-4.65
X4.1Y-4.75
X4.1Y-4.85
X4.7Y-3.55
X4.7Y-3.65
X4.7Y-3.75
X4.7Y-3.85
X4.7Y-3.95
X4.7Y-4.05
X4.7Y-4.15
X4.7Y-4.25
X4.7Y-4.35
X4.7Y-4.45
X4.7Y-4.55
X4.7Y-4.65
X4.7Y-4.75
X4.7Y-4.85
X4.76Y-3.1016
X4.76Y-3.2
X4.76Y-5.18
X4.76Y-5.2784
X4.95Y-3.1
X4.95Y-3.2
X4.95Y-3.3
X4.95Y-3.4
X4.95Y-3.5
X4.95Y-3.6
X4.95Y-3.7
X4.95Y-3.8
X4.95Y-3.9
X4.95Y-4.
X4.95Y-4.375
X4.95Y-4.475
X4.95Y-4.575
X4.95Y-4.675
X4.95Y-4.775
X4.95Y-4.875
X4.95Y-4.975
X4.95Y-5.075
X4.95Y-5.175
X4.95Y-5.275
X5.25Y-3.1
X5.25Y-3.2
X5.25Y-3.3
X5.25Y-3.4
X5.25Y-3.5
X5.25Y-3.6
X5.25Y-3.7
X5.25Y-3.8
X5.25Y-3.9
X5.25Y-4.
X5.25Y-4.375
X5.25Y-4.475
X5.25Y-4.575
X5.25Y-4.675
X5.25Y-4.775
X5.25Y-4.875
X5.25Y-4.975
X5.25Y-5.075
X5.25Y-5.175
X5.25Y-5.275
T3
X5.3439Y-3.2561
X5.3439Y-3.3811
X5.3439Y-3.5061
X5.3439Y-3.6311
X5.3439Y-3.7561
X5.3439Y-3.8811
X5.3439Y-4.0061
X5.3439Y-4.1311
X5.3439Y-4.4561
X5.3439Y-4.5811
X5.3439Y-4.7061
X5.3439Y-4.8311
X5.3439Y-4.9561
X5.3439Y-5.0811
X5.3439Y-5.2061
X5.3439Y-5.3311
X5.5561Y-3.0439
X5.5561Y-3.1689
X5.5561Y-3.2939
X5.5561Y-3.4189
X5.5561Y-3.5439
X5.5561Y-3.6689
X5.5561Y-3.7939
X5.5561Y-3.9189
X5.5561Y-4.2439
X5.5561Y-4.3689
X5.5561Y-4.4939
X5.5561Y-4.6189
X5.5561Y-4.7439
X5.5561Y-4.8689
X5.5561Y-4.9939
X5.5561Y-5.1189
T4
X5.675Y-3.075
X5.675Y-3.175
X5.675Y-3.275
X5.675Y-3.375
X5.675Y-3.475
X5.675Y-3.575
X5.675Y-3.675
X5.675Y-3.775
X5.675Y-3.875
X5.675Y-4.275
X5.675Y-4.375
X5.675Y-4.475
X5.675Y-4.575
X5.675Y-4.675
X5.675Y-4.775
X5.675Y-4.875
X5.675Y-4.975
X5.675Y-5.075
T5
X4.4Y-3.3
X4.4Y-5.1
X5.64Y-4.08
T0
M30
