G04 #@! TF.FileFunction,Copper,L2,Bot,Signal*
%FSLAX46Y46*%
G04 Gerber Fmt 4.6, Leading zero omitted, Abs format (unit mm)*
G04 Created by KiCad (PCBNEW (2015-09-22 BZR 6208)-product) date 10/22/2015 10:46:09 PM*
%MOMM*%
G01*
G04 APERTURE LIST*
%ADD10C,0.100000*%
%ADD11R,1.300000X1.300000*%
%ADD12C,1.300000*%
%ADD13C,1.397000*%
%ADD14C,1.900000*%
%ADD15O,2.300000X1.600000*%
%ADD16R,2.032000X1.727200*%
%ADD17O,2.032000X1.727200*%
%ADD18C,4.064000*%
%ADD19C,0.600000*%
%ADD20C,0.250000*%
G04 APERTURE END LIST*
D10*
D11*
X120904000Y-81280000D03*
D12*
X120904000Y-78780000D03*
D13*
X135735923Y-82704077D03*
X141124077Y-77315923D03*
X135735923Y-85879077D03*
X141124077Y-80490923D03*
X135735923Y-89054077D03*
X141124077Y-83665923D03*
X135735923Y-92229077D03*
X141124077Y-86840923D03*
X135735923Y-95404077D03*
X141124077Y-90015923D03*
X135735923Y-98579077D03*
X141124077Y-93190923D03*
X135735923Y-101754077D03*
X141124077Y-96365923D03*
X135735923Y-104929077D03*
X141124077Y-99540923D03*
X135735923Y-113184077D03*
X141124077Y-107795923D03*
X135735923Y-116359077D03*
X141124077Y-110970923D03*
X135735923Y-119534077D03*
X141124077Y-114145923D03*
X135735923Y-122709077D03*
X141124077Y-117320923D03*
X135735923Y-125884077D03*
X141124077Y-120495923D03*
X135735923Y-129059077D03*
X141124077Y-123670923D03*
X135735923Y-132234077D03*
X141124077Y-126845923D03*
X135735923Y-135409077D03*
X141124077Y-130020923D03*
D14*
X104140000Y-92710000D03*
X104140000Y-95250000D03*
X104140000Y-97790000D03*
X104140000Y-100330000D03*
X104140000Y-102870000D03*
X104140000Y-105410000D03*
X104140000Y-107950000D03*
X104140000Y-110490000D03*
X104140000Y-113030000D03*
X104140000Y-115570000D03*
X104140000Y-118110000D03*
X104140000Y-120650000D03*
X104140000Y-123190000D03*
X119380000Y-123190000D03*
X119380000Y-120650000D03*
X119380000Y-118110000D03*
X119380000Y-115570000D03*
X119380000Y-113030000D03*
X119380000Y-110490000D03*
X119380000Y-107950000D03*
X119380000Y-105410000D03*
X119380000Y-102870000D03*
X119380000Y-100330000D03*
X119380000Y-97790000D03*
X119380000Y-95250000D03*
X119380000Y-92710000D03*
X119380000Y-90170000D03*
X104140000Y-90170000D03*
D15*
X125730000Y-78740000D03*
X125730000Y-81280000D03*
X125730000Y-83820000D03*
X125730000Y-86360000D03*
X125730000Y-88900000D03*
X125730000Y-91440000D03*
X125730000Y-93980000D03*
X125730000Y-96520000D03*
X125730000Y-99060000D03*
X125730000Y-101600000D03*
X133350000Y-101600000D03*
X133350000Y-99060000D03*
X133350000Y-96520000D03*
X133350000Y-93980000D03*
X133350000Y-91440000D03*
X133350000Y-88900000D03*
X133350000Y-86360000D03*
X133350000Y-83820000D03*
X133350000Y-81280000D03*
X133350000Y-78740000D03*
X125730000Y-111125000D03*
X125730000Y-113665000D03*
X125730000Y-116205000D03*
X125730000Y-118745000D03*
X125730000Y-121285000D03*
X125730000Y-123825000D03*
X125730000Y-126365000D03*
X125730000Y-128905000D03*
X125730000Y-131445000D03*
X125730000Y-133985000D03*
X133350000Y-133985000D03*
X133350000Y-131445000D03*
X133350000Y-128905000D03*
X133350000Y-126365000D03*
X133350000Y-123825000D03*
X133350000Y-121285000D03*
X133350000Y-118745000D03*
X133350000Y-116205000D03*
X133350000Y-113665000D03*
X133350000Y-111125000D03*
D16*
X144145000Y-108585000D03*
D17*
X144145000Y-111125000D03*
X144145000Y-113665000D03*
X144145000Y-116205000D03*
X144145000Y-118745000D03*
X144145000Y-121285000D03*
X144145000Y-123825000D03*
X144145000Y-126365000D03*
X144145000Y-128905000D03*
D16*
X144145000Y-78105000D03*
D17*
X144145000Y-80645000D03*
X144145000Y-83185000D03*
X144145000Y-85725000D03*
X144145000Y-88265000D03*
X144145000Y-90805000D03*
X144145000Y-93345000D03*
X144145000Y-95885000D03*
X144145000Y-98425000D03*
D11*
X120904000Y-131572000D03*
D12*
X120904000Y-134072000D03*
D18*
X111760000Y-83820000D03*
X111760000Y-129540000D03*
X143256000Y-103632000D03*
D19*
X109728000Y-95504000D03*
X112776000Y-95504000D03*
X111760000Y-104140000D03*
D20*
X116840000Y-91440000D02*
X112776000Y-95504000D01*
X119380000Y-81280000D02*
X120904000Y-81280000D01*
X109220000Y-91440000D02*
X119380000Y-81280000D01*
X109220000Y-94996000D02*
X109220000Y-91440000D01*
X109728000Y-95504000D02*
X109220000Y-94996000D01*
X125730000Y-78740000D02*
X125984000Y-78740000D01*
X125984000Y-78740000D02*
X131064000Y-83820000D01*
X131064000Y-105791000D02*
X125730000Y-111125000D01*
X131064000Y-83820000D02*
X131064000Y-105791000D01*
X119380000Y-90170000D02*
X118110000Y-90170000D01*
X116840000Y-127508000D02*
X120904000Y-131572000D01*
X116840000Y-91440000D02*
X116840000Y-127508000D01*
X118110000Y-90170000D02*
X116840000Y-91440000D01*
X120904000Y-81280000D02*
X123190000Y-81280000D01*
X123190000Y-81280000D02*
X125730000Y-78740000D01*
X120904000Y-131572000D02*
X122428000Y-131572000D01*
X129540000Y-114935000D02*
X125730000Y-111125000D01*
X129540000Y-132588000D02*
X129540000Y-114935000D01*
X126492000Y-135636000D02*
X129540000Y-132588000D01*
X124968000Y-135636000D02*
X126492000Y-135636000D01*
X123444000Y-134112000D02*
X124968000Y-135636000D01*
X123444000Y-132588000D02*
X123444000Y-134112000D01*
X122428000Y-131572000D02*
X123444000Y-132588000D01*
X133350000Y-78740000D02*
X125730000Y-78740000D01*
X133350000Y-111125000D02*
X125730000Y-111125000D01*
X144145000Y-128905000D02*
X143383000Y-128905000D01*
X125730000Y-91440000D02*
X123825000Y-89535000D01*
X111760000Y-95250000D02*
X111760000Y-104140000D01*
X119380000Y-87630000D02*
X111760000Y-95250000D01*
X123190000Y-87630000D02*
X119380000Y-87630000D01*
X123825000Y-88265000D02*
X123190000Y-87630000D01*
X123825000Y-89535000D02*
X123825000Y-88265000D01*
X125730000Y-86360000D02*
X118110000Y-86360000D01*
X107950000Y-110490000D02*
X104140000Y-110490000D01*
X110490000Y-107950000D02*
X107950000Y-110490000D01*
X110490000Y-93980000D02*
X110490000Y-107950000D01*
X118110000Y-86360000D02*
X110490000Y-93980000D01*
X125730000Y-88900000D02*
X123825000Y-86995000D01*
X107950000Y-113030000D02*
X104140000Y-113030000D01*
X111125000Y-109855000D02*
X107950000Y-113030000D01*
X111125000Y-94615000D02*
X111125000Y-109855000D01*
X118745000Y-86995000D02*
X111125000Y-94615000D01*
X123825000Y-86995000D02*
X118745000Y-86995000D01*
X125730000Y-126365000D02*
X122555000Y-126365000D01*
X122555000Y-126365000D02*
X119380000Y-123190000D01*
X125730000Y-83820000D02*
X127635000Y-83820000D01*
X121285000Y-118745000D02*
X119380000Y-120650000D01*
X121285000Y-107315000D02*
X121285000Y-118745000D01*
X122555000Y-106045000D02*
X121285000Y-107315000D01*
X128905000Y-106045000D02*
X122555000Y-106045000D01*
X130175000Y-104775000D02*
X128905000Y-106045000D01*
X130175000Y-86360000D02*
X130175000Y-104775000D01*
X127635000Y-83820000D02*
X130175000Y-86360000D01*
X119380000Y-105410000D02*
X128270000Y-105410000D01*
X127000000Y-93980000D02*
X125730000Y-93980000D01*
X129540000Y-96520000D02*
X127000000Y-93980000D01*
X129540000Y-104140000D02*
X129540000Y-96520000D01*
X128270000Y-105410000D02*
X129540000Y-104140000D01*
X125730000Y-96520000D02*
X128270000Y-96520000D01*
X120650000Y-104140000D02*
X119380000Y-102870000D01*
X127635000Y-104140000D02*
X120650000Y-104140000D01*
X128905000Y-102870000D02*
X127635000Y-104140000D01*
X128905000Y-97155000D02*
X128905000Y-102870000D01*
X128270000Y-96520000D02*
X128905000Y-97155000D01*
M02*
