G04 #@! TF.FileFunction,Legend,Top*
%FSLAX46Y46*%
G04 Gerber Fmt 4.6, Leading zero omitted, Abs format (unit mm)*
G04 Created by KiCad (PCBNEW (2015-09-22 BZR 6208)-product) date 10/22/2015 10:46:09 PM*
%MOMM*%
G01*
G04 APERTURE LIST*
%ADD10C,0.100000*%
%ADD11C,0.150000*%
G04 APERTURE END LIST*
D10*
D11*
X118405000Y-79955000D02*
X123403000Y-79955000D01*
X118413000Y-79815000D02*
X123395000Y-79815000D01*
X118429000Y-79675000D02*
X120809000Y-79675000D01*
X120999000Y-79675000D02*
X123379000Y-79675000D01*
X118453000Y-79535000D02*
X120414000Y-79535000D01*
X121394000Y-79535000D02*
X123355000Y-79535000D01*
X118486000Y-79395000D02*
X120247000Y-79395000D01*
X121561000Y-79395000D02*
X123322000Y-79395000D01*
X118527000Y-79255000D02*
X120140000Y-79255000D01*
X121668000Y-79255000D02*
X123281000Y-79255000D01*
X118577000Y-79115000D02*
X120069000Y-79115000D01*
X121739000Y-79115000D02*
X123231000Y-79115000D01*
X118638000Y-78975000D02*
X120025000Y-78975000D01*
X121783000Y-78975000D02*
X123170000Y-78975000D01*
X118708000Y-78835000D02*
X120006000Y-78835000D01*
X121802000Y-78835000D02*
X123100000Y-78835000D01*
X118790000Y-78695000D02*
X120008000Y-78695000D01*
X121800000Y-78695000D02*
X123018000Y-78695000D01*
X118885000Y-78555000D02*
X120033000Y-78555000D01*
X121775000Y-78555000D02*
X122923000Y-78555000D01*
X118996000Y-78415000D02*
X120081000Y-78415000D01*
X121727000Y-78415000D02*
X122812000Y-78415000D01*
X119124000Y-78275000D02*
X120159000Y-78275000D01*
X121649000Y-78275000D02*
X122684000Y-78275000D01*
X119273000Y-78135000D02*
X120276000Y-78135000D01*
X121532000Y-78135000D02*
X122535000Y-78135000D01*
X119452000Y-77995000D02*
X120464000Y-77995000D01*
X121344000Y-77995000D02*
X122356000Y-77995000D01*
X119671000Y-77855000D02*
X122137000Y-77855000D01*
X119960000Y-77715000D02*
X121848000Y-77715000D01*
X120432000Y-77575000D02*
X121376000Y-77575000D01*
X121804000Y-78780000D02*
G75*
G03X121804000Y-78780000I-900000J0D01*
G01*
X123441500Y-80030000D02*
G75*
G03X123441500Y-80030000I-2537500J0D01*
G01*
X135735923Y-82704077D02*
X136095133Y-82344867D01*
X141124077Y-77315923D02*
X140764867Y-77675133D01*
X140764867Y-77675133D02*
X140046446Y-76956713D01*
X140046446Y-76956713D02*
X135376713Y-81626446D01*
X135376713Y-81626446D02*
X136813554Y-83063287D01*
X136813554Y-83063287D02*
X141483287Y-78393554D01*
X141483287Y-78393554D02*
X140764867Y-77675133D01*
X135735923Y-81985656D02*
X135735923Y-81267236D01*
X135735923Y-85879077D02*
X136095133Y-85519867D01*
X141124077Y-80490923D02*
X140764867Y-80850133D01*
X140764867Y-80850133D02*
X140046446Y-80131713D01*
X140046446Y-80131713D02*
X135376713Y-84801446D01*
X135376713Y-84801446D02*
X136813554Y-86238287D01*
X136813554Y-86238287D02*
X141483287Y-81568554D01*
X141483287Y-81568554D02*
X140764867Y-80850133D01*
X135735923Y-85160656D02*
X135735923Y-84442236D01*
X135735923Y-89054077D02*
X136095133Y-88694867D01*
X141124077Y-83665923D02*
X140764867Y-84025133D01*
X140764867Y-84025133D02*
X140046446Y-83306713D01*
X140046446Y-83306713D02*
X135376713Y-87976446D01*
X135376713Y-87976446D02*
X136813554Y-89413287D01*
X136813554Y-89413287D02*
X141483287Y-84743554D01*
X141483287Y-84743554D02*
X140764867Y-84025133D01*
X135735923Y-88335656D02*
X135735923Y-87617236D01*
X135735923Y-92229077D02*
X136095133Y-91869867D01*
X141124077Y-86840923D02*
X140764867Y-87200133D01*
X140764867Y-87200133D02*
X140046446Y-86481713D01*
X140046446Y-86481713D02*
X135376713Y-91151446D01*
X135376713Y-91151446D02*
X136813554Y-92588287D01*
X136813554Y-92588287D02*
X141483287Y-87918554D01*
X141483287Y-87918554D02*
X140764867Y-87200133D01*
X135735923Y-91510656D02*
X135735923Y-90792236D01*
X135735923Y-95404077D02*
X136095133Y-95044867D01*
X141124077Y-90015923D02*
X140764867Y-90375133D01*
X140764867Y-90375133D02*
X140046446Y-89656713D01*
X140046446Y-89656713D02*
X135376713Y-94326446D01*
X135376713Y-94326446D02*
X136813554Y-95763287D01*
X136813554Y-95763287D02*
X141483287Y-91093554D01*
X141483287Y-91093554D02*
X140764867Y-90375133D01*
X135735923Y-94685656D02*
X135735923Y-93967236D01*
X135735923Y-98579077D02*
X136095133Y-98219867D01*
X141124077Y-93190923D02*
X140764867Y-93550133D01*
X140764867Y-93550133D02*
X140046446Y-92831713D01*
X140046446Y-92831713D02*
X135376713Y-97501446D01*
X135376713Y-97501446D02*
X136813554Y-98938287D01*
X136813554Y-98938287D02*
X141483287Y-94268554D01*
X141483287Y-94268554D02*
X140764867Y-93550133D01*
X135735923Y-97860656D02*
X135735923Y-97142236D01*
X135735923Y-101754077D02*
X136095133Y-101394867D01*
X141124077Y-96365923D02*
X140764867Y-96725133D01*
X140764867Y-96725133D02*
X140046446Y-96006713D01*
X140046446Y-96006713D02*
X135376713Y-100676446D01*
X135376713Y-100676446D02*
X136813554Y-102113287D01*
X136813554Y-102113287D02*
X141483287Y-97443554D01*
X141483287Y-97443554D02*
X140764867Y-96725133D01*
X135735923Y-101035656D02*
X135735923Y-100317236D01*
X135735923Y-104929077D02*
X136095133Y-104569867D01*
X141124077Y-99540923D02*
X140764867Y-99900133D01*
X140764867Y-99900133D02*
X140046446Y-99181713D01*
X140046446Y-99181713D02*
X135376713Y-103851446D01*
X135376713Y-103851446D02*
X136813554Y-105288287D01*
X136813554Y-105288287D02*
X141483287Y-100618554D01*
X141483287Y-100618554D02*
X140764867Y-99900133D01*
X135735923Y-104210656D02*
X135735923Y-103492236D01*
X135735923Y-113184077D02*
X136095133Y-112824867D01*
X141124077Y-107795923D02*
X140764867Y-108155133D01*
X140764867Y-108155133D02*
X140046446Y-107436713D01*
X140046446Y-107436713D02*
X135376713Y-112106446D01*
X135376713Y-112106446D02*
X136813554Y-113543287D01*
X136813554Y-113543287D02*
X141483287Y-108873554D01*
X141483287Y-108873554D02*
X140764867Y-108155133D01*
X135735923Y-112465656D02*
X135735923Y-111747236D01*
X135735923Y-116359077D02*
X136095133Y-115999867D01*
X141124077Y-110970923D02*
X140764867Y-111330133D01*
X140764867Y-111330133D02*
X140046446Y-110611713D01*
X140046446Y-110611713D02*
X135376713Y-115281446D01*
X135376713Y-115281446D02*
X136813554Y-116718287D01*
X136813554Y-116718287D02*
X141483287Y-112048554D01*
X141483287Y-112048554D02*
X140764867Y-111330133D01*
X135735923Y-115640656D02*
X135735923Y-114922236D01*
X135735923Y-119534077D02*
X136095133Y-119174867D01*
X141124077Y-114145923D02*
X140764867Y-114505133D01*
X140764867Y-114505133D02*
X140046446Y-113786713D01*
X140046446Y-113786713D02*
X135376713Y-118456446D01*
X135376713Y-118456446D02*
X136813554Y-119893287D01*
X136813554Y-119893287D02*
X141483287Y-115223554D01*
X141483287Y-115223554D02*
X140764867Y-114505133D01*
X135735923Y-118815656D02*
X135735923Y-118097236D01*
X135735923Y-122709077D02*
X136095133Y-122349867D01*
X141124077Y-117320923D02*
X140764867Y-117680133D01*
X140764867Y-117680133D02*
X140046446Y-116961713D01*
X140046446Y-116961713D02*
X135376713Y-121631446D01*
X135376713Y-121631446D02*
X136813554Y-123068287D01*
X136813554Y-123068287D02*
X141483287Y-118398554D01*
X141483287Y-118398554D02*
X140764867Y-117680133D01*
X135735923Y-121990656D02*
X135735923Y-121272236D01*
X135735923Y-125884077D02*
X136095133Y-125524867D01*
X141124077Y-120495923D02*
X140764867Y-120855133D01*
X140764867Y-120855133D02*
X140046446Y-120136713D01*
X140046446Y-120136713D02*
X135376713Y-124806446D01*
X135376713Y-124806446D02*
X136813554Y-126243287D01*
X136813554Y-126243287D02*
X141483287Y-121573554D01*
X141483287Y-121573554D02*
X140764867Y-120855133D01*
X135735923Y-125165656D02*
X135735923Y-124447236D01*
X135735923Y-129059077D02*
X136095133Y-128699867D01*
X141124077Y-123670923D02*
X140764867Y-124030133D01*
X140764867Y-124030133D02*
X140046446Y-123311713D01*
X140046446Y-123311713D02*
X135376713Y-127981446D01*
X135376713Y-127981446D02*
X136813554Y-129418287D01*
X136813554Y-129418287D02*
X141483287Y-124748554D01*
X141483287Y-124748554D02*
X140764867Y-124030133D01*
X135735923Y-128340656D02*
X135735923Y-127622236D01*
X135735923Y-132234077D02*
X136095133Y-131874867D01*
X141124077Y-126845923D02*
X140764867Y-127205133D01*
X140764867Y-127205133D02*
X140046446Y-126486713D01*
X140046446Y-126486713D02*
X135376713Y-131156446D01*
X135376713Y-131156446D02*
X136813554Y-132593287D01*
X136813554Y-132593287D02*
X141483287Y-127923554D01*
X141483287Y-127923554D02*
X140764867Y-127205133D01*
X135735923Y-131515656D02*
X135735923Y-130797236D01*
X135735923Y-135409077D02*
X136095133Y-135049867D01*
X141124077Y-130020923D02*
X140764867Y-130380133D01*
X140764867Y-130380133D02*
X140046446Y-129661713D01*
X140046446Y-129661713D02*
X135376713Y-134331446D01*
X135376713Y-134331446D02*
X136813554Y-135768287D01*
X136813554Y-135768287D02*
X141483287Y-131098554D01*
X141483287Y-131098554D02*
X140764867Y-130380133D01*
X135735923Y-134690656D02*
X135735923Y-133972236D01*
X116840000Y-90170000D02*
X116840000Y-120650000D01*
X116840000Y-120650000D02*
X106680000Y-120650000D01*
X106680000Y-120650000D02*
X106680000Y-90170000D01*
X106680000Y-90170000D02*
X116840000Y-90170000D01*
X125865000Y-76445000D02*
X125865000Y-77715000D01*
X133215000Y-76445000D02*
X133215000Y-77715000D01*
X133215000Y-103895000D02*
X133215000Y-102625000D01*
X125865000Y-103895000D02*
X125865000Y-102625000D01*
X125865000Y-76445000D02*
X133215000Y-76445000D01*
X125865000Y-103895000D02*
X133215000Y-103895000D01*
X125865000Y-77715000D02*
X124580000Y-77715000D01*
X125865000Y-108830000D02*
X125865000Y-110100000D01*
X133215000Y-108830000D02*
X133215000Y-110100000D01*
X133215000Y-136280000D02*
X133215000Y-135010000D01*
X125865000Y-136280000D02*
X125865000Y-135010000D01*
X125865000Y-108830000D02*
X133215000Y-108830000D01*
X125865000Y-136280000D02*
X133215000Y-136280000D01*
X125865000Y-110100000D02*
X124580000Y-110100000D01*
X142875000Y-109855000D02*
X142875000Y-130175000D01*
X142875000Y-130175000D02*
X145415000Y-130175000D01*
X145415000Y-130175000D02*
X145415000Y-109855000D01*
X142595000Y-107035000D02*
X142595000Y-108585000D01*
X142875000Y-109855000D02*
X145415000Y-109855000D01*
X145695000Y-108585000D02*
X145695000Y-107035000D01*
X145695000Y-107035000D02*
X142595000Y-107035000D01*
X142875000Y-79375000D02*
X142875000Y-99695000D01*
X142875000Y-99695000D02*
X145415000Y-99695000D01*
X145415000Y-99695000D02*
X145415000Y-79375000D01*
X142595000Y-76555000D02*
X142595000Y-78105000D01*
X142875000Y-79375000D02*
X145415000Y-79375000D01*
X145695000Y-78105000D02*
X145695000Y-76555000D01*
X145695000Y-76555000D02*
X142595000Y-76555000D01*
X123403000Y-132897000D02*
X118405000Y-132897000D01*
X123395000Y-133037000D02*
X118413000Y-133037000D01*
X123379000Y-133177000D02*
X120999000Y-133177000D01*
X120809000Y-133177000D02*
X118429000Y-133177000D01*
X123355000Y-133317000D02*
X121394000Y-133317000D01*
X120414000Y-133317000D02*
X118453000Y-133317000D01*
X123322000Y-133457000D02*
X121561000Y-133457000D01*
X120247000Y-133457000D02*
X118486000Y-133457000D01*
X123281000Y-133597000D02*
X121668000Y-133597000D01*
X120140000Y-133597000D02*
X118527000Y-133597000D01*
X123231000Y-133737000D02*
X121739000Y-133737000D01*
X120069000Y-133737000D02*
X118577000Y-133737000D01*
X123170000Y-133877000D02*
X121783000Y-133877000D01*
X120025000Y-133877000D02*
X118638000Y-133877000D01*
X123100000Y-134017000D02*
X121802000Y-134017000D01*
X120006000Y-134017000D02*
X118708000Y-134017000D01*
X123018000Y-134157000D02*
X121800000Y-134157000D01*
X120008000Y-134157000D02*
X118790000Y-134157000D01*
X122923000Y-134297000D02*
X121775000Y-134297000D01*
X120033000Y-134297000D02*
X118885000Y-134297000D01*
X122812000Y-134437000D02*
X121727000Y-134437000D01*
X120081000Y-134437000D02*
X118996000Y-134437000D01*
X122684000Y-134577000D02*
X121649000Y-134577000D01*
X120159000Y-134577000D02*
X119124000Y-134577000D01*
X122535000Y-134717000D02*
X121532000Y-134717000D01*
X120276000Y-134717000D02*
X119273000Y-134717000D01*
X122356000Y-134857000D02*
X121344000Y-134857000D01*
X120464000Y-134857000D02*
X119452000Y-134857000D01*
X122137000Y-134997000D02*
X119671000Y-134997000D01*
X121848000Y-135137000D02*
X119960000Y-135137000D01*
X121376000Y-135277000D02*
X120432000Y-135277000D01*
X121804000Y-134072000D02*
G75*
G03X121804000Y-134072000I-900000J0D01*
G01*
X123441500Y-132822000D02*
G75*
G03X123441500Y-132822000I-2537500J0D01*
G01*
X114046000Y-83820000D02*
G75*
G03X114046000Y-83820000I-2286000J0D01*
G01*
X114046000Y-129540000D02*
G75*
G03X114046000Y-129540000I-2286000J0D01*
G01*
X145542000Y-103632000D02*
G75*
G03X145542000Y-103632000I-2286000J0D01*
G01*
X110617143Y-93158571D02*
X110617143Y-94372857D01*
X110688571Y-94515714D01*
X110760000Y-94587143D01*
X110902857Y-94658571D01*
X111188571Y-94658571D01*
X111331429Y-94587143D01*
X111402857Y-94515714D01*
X111474286Y-94372857D01*
X111474286Y-93158571D01*
X112974286Y-94658571D02*
X112117143Y-94658571D01*
X112545715Y-94658571D02*
X112545715Y-93158571D01*
X112402858Y-93372857D01*
X112260000Y-93515714D01*
X112117143Y-93587143D01*
M02*
